<?xml version="1.0" standalone="no"?>
<!DOCTYPE svg PUBLIC "-//W3C//DTD SVG 1.1//EN" "http://www.w3.org/Graphics/SVG/1.1/DTD/svg11.dtd" >
<svg xmlns="http://www.w3.org/2000/svg" xmlns:xlink="http://www.w3.org/1999/xlink" version="1.1">
<metadata></metadata>
<defs>
<font id="caprasimoregular" horiz-adv-x="1229" >
<font-face units-per-em="2048" ascent="1638" descent="-410" />
<missing-glyph horiz-adv-x="512" />
<glyph horiz-adv-x="0" />
<glyph horiz-adv-x="682" />
<glyph unicode=" "  horiz-adv-x="512" />
<glyph unicode="&#x09;" horiz-adv-x="512" />
<glyph unicode="&#xa0;" horiz-adv-x="512" />
<glyph unicode="!" horiz-adv-x="631" d="M51 1261q0 126 75 179.5t191 53.5t190.5 -54t74.5 -179q0 -35 -5.5 -70t-14.5 -69l-125 -486q-12 -48 -38.5 -81.5t-81.5 -33.5t-81.5 34t-38.5 81l-126 486q-9 34 -14.5 69t-5.5 70zM78 226q0 66 29.5 124.5t81.5 95t121 36.5q70 0 122.5 -36.5t82.5 -94.5t30 -125 q0 -66 -30 -124.5t-83 -95.5t-122 -37t-121 37t-81.5 96t-29.5 124z" />
<glyph unicode="&#x22;" horiz-adv-x="885" d="M19 1339q0 100 47 160t153 60q102 0 148 -59.5t46 -155.5q0 -55 -13 -117l-76 -366q-10 -49 -38 -81t-81 -32q-47 0 -73 37.5t-34 78.5l-67 361q-5 29 -8.5 57.5t-3.5 56.5zM475 1338q0 100 47 160.5t153 60.5q102 0 147.5 -60t45.5 -155q0 -29 -3.5 -58.5t-9.5 -58.5 l-75 -366q-10 -49 -38 -81t-82 -32q-47 0 -73 38t-34 78l-67 361q-11 58 -11 113z" />
<glyph unicode="#" d="M12 499q0 100 103 100q53 0 106 -5t106 -11q18 67 32.5 135t26.5 137q-55 -2 -111 -3t-112 -1q-100 0 -100 98q0 100 103 100q63 0 125 -6.5t124 -14.5q5 38 11 80l12 87q5 32 13 80t29.5 85.5t65.5 37.5q43 0 72.5 -25.5t29.5 -69.5q0 -60 -23.5 -142t-43.5 -149 q33 -2 64 -2q67 0 140 4q6 40 11.5 79.5t10.5 78.5q3 24 8 62t16 75.5t31.5 63t54.5 25.5q42 0 72 -25t30 -69q0 -60 -21.5 -136.5t-40.5 -138.5l5 1q40 5 80.5 8t80.5 3q45 0 70.5 -26t25.5 -71t-25 -73.5t-72 -28.5q-54 0 -107.5 3.5t-107.5 6.5q-12 -44 -22 -88t-19 -89 l-20 -102q32 3 65 7q40 5 80.5 8t80.5 3q97 0 97 -97q0 -45 -25.5 -73.5t-72.5 -28.5q-64 0 -128.5 5t-128.5 10l-51 -263q-5 -29 -14.5 -66.5t-29.5 -65t-59 -27.5q-41 0 -71.5 25.5t-30.5 68.5q0 44 16 103.5t37 119t35 102.5q1 4 3 8q-53 0 -105.5 -1t-105.5 -2 q-12 -61 -22.5 -122t-20.5 -122q-5 -30 -14 -72.5t-30 -75t-62 -32.5q-42 0 -72 25t-30 69t15 102t35.5 115.5t34.5 100.5q1 4 3 8q-41 -1 -81.5 -1.5t-81.5 -1.5q-100 -2 -100 97zM469 567q31 -3 62.5 -5t62.5 -2q48 0 99 2q20 74 36.5 148.5t29.5 149.5q-22 1 -42 1 q-45 0 -89.5 -0.5t-89.5 -1.5q-19 -73 -36 -146t-33 -146z" />
<glyph unicode="$" d="M93 324q0 83 49 135t134 52q84 0 136 -57t52 -139v-66q0 -81 62 -118q4 23 8 46.5t8 47.5q9 59 13.5 119t6.5 120q-72 36 -152 73t-150 88.5t-114 128t-44 191.5q0 131 63.5 220.5t165 140t216.5 65.5q-3 25 -5 50.5t-2 50.5q0 48 21.5 86.5t76.5 38.5t77 -41t22 -88 q0 -24 -1.5 -47t-4.5 -46q97 -9 188 -42.5t149.5 -102.5t58.5 -183q0 -46 -19.5 -92t-55.5 -77t-88 -31q-80 0 -144.5 50.5t-64.5 135.5v101q0 72 -43 113q-2 -13 -4.5 -26.5t-4.5 -27.5q-12 -75 -16 -150.5t-5 -151.5q73 -37 155.5 -73t155.5 -83.5t119.5 -118.5t46.5 -179 q0 -143 -64 -232.5t-168 -135.5t-225 -59q3 -34 3 -65q0 -46 -22.5 -84.5t-75.5 -38.5q-54 0 -77 40t-23 87q0 28 3 58q-72 7 -145.5 26t-135 56t-99 94.5t-37.5 140.5zM507 1107q0 -52 23.5 -91t62.5 -69q-1 60 -5 120t-13 120q-3 17 -5.5 34t-5.5 34q-30 -25 -43.5 -67.5 t-13.5 -80.5zM653 413q2 -45 6 -90.5t11 -90.5q4 -25 8.5 -50t8.5 -50q31 15 51 44t20 71q0 55 -29 95t-76 71z" />
<glyph unicode="%" horiz-adv-x="1660" d="M29 1013q0 119 46.5 212t134 146.5t209.5 53.5q114 0 194 -50.5t122 -137.5t42 -196q0 -117 -40 -216.5t-122.5 -160t-211.5 -60.5q-192 0 -283 113.5t-91 295.5zM373 951q0 -12 0.5 -46t3.5 -73t10 -67t20 -28q10 0 15.5 23.5t8 55.5t3 60t0.5 37v171q0 11 -0.5 44.5 t-3 71.5t-9 65.5t-17.5 27.5q-12 0 -18 -24.5t-9 -58.5t-3.5 -63.5t-0.5 -39.5v-156zM455 126q0 54 34 118t77.5 125t71.5 106q13 20 36 62.5t51 78t53 35.5q26 0 45.5 -19.5t19.5 -45.5q0 -25 -8 -48t-11 -47q-3 -22 -5.5 -43.5t-4.5 -43.5q-5 -44 -13 -116t-26.5 -145.5 t-55 -123.5t-98.5 -50q-61 0 -113.5 47.5t-52.5 109.5zM823 809q0 9 2 17l4 16q5 21 8 42t4 42q3 37 8.5 98t17.5 129.5t34 129.5t57.5 100t87.5 39q40 0 78.5 -22.5t63.5 -58.5t25 -77q0 -38 -30 -100.5t-73 -131.5t-84.5 -129.5t-64.5 -96.5q-11 -17 -28.5 -41t-41.5 -24 q-26 0 -47 21t-21 47zM884 363q0 119 46 212.5t133.5 147t210.5 53.5q114 0 193.5 -51t121.5 -138t42 -196q0 -117 -40 -216.5t-122.5 -159.5t-211.5 -60q-191 0 -282 113.5t-91 294.5zM1228 291q0 -11 0.5 -43t3.5 -69t10 -64t20 -27q10 0 15 23t7.5 54.5t3 59t0.5 36.5 v174q0 11 -0.5 44.5t-3 71.5t-9 65.5t-17.5 27.5t-17.5 -23.5t-9 -55.5t-3 -60.5t-0.5 -37.5v-176z" />
<glyph unicode="&#x26;" horiz-adv-x="1780" d="M60 310q0 109 58 182t149 117t190 63q-65 35 -113.5 73t-75 91.5t-26.5 136.5q0 127 63.5 211.5t164 134t215 71t216.5 21.5q80 0 169.5 -18t168 -59t127.5 -108t49 -165q0 -78 -38 -131.5t-100 -87.5t-137 -53t-148 -28q58 -33 110.5 -71.5t108.5 -95.5l127 -131 q13 17 23.5 36t10.5 41q0 23 -6.5 30t-24.5 19q-27 18 -46.5 45t-19.5 61q0 46 34 78.5t79 32.5h244q51 0 83 -20.5t32 -76.5q0 -50 -16 -77t-57 -55q-67 -45 -126.5 -99t-118.5 -108l112 -116q24 -25 57.5 -33.5t66 -16.5t54 -28.5t21.5 -68.5q0 -56 -32 -82t-85 -26h-329 q-115 0 -195 81l-53 54q-97 -87 -212.5 -125.5t-252.5 -38.5q-78 0 -168.5 17t-170.5 55.5t-131 104.5t-51 163zM526 399q0 -88 57 -138.5t142 -50.5q54 0 104.5 10.5t93.5 39.5l-250 256q-35 36 -60 58q-42 -24 -64.5 -78t-22.5 -97zM705 1090q0 -102 38 -156.5t124 -102.5 l1 -1q58 35 75 107t17 136q0 36 -13 75.5t-40 66.5t-70 27q-65 0 -98.5 -46t-33.5 -106z" />
<glyph unicode="'" horiz-adv-x="467" d="M37 1338q0 100 47.5 160.5t153.5 60.5q102 0 148.5 -60t46.5 -156q0 -29 -3.5 -58t-9.5 -58l-76 -366q-10 -49 -38.5 -81t-81.5 -32q-48 0 -74.5 37t-34.5 79l-67 361q-11 58 -11 113z" />
<glyph unicode="(" horiz-adv-x="1021" d="M174 602q0 261 135 468t369 319q30 14 77.5 31.5t96.5 30t81 12.5q28 0 58 -15.5t30 -48.5q0 -35 -32.5 -64.5t-57.5 -49.5q-29 -22 -58 -44.5t-56 -47.5q-76 -70 -135.5 -169t-93.5 -208.5t-34 -213.5q0 -141 49.5 -265t135 -229.5t192.5 -190.5q25 -19 57.5 -48 t32.5 -64q0 -33 -30 -49t-58 -16t-78.5 13.5t-100 31.5t-76.5 30q-155 74 -268.5 192.5t-174.5 270t-61 324.5z" />
<glyph unicode=")" horiz-adv-x="1021" d="M0 -195q0 34 28 59t51 44q110 89 198 193.5t139 229t51 271.5q0 148 -51 272t-139 228.5t-199 192.5q-24 20 -51 44.5t-27 59.5q0 34 30 49t58 15q33 0 81.5 -12.5t96 -30t77.5 -31.5q156 -73 268.5 -192t173.5 -271t61 -324t-61 -324.5t-173.5 -271.5t-268.5 -191 q-27 -12 -77 -30t-99.5 -31.5t-78.5 -13.5q-28 0 -58 15.5t-30 49.5z" />
<glyph unicode="*" d="M56 982q0 36 11.5 85t34 96t56 78t78.5 31q49 0 91 -37t82.5 -91t85 -106.5t100.5 -81.5q-9 65 -38.5 118t-65 100.5t-61 94.5t-25.5 100q0 60 34 90.5t84.5 41t97.5 10.5q46 0 96 -11.5t84.5 -42t34.5 -88.5q0 -53 -25.5 -100t-60.5 -94t-65 -100t-38 -118q54 30 98 82 t85 106t84 91t95 37q44 0 76.5 -31t55 -77.5t33.5 -95t11 -83.5q0 -67 -36 -107t-105 -40q-56 0 -109.5 17.5t-106.5 35t-110 17.5q-27 0 -53 -5q48 -47 117 -77t136 -57t112 -64t45 -98q0 -40 -28.5 -81.5t-72 -76t-90.5 -56t-85 -21.5q-66 0 -94.5 44.5t-35 104.5 t-7.5 108q-1 63 -6.5 124.5t-34.5 117.5q-29 -56 -34.5 -118t-6.5 -125q0 -47 -7.5 -108t-36 -105.5t-94.5 -44.5q-38 0 -85 22t-90 57.5t-71 78t-28 82.5q0 53 33 86.5t80 54t88 35.5q57 21 112 46.5t97 70.5q-27 5 -54 5q-56 0 -109.5 -17.5t-106.5 -35t-110 -17.5 q-67 0 -104.5 38t-37.5 105z" />
<glyph unicode="+" d="M116 674q0 44 23.5 85.5t74.5 41.5h279v293q0 51 40.5 74.5t84.5 23.5t81.5 -24t37.5 -74v-293h280q51 0 73.5 -41.5t22.5 -85.5q0 -43 -23 -82t-73 -39h-280v-293q0 -49 -37.5 -73.5t-81.5 -24.5q-45 0 -85 24.5t-40 75.5v291h-280q-49 0 -73 39t-24 82z" />
<glyph unicode="," horiz-adv-x="614" d="M55 -337q0 45 22.5 60t59.5 28q47 17 93 39t77 58t31 94q0 21 -10.5 27t-28.5 6q-217 0 -217 214q0 98 62.5 170t164.5 72q92 0 147 -48t79.5 -122.5t24.5 -154.5q0 -134 -33 -243t-112.5 -184t-220.5 -107q-23 -5 -42 -5q-45 0 -71 25.5t-26 70.5z" />
<glyph unicode="-" horiz-adv-x="582" d="M3 456q0 28 8.5 54t18.5 51v2q4 6 6 18q8 42 34.5 74.5t73.5 32.5h366q29 0 49.5 -13.5t20.5 -45.5q0 -22 -7.5 -44t-13.5 -44q-9 -32 -21 -65.5t-34 -56t-64 -22.5h-367q-29 0 -49.5 13.5t-20.5 45.5z" />
<glyph unicode="." horiz-adv-x="614" d="M74 226q0 66 29.5 124.5t81.5 95t121 36.5q70 0 122.5 -36.5t82.5 -94.5t30 -125q0 -66 -30 -124.5t-83 -95.5t-122 -37t-121 37t-81.5 96t-29.5 124z" />
<glyph unicode="/" horiz-adv-x="966" d="M8 -185q0 34 17.5 78.5t40.5 88t40 74.5q80 146 160 291.5t145 297.5q56 132 104 267t94 271q20 62 41.5 123t50.5 119q19 37 45 65.5t72 28.5q53 0 98 -36.5t45 -92.5q0 -28 -14 -69.5t-33 -81.5t-34 -65q-31 -65 -63 -129t-64 -129q-43 -88 -83 -177t-78 -180 l-282 -684v-1l-3 -6v-2q-15 -34 -33.5 -76t-47 -73t-74.5 -31q-52 0 -98 36.5t-46 92.5z" />
<glyph unicode="0" d="M70 631q0 131 33.5 252t103 216.5t176 151t251.5 55.5q135 0 234.5 -51.5t164 -140t96 -201.5t31.5 -235q0 -129 -28.5 -256t-92 -231.5t-167.5 -167.5t-254 -63q-152 0 -257 53.5t-169 146.5t-93 214.5t-29 256.5zM526 626q0 -34 1 -98t5.5 -134.5t14 -129.5t26.5 -85 q10 -14 20.5 -24t29.5 -10q26 0 42 40t25 101t12.5 126t4 117t0.5 71v86.5t-3.5 134t-13 142t-27.5 113t-48 44.5q-31 0 -48 -35t-25 -84.5t-10.5 -95t-2.5 -66.5q-1 -53 -2 -106.5t-1 -106.5z" />
<glyph unicode="1" d="M61 111q0 62 36 87.5t88.5 33.5t105 12.5t88.5 21.5t36 63v490q0 55 -21 80.5t-78 25.5q-21 0 -42 -1.5t-42 -1.5q-68 0 -114.5 23.5t-46.5 102.5q0 57 36.5 91.5t92.5 34.5q29 0 58.5 -0.5t58.5 -0.5q88 0 146 13t138 47q36 16 73.5 28t77.5 12q56 0 85 -31t29 -87v-826 q0 -44 33 -61.5t81 -23.5t96.5 -15t81.5 -34.5t33 -83.5q0 -56 -31 -83.5t-86 -27.5h-894q-54 0 -86.5 27.5t-32.5 83.5z" />
<glyph unicode="2" d="M70 194q0 77 33 128.5t86 80.5l-2 2l10 3q58 29 135 35l2 1q21 5 44 18.5t41 25.5q92 60 137.5 123.5t60.5 142.5t15 183q0 17 -1 51.5t-7 72t-20 64t-39 26.5q-32 0 -45.5 -21t-16 -49.5t-2.5 -51.5v-106q0 -94 -53.5 -153.5t-150.5 -59.5q-104 0 -152 71.5t-48 165.5 q0 101 46 170t121 110.5t163.5 60t172.5 18.5q94 0 183 -19t160.5 -62.5t114 -117t42.5 -183.5t-50 -193t-130.5 -144t-170.5 -107q-28 -14 -55.5 -27t-56.5 -24q58 -5 116.5 -9t117.5 -4q62 0 97.5 19.5t58 44.5t42.5 44.5t50 19.5q45 0 56 -41.5t11 -75.5q0 -9 -0.5 -18.5 t-1.5 -18.5q-6 -78 -23.5 -154.5t-54.5 -139t-99 -100t-156 -37.5q-92 0 -165.5 45t-101.5 137q-6 19 -10 38t-31 19q-25 0 -33.5 -20.5t-13.5 -39.5q-28 -103 -75 -140.5t-155 -37.5q-100 0 -148 72t-48 162z" />
<glyph unicode="3" d="M90 260q0 92 58.5 160t154.5 68q94 0 144.5 -54t50.5 -146v-95q0 -43 38.5 -61t73.5 -18q56 0 85.5 31.5t40.5 77.5t11 91q0 86 -24.5 125.5t-63.5 50.5t-83 10t-83 2t-63.5 26t-24.5 84q0 38 17 74.5t47 59.5l197 149h-204q-51 0 -70.5 -14.5t-39.5 -60.5 q-19 -46 -37.5 -84.5t-80.5 -38.5q-48 0 -75 29t-27 76l29 337q5 62 46 94t101 32h756q56 0 88 -35.5t32 -90.5q0 -46 -28.5 -81.5t-58.5 -65.5q-6 -6 -11.5 -12t-12.5 -11l-336 -244q12 1 26 1q104 0 197 -39t151.5 -115.5t58.5 -190.5q0 -118 -50.5 -199t-133.5 -129.5 t-183.5 -70.5t-200.5 -22q-73 0 -161 11.5t-168 43t-131.5 91t-51.5 154.5z" />
<glyph unicode="4" d="M36 438q0 40 23 82.5t54 66.5q39 30 80 58t80 58q22 17 47.5 49.5t44 69t18.5 64.5q0 40 -16.5 76t-33 73.5t-16.5 80.5q0 121 80.5 175t189.5 54q104 0 169.5 -53.5t65.5 -162.5q0 -61 -28.5 -118.5t-71 -107.5t-85.5 -89l-323 -294h224q3 26 12 51t28 44l227 233 q19 20 42.5 38.5t52.5 18.5q38 0 49.5 -28t11.5 -59l2 -298h79q47 0 74 -24t27 -72q0 -53 -23 -81t-79 -28h-76q5 -39 29 -59t53.5 -35.5t51 -39t21.5 -70.5q0 -111 -108 -111h-544q-108 0 -108 111q0 59 25 81.5t59 32t61 26.5t31 64h-393q-55 0 -81 36.5t-26 86.5z" />
<glyph unicode="5" d="M92 253q0 93 58 164t156 71q92 0 142 -55.5t50 -145.5v-95q0 -40 31.5 -59t66.5 -19q54 0 78.5 29t30.5 72.5t6 84.5q0 68 -15.5 126t-57.5 94t-122 36h-128q-27 -12 -57 -23.5t-60 -11.5q-45 0 -68 27t-23 70v505q0 71 32.5 115t108.5 44q28 0 55.5 -4t54.5 -9 q165 -30 332 -30q63 0 129.5 5.5t125.5 29.5q15 6 29.5 13.5t30.5 7.5q38 0 51.5 -28t13.5 -60q0 -140 -64 -222.5t-169.5 -118.5t-229.5 -36q-78 0 -155 10.5t-153 28.5v-139q67 30 138.5 40.5t148.5 10.5q124 0 232.5 -42.5t175.5 -131t67 -225.5q0 -120 -49 -201.5 t-131.5 -130t-183 -69.5t-202.5 -21q-70 0 -152.5 12t-156 44t-120.5 89.5t-47 147.5z" />
<glyph unicode="6" d="M71 592q0 196 68.5 358t207.5 259t350 97q65 0 139.5 -15t141 -48t108.5 -88t42 -135q0 -99 -55 -159.5t-156 -60.5q-97 0 -152 46t-55 147v62q0 64 -62 64q-39 0 -64.5 -40.5t-40 -104.5t-21 -137t-8.5 -138q63 40 138.5 61t138.5 21q176 0 272.5 -100t96.5 -275 q0 -151 -74.5 -250.5t-195.5 -148t-259 -48.5q-189 0 -313.5 85t-185.5 228.5t-61 319.5zM513 518q0 -44 3.5 -106.5t15.5 -123t37 -101t69 -40.5q47 0 67.5 35t26 81t5.5 79q0 36 -8 85.5t-32 86.5t-73 37q-30 0 -59 -8t-52 -25z" />
<glyph unicode="7" d="M107 713v8l27 413q4 57 37.5 94t92.5 37h836q70 0 112.5 -37t42.5 -109q0 -57 -28.5 -106t-66.5 -89l-79 -28q-28 -10 -53.5 -22.5t-48.5 -27.5h-1q-16 -10 -32 -21.5t-33 -23.5q-55 -40 -107.5 -89.5t-52.5 -126.5q0 -62 30.5 -117.5t60.5 -114t30 -129.5 q0 -120 -77.5 -192.5t-195.5 -72.5q-144 0 -223 82.5t-79 224.5q0 93 47.5 173t117 146.5t135.5 120.5q20 16 44.5 37t47.5 30l189 73h-433q-67 0 -84.5 -24.5t-34.5 -82.5q-13 -47 -36 -85.5t-82 -38.5q-44 0 -73.5 26t-29.5 72z" />
<glyph unicode="8" d="M104 286q0 78 38 127t98.5 76t127.5 39q-72 32 -130 73.5t-92 105t-34 159.5q0 119 48.5 202.5t130 136t182 77t203.5 24.5q110 0 215 -37t173 -115.5t68 -204.5q0 -121 -65.5 -187.5t-161.5 -92.5q63 -30 117 -68.5t86.5 -96.5t32.5 -145q0 -114 -53 -190.5t-138.5 -122 t-185.5 -65.5t-194 -20q-81 0 -163 14t-150.5 49.5t-110.5 99t-42 162.5zM537 310q0 -27 3.5 -75t20.5 -87t57 -39q34 0 48.5 22.5t18 53t3.5 54.5q0 95 -38.5 141t-104.5 76q-5 -36 -6.5 -72.5t-1.5 -73.5zM538 1022q0 -95 43 -153t108 -98q15 51 18.5 104.5t3.5 105.5 q0 32 -4.5 70t-23 66t-62.5 28q-55 0 -69 -39.5t-14 -83.5z" />
<glyph unicode="9" d="M70 850q0 153 73.5 254.5t194.5 151.5t261 50q188 0 312.5 -85t186 -228t61.5 -319q0 -198 -68.5 -360t-207.5 -258.5t-353 -96.5q-66 0 -139.5 15t-139 48.5t-106.5 88.5t-41 135q0 99 55 159.5t156 60.5q97 0 152.5 -46t55.5 -147v-61q0 -31 10.5 -48.5t45.5 -17.5 q40 0 65.5 38.5t40.5 100t21.5 131.5t8.5 133q-62 -41 -137 -61.5t-138 -20.5q-179 0 -274.5 104t-95.5 279zM494 914q0 -36 7.5 -87.5t31.5 -90.5t74 -39q30 0 58.5 8t51.5 25q0 45 -3.5 110.5t-15.5 129.5t-37.5 106.5t-69.5 42.5q-47 0 -67.5 -37.5t-25 -86t-4.5 -81.5z " />
<glyph unicode=":" horiz-adv-x="614" d="M73 779q0 66 29.5 124t82 94.5t121.5 36.5q70 0 122.5 -36t82.5 -94t30 -125q0 -65 -30 -124.5t-83 -96.5t-122 -37t-121.5 37t-82 96.5t-29.5 124.5zM74 226q0 66 29.5 124.5t81.5 95t121 36.5q70 0 122.5 -36.5t82.5 -94.5t30 -125q0 -66 -30 -124.5t-83 -95.5 t-122 -37t-121 37t-81.5 96t-29.5 124z" />
<glyph unicode=";" horiz-adv-x="614" d="M55 -336q0 46 23 60.5t60 27.5q47 16 93 38t77 58.5t31 94.5q0 21 -10.5 27t-28.5 6q-218 0 -218 214q0 99 63 170.5t165 71.5q92 0 147 -48t79 -122.5t24 -154.5q0 -133 -32.5 -242.5t-112 -184.5t-220.5 -107q-23 -5 -42 -5q-45 0 -71.5 25t-26.5 71zM70 778 q0 66 29.5 124t81.5 94.5t121 36.5q70 0 122.5 -36t82.5 -94t30 -125q0 -65 -30 -124.5t-83 -96.5t-122 -37t-121 37.5t-81.5 96.5t-29.5 124z" />
<glyph unicode="&#x3c;" horiz-adv-x="1024" d="M105 676q0 45 20 93t57 75q9 7 18 12.5t18 12.5l352 259q24 18 63.5 38.5t81 35.5t70.5 15q58 0 84 -35t26 -89q0 -56 -30 -89.5t-71 -64.5l-350 -262l350 -263q41 -31 71 -64.5t30 -89.5q0 -54 -25.5 -89t-84.5 -35q-29 0 -70.5 15t-81 36t-63.5 38l-352 259 q-9 7 -18 12.5t-18 12.5q-37 27 -57 74.5t-20 92.5z" />
<glyph unicode="=" d="M116 476q0 44 23.5 85.5t74.5 41.5h803q51 0 73.5 -41.5t22.5 -85.5t-23 -82.5t-73 -38.5h-804q-49 0 -73 39t-24 82zM116 876q0 44 24 85t74 41h803q51 0 73.5 -41t22.5 -85q0 -43 -23 -82.5t-73 -39.5h-804q-49 0 -73 39.5t-24 82.5z" />
<glyph unicode="&#x3e;" horiz-adv-x="1024" d="M129 260q0 56 31 89.5t72 64.5l350 263l-350 262q-41 31 -72 64.5t-31 89.5q0 54 26.5 89t84.5 35q30 0 71 -15t80.5 -35.5t63.5 -38.5l369 -271q47 -34 71 -78t24 -103q0 -69 -29.5 -111t-82.5 -81l-352 -259q-24 -17 -63.5 -38t-80.5 -36t-71 -15q-58 0 -84.5 35 t-26.5 89z" />
<glyph unicode="?" horiz-adv-x="987" d="M-10 1084q0 96 44 167t115.5 118t157 70.5t169.5 23.5q101 0 192.5 -16t164 -57t114 -116.5t41.5 -194.5q0 -160 -83.5 -247.5t-237.5 -111.5q-2 -1 -5 -1t-5 -1q-24 0 -35 -15.5t-20 -34.5t-26 -29q-22 -50 -52 -84t-90 -34q-55 0 -77 25t-48 67q-14 24 -24 43t-10 48 q0 52 28.5 79.5t66.5 53.5q57 40 81.5 77t30.5 83t6 110q0 15 -1 55.5t-7.5 76t-24.5 35.5q-12 0 -16.5 -30t-4.5 -63.5v-44.5q0 -117 -51 -194.5t-180 -77.5q-102 0 -157.5 60t-55.5 160zM198 226q0 66 29.5 124.5t81.5 95t121 36.5q70 0 122.5 -36.5t82.5 -94.5t30 -125 q0 -66 -30 -124.5t-83 -95.5t-122 -37t-121 37t-81.5 96t-29.5 124z" />
<glyph unicode="@" horiz-adv-x="1636" d="M73 525q0 161 60.5 300t167.5 243.5t247 163t300 58.5q213 0 374 -90.5t250.5 -252t89.5 -374.5q0 -123 -47 -231.5t-138.5 -176t-225.5 -67.5q-78 0 -152.5 28.5t-103.5 99.5q-29 -61 -89.5 -94.5t-126.5 -33.5q-111 0 -172 70t-61 177q0 104 51 170t133 97.5t175 31.5 q29 0 48 -4v98q0 8 -0.5 27.5t-5 36.5t-17.5 17q-17 0 -18.5 -21.5t-1.5 -33.5q0 -35 -36 -52.5t-80 -23t-69 -5.5q-29 0 -65.5 8t-63 29t-26.5 59q0 71 49.5 112t123 60t148 24.5t124.5 5.5q76 0 143 -26.5t109 -80.5t42 -138v-340q0 -24 7 -52.5t41 -28.5q39 0 62 31 t34.5 76.5t15 90.5t3.5 72q0 159 -69 278.5t-190.5 186.5t-279.5 67q-174 0 -303 -76t-200.5 -209t-71.5 -305q0 -168 71.5 -295.5t199 -198.5t295.5 -71q120 0 256 10.5t246 62.5q23 11 47 24t51 13q22 0 43.5 -15t21.5 -40q0 -41 -41.5 -77t-73.5 -55q-75 -44 -171 -69.5 t-195.5 -36t-185.5 -10.5q-225 0 -393.5 95.5t-262 266t-93.5 394.5zM810 429q0 -24 8.5 -60t34.5 -47v202h-2q-14 0 -23 -19.5t-13.5 -42t-4.5 -33.5zM881 353l5 -21v2q0 9 -5 19z" />
<glyph unicode="A" horiz-adv-x="1693" d="M62 109q0 48 25.5 71.5t56.5 52.5q28 26 42 58t26 67l227 681q6 17 11.5 34.5t5.5 36.5q0 23 -15.5 36t-35.5 26.5t-35.5 36.5t-15.5 66q0 57 33.5 83t87.5 26h720q54 0 87.5 -25.5t33.5 -83.5q0 -41 -14 -63.5t-32 -35.5t-32 -27t-14 -38q0 -17 4.5 -33.5t9.5 -32.5 l207 -605q16 -47 25.5 -85t28.5 -70.5t62 -65.5q34 -25 48 -45.5t14 -64.5q0 -58 -33.5 -83.5t-87.5 -25.5h-511q-54 0 -88 25.5t-34 83.5q0 41 17.5 64t41 36.5t41 25t17.5 28.5q0 14 -3.5 28t-8.5 27l-32 102h-468l-5 -14q-8 -24 -21 -53.5t-13 -54.5q0 -28 24 -45.5 t55.5 -34t55.5 -41.5t24 -68q0 -57 -33.5 -83t-87.5 -26h-289q-54 0 -88 25.5t-34 83.5zM547 643h324l-160 501z" />
<glyph unicode="B" horiz-adv-x="1469" d="M61 109q0 50 20.5 75.5t47.5 41.5t47.5 37.5t20.5 63.5v730q0 44 -20.5 65t-47.5 36.5t-47.5 40.5t-20.5 76q0 57 32.5 83t86.5 26h611q98 0 201.5 -21t191.5 -69t142.5 -128t54.5 -198q0 -129 -78.5 -202.5t-186.5 -105.5q87 -19 164.5 -59.5t126.5 -106.5t49 -162 q0 -102 -45 -167t-118.5 -101t-159.5 -50t-169 -14h-784q-54 0 -86.5 26t-32.5 83zM689 367q0 -76 37 -121.5t116 -45.5q73 0 102.5 43t29.5 110q0 80 -46.5 132.5t-129.5 52.5h-109v-171zM689 706h36q113 0 155.5 65t42.5 168q0 112 -56 178t-172 66h-6v-477z" />
<glyph unicode="C" horiz-adv-x="1474" d="M70 695q0 147 52 278.5t146 233.5t221.5 160t278.5 58q47 0 94 -5.5t92 -19.5q28 -9 56 -20t58 -11q27 0 48.5 13.5t42.5 26.5t45 13q51 0 67 -32t27 -72l90 -312q4 -13 4 -29q0 -47 -38 -70.5t-80 -23.5q-49 0 -79.5 34t-56.5 84.5t-60.5 100.5t-90 84t-146.5 34 q-89 0 -144 -46.5t-84 -119t-39.5 -153.5t-10.5 -149q0 -122 36 -234t119 -183.5t224 -71.5q75 0 136 30.5t110 71t85.5 71t61.5 30.5q37 0 54 -26.5t17 -59.5q0 -44 -15.5 -85t-39.5 -77q-59 -90 -149.5 -147t-195.5 -84t-209 -27q-220 0 -383.5 92.5t-253.5 258.5t-90 384 z" />
<glyph unicode="D" horiz-adv-x="1643" d="M83 109q0 52 21 77t49 41t49 36.5t21 63.5v730q0 44 -21 65t-49 36.5t-49 40.5t-21 76q0 56 33.5 82.5t86.5 26.5h596q224 0 402 -90.5t281.5 -257.5t103.5 -398q0 -199 -93 -342t-250 -219.5t-348 -76.5h-692q-54 0 -87 26t-33 83zM715 379q0 -68 28.5 -112t104.5 -44 q74 0 120 45t70.5 113t33.5 141t9 128q0 77 -14 165.5t-49.5 167t-98 128.5t-160.5 50h-44v-782z" />
<glyph unicode="E" horiz-adv-x="1415" d="M93 109q0 52 21.5 77t49.5 40.5t49.5 36.5t21.5 64v730q0 43 -21.5 64t-49.5 36.5t-49.5 40.5t-21.5 77q0 57 34 83t87 26h669q25 0 73 5t70 15q23 0 44.5 6.5t43.5 6.5q69 0 102.5 -37t49.5 -90.5t31 -105.5q11 -37 25.5 -79t14.5 -82q0 -47 -38.5 -71t-80.5 -24 q-43 0 -65.5 21t-42.5 56q-33 60 -57.5 94t-62 48t-111.5 14h-152v-367h79q48 0 67 24t28.5 56t29 56t68.5 24q41 0 65.5 -23t33.5 -61l61 -254q2 -10 4 -21.5t2 -22.5q0 -44 -30 -71t-73 -27q-30 0 -50.5 15.5t-39.5 36.5q-29 33 -46.5 47t-39.5 17t-65 3h-94v-203 q0 -77 43 -122t121 -45q80 0 123.5 14t72 50.5t64.5 104.5q19 35 41 57t65 22q47 0 82.5 -28.5t35.5 -78.5q0 -19 -7 -44l-56 -197q-19 -67 -50 -112.5t-110 -45.5q-31 0 -61 7.5t-59 14.5q-53 13 -112 13h-706q-53 0 -87 26t-34 83z" />
<glyph unicode="F" horiz-adv-x="1354" d="M93 109q0 50 21.5 75.5t50 42t50 37.5t21.5 63v730q0 42 -21.5 63.5t-50 37.5t-50 41t-21.5 76q0 57 34 83t87 26h649q29 0 57 2.5t56 9.5l58 14t60 7q57 0 85.5 -21t44 -56.5t31.5 -80.5l1 -2v-1q2 -2 3.5 -8.5t2.5 -9.5q11 -31 25.5 -74.5t26 -87t11.5 -75.5 q0 -46 -38.5 -70t-79.5 -24q-43 0 -65 21t-41 56q-34 64 -59 102.5t-64.5 56.5t-119.5 18h-130v-418h105q52 0 71.5 24t29 55.5t28.5 55.5t70 24q79 0 100 -83l61 -254q2 -10 4 -21.5t2 -22.5q0 -43 -30 -70.5t-73 -27.5q-31 0 -50.5 15t-39.5 37q-29 34 -48.5 47.5 t-43 16.5t-67.5 3h-119v-214q0 -49 26 -69.5t59.5 -32.5t59.5 -36t26 -81t-33 -83t-87 -26h-565q-53 0 -87 26t-34 83z" />
<glyph unicode="G" horiz-adv-x="1626" d="M70 693q0 156 58 289.5t161 232.5t238.5 154.5t289.5 55.5q59 0 117 -7.5t114 -24.5q29 -8 56.5 -16t57.5 -8q26 0 47.5 13.5t43 26.5t47.5 13q51 0 66.5 -32t27.5 -72q9 -29 24.5 -75t32 -97.5t27.5 -96.5t11 -71q0 -48 -38 -71.5t-81 -23.5q-44 0 -66 22t-44 56 q-50 76 -97 134.5t-110.5 91.5t-163.5 33q-96 0 -159 -42.5t-99.5 -112t-52 -151t-15.5 -160.5q0 -58 7.5 -117.5t23.5 -115.5q22 -75 66.5 -144.5t110.5 -113.5t151 -44q36 0 57 12.5t21 52.5v154q0 26 -10 35t-30 21q-26 16 -56.5 31.5t-51.5 38t-21 59.5q0 56 35 79.5 t86 23.5h495q51 0 85.5 -23t34.5 -79q0 -44 -20 -66.5t-46 -36.5t-46 -31.5t-20 -51.5v-366q0 -112 -110 -112q-41 0 -71.5 24.5t-58 49t-58.5 24.5q-29 0 -62.5 -15t-60.5 -27q-58 -27 -117 -41t-124 -14q-225 0 -382 91.5t-239 256t-82 384.5z" />
<glyph unicode="H" horiz-adv-x="1642" d="M40 109q0 50 20 75t47 41t47 37.5t20 64.5v730q0 43 -20 64.5t-47 37.5t-47 41t-20 75q0 57 33 83t87 26h520q54 0 87 -26t33 -83q0 -50 -20 -75t-47 -41t-47 -37.5t-20 -64.5v-287h311v287q0 43 -20 64.5t-46.5 38t-46.5 41.5t-20 74q0 57 32.5 83t86.5 26h520 q54 0 87 -26t33 -83q0 -51 -20 -76t-47 -40.5t-47 -36.5t-20 -65v-730q0 -44 20 -65t47 -36.5t47 -40t20 -76.5q0 -57 -33 -83t-87 -26h-520q-54 0 -86.5 26t-32.5 83q0 52 20 76.5t46.5 40t46.5 36.5t20 65v221h-311v-221q0 -42 20 -63t47 -37t47 -41.5t20 -76.5 q0 -57 -33 -83t-87 -26h-520q-54 0 -87 26t-33 83z" />
<glyph unicode="I" horiz-adv-x="847" d="M44 109q0 52 20 77t47 40.5t47 36.5t20 64v730q0 43 -20 64t-47 36.5t-47 40.5t-20 77q0 57 33 83t87 26h520q54 0 87 -26t33 -83q0 -52 -20 -77t-47 -40.5t-47 -36.5t-20 -64v-730q0 -43 20 -63.5t47 -36t47 -40.5t20 -78q0 -57 -33 -83t-87 -26h-520q-54 0 -87 26 t-33 83z" />
<glyph unicode="J" horiz-adv-x="1284" d="M59 330q0 98 57 167.5t160 69.5t157 -65.5t54 -163.5l-1 -95q0 -47 18 -82q20 -37 80 -37q41 0 66.5 20.5t25.5 63.5q0 35 -14.5 66.5t-30.5 60.5q-40 75 -64.5 144.5t-24.5 156.5v421q0 39 -20 57t-50 27t-59.5 20.5t-49.5 37t-20 76.5q0 58 34 83.5t88 25.5h605 q53 0 87 -26t34 -83q0 -54 -23.5 -79t-55 -39.5t-55 -35t-23.5 -64.5v-372q0 -46 5.5 -90t21.5 -88q20 -55 42 -110.5t22 -115.5q0 -98 -56.5 -160.5t-143.5 -96.5t-181 -47t-169 -13q-89 0 -180 17.5t-167 58.5t-122.5 112t-46.5 178z" />
<glyph unicode="K" horiz-adv-x="1694" d="M83 109q0 52 21 77t49 41t49 36.5t21 63.5v730q0 44 -21 65t-49 36.5t-49 40.5t-21 76q0 57 33 83t87 26h531q54 0 87 -26t33 -83q0 -51 -21 -76t-48.5 -41t-48.5 -37t-21 -64v-320l310 301q13 13 30.5 32.5t17.5 38.5q0 15 -18 27.5t-42 28.5t-42 42t-18 68q0 57 33 83 t87 26h413q54 0 87 -26t33 -83q0 -51 -36.5 -77t-74.5 -48q-40 -22 -73.5 -51.5t-67.5 -60.5l-176 -162l368 -571q26 -40 56 -61.5t51.5 -48.5t21.5 -86q0 -57 -32.5 -83t-86.5 -26h-523q-54 0 -87.5 26t-33.5 83q0 44 20 70.5t40 44.5t20 36q0 15 -6.5 28.5t-14.5 26.5 l-144 240l-112 -103v-132q0 -47 16 -69.5t37.5 -37t37.5 -36.5t16 -68q0 -56 -33.5 -82.5t-86.5 -26.5h-499q-54 0 -87 26t-33 83z" />
<glyph unicode="L" horiz-adv-x="1296" d="M67 109q0 52 21 77t48 40.5t48 36.5t21 64v730q0 43 -21 64t-48 36.5t-48 40.5t-21 77q0 57 33 83t87 26h526q54 0 87 -26t33 -83q0 -51 -20.5 -76t-48 -41t-48 -37t-20.5 -64v-743q0 -40 16.5 -65.5t60.5 -25.5h51q76 0 118 30.5t65.5 75t41.5 89t44 75t75 30.5 q50 0 84 -28.5t34 -80.5q0 -22 -6 -43l-68 -248q-19 -67 -49.5 -112.5t-110.5 -45.5q-31 0 -61.5 8t-60.5 15q-27 7 -54 9.5t-55 2.5h-634q-54 0 -87 26t-33 83z" />
<glyph unicode="M" horiz-adv-x="1810" d="M-5 109q0 48 18.5 71.5t44 39t45.5 38t23 68.5l50 732v9q0 38 -20 57.5t-46 35.5t-46 41.5t-20 73.5q0 56 33 82.5t86 26.5h355q100 0 151 -58t80 -144l163 -479l159 479q29 89 80 145.5t153 56.5h361q54 0 87 -26t33 -83q0 -47 -20 -73.5t-46.5 -43.5t-46.5 -35.5 t-20 -50.5v-5l42 -740q3 -49 21.5 -70.5t41.5 -34.5t40.5 -34.5t17.5 -71.5q0 -56 -31.5 -86t-87.5 -30h-500q-54 0 -86.5 26t-32.5 83q0 45 20 71.5t46.5 44t46.5 35.5t20 48v6l-34 476l-204 -588q-15 -44 -36.5 -85.5t-55.5 -68t-88 -26.5q-69 0 -102 24t-65 82 q-23 41 -38 85l-208 588l-32 -475v-8q0 -34 17 -55.5t38.5 -39.5t38.5 -43t17 -67q0 -57 -32.5 -85t-87.5 -28h-224q-54 0 -86.5 26t-32.5 83z" />
<glyph unicode="N" horiz-adv-x="1700" d="M53 1286q0 47 32.5 72.5t76.5 25.5h312q44 0 69.5 -5.5t46.5 -21.5t49 -49l619 -710v451q0 49 -24 71t-55.5 37t-55.5 39.5t-24 78.5q0 58 34 83.5t88 25.5h300q53 0 87.5 -26t34.5 -83q0 -61 -29.5 -83t-75.5 -50q-33 -19 -44 -36.5t-11 -56.5v-581q0 -47 7.5 -95.5 t32.5 -89.5q24 -39 52.5 -82.5t28.5 -91.5q0 -49 -29.5 -79t-78.5 -30h-340q-42 0 -67.5 19.5t-25.5 64.5q0 29 -29 63.5t-47 55.5l-513 594v-461q0 -40 10.5 -57t44.5 -37q45 -28 74.5 -50.5t29.5 -82.5q0 -58 -34 -83.5t-88 -25.5h-300q-54 0 -88 25.5t-34 83.5 q0 53 24 78t56 40.5t56 38t24 70.5v600q0 69 -18 102t-66 79q-32 32 -72 76t-40 93z" />
<glyph unicode="O" horiz-adv-x="1594" d="M70 702q0 214 93.5 377t257.5 254.5t377 91.5q214 0 377.5 -89.5t256 -251t92.5 -377.5q0 -219 -89 -387.5t-251.5 -264t-385.5 -95.5q-226 0 -389 92.5t-251 259.5t-88 390zM581 987q0 -124 20.5 -247.5t63.5 -240.5q12 -34 36.5 -88t58.5 -108t73.5 -91t81.5 -37 q51 0 72.5 41t26 94t4.5 88q0 158 -31 307q-8 38 -26 101t-45.5 133t-63 133t-78 102.5t-90.5 39.5q-51 0 -72.5 -42t-26 -95.5t-4.5 -89.5z" />
<glyph unicode="P" horiz-adv-x="1401" d="M39 109q0 51 20 76.5t47 41.5t47 37t20 63v730q0 43 -20 64.5t-47 37.5t-47 41t-20 75q0 56 33 82.5t86 26.5h520q125 0 250.5 -27t229.5 -87.5t167 -161.5t63 -248q0 -123 -46.5 -208t-126 -138t-179.5 -77t-208 -24q-83 0 -163 17v-103q0 -48 24 -69t56 -34.5t56 -37.5 t24 -77q0 -57 -32.5 -83t-86.5 -26h-548q-53 0 -86 26.5t-33 82.5zM665 612q11 -1 22 -1q116 0 172 79t56 185q0 113 -66 198t-184 89v-550z" />
<glyph unicode="Q" horiz-adv-x="1600" d="M70 702q0 216 94.5 378.5t260.5 253.5t379 91q215 0 380 -89t258.5 -250.5t93.5 -378.5q0 -227 -96.5 -399.5t-268.5 -262.5q37 -25 84.5 -38.5t108.5 -13.5q39 0 77.5 10t77.5 10q28 0 48 -18t20 -47q0 -21 -6 -41t-14 -40q-23 -57 -45 -90t-58 -47.5t-101 -14.5 q-145 0 -250.5 72.5t-175.5 182.5q-64 -10 -133 -10q-226 0 -391 92t-254 258.5t-89 391.5zM581 979q0 -252 85 -480q12 -33 36 -84.5t56 -104t70 -88.5q-15 54 -25 110q-3 17 -3 34q0 38 18 72.5t63 34.5q51 0 70 -35.5t32 -76.5q8 -25 16.5 -49.5t17.5 -47.5q9 36 11 75 t2 67q0 154 -31 299q-8 39 -27 102t-47 133t-64 132.5t-79 102t-92 39.5q-40 0 -62.5 -25.5t-32.5 -63.5t-12 -77.5t-2 -68.5z" />
<glyph unicode="R" horiz-adv-x="1590" d="M68 109q0 52 20.5 76.5t48 40t48 36.5t20.5 65v730q0 44 -20.5 65.5t-48 37t-48 40t-20.5 75.5q0 57 32.5 83t86.5 26h557q92 0 193.5 -14t197 -46.5t173 -88t123 -138.5t45.5 -198q0 -114 -55.5 -186.5t-143.5 -115.5l152 -291q22 -41 53 -64t55 -50.5t24 -82.5 q0 -57 -33 -83t-87 -26h-428q-115 0 -115 109q0 42 32 79q1 10 4 19.5t3 19.5q0 13 -15 53t-36.5 90t-41.5 95q-12 -1 -23 -1q-62 0 -124 14v-151q0 -28 3 -38t21 -33q30 -37 53 -65.5t23 -81.5q0 -58 -32.5 -83.5t-87.5 -25.5h-490q-54 0 -86.5 26t-32.5 83zM697 653 q22 -2 50 -2q122 0 175 69.5t53 183.5q0 116 -70.5 197.5t-190.5 81.5h-17v-530z" />
<glyph unicode="S" horiz-adv-x="1321" d="M90 957q0 148 69.5 248.5t185.5 152t254 51.5q41 0 81.5 -4t80.5 -14q33 -8 66.5 -17.5t67.5 -9.5q38 0 68 26t71 26q42 0 67.5 -24.5t41 -60t25.5 -68.5l80 -255q7 -24 7 -44q0 -49 -35 -78t-82 -29q-43 0 -64 22.5t-42 55.5q-67 104 -150 176t-217 72q-49 0 -89.5 -25 t-40.5 -80q0 -48 30.5 -76.5t73.5 -45t80 -28.5q97 -31 187 -70t161.5 -96t113 -140t41.5 -200q0 -113 -45.5 -198t-122.5 -141t-174 -84t-199 -28q-42 0 -84 4t-83 11q-18 3 -36 5.5t-37 2.5q-42 0 -82 -15t-82 -15q-58 0 -80.5 32t-33.5 83q-13 62 -24.5 125t-23.5 125 q-3 12 -3 25q0 47 34.5 73t77.5 26q39 0 67.5 -26t56.5 -65t64.5 -77.5t92 -64.5t139.5 -26q50 0 101.5 22.5t51.5 83.5q0 42 -24.5 65.5t-59.5 37t-67 22.5q-105 31 -204 70.5t-178.5 98.5t-126.5 147t-47 216z" />
<glyph unicode="T" horiz-adv-x="1435" d="M29 989q0 19 5 41l54 229q17 70 49 114t112 44q29 0 56.5 -7t55.5 -13q29 -6 58.5 -9.5t59.5 -3.5h480q27 0 54 2.5t53 8.5q31 7 61.5 14.5t61.5 7.5q80 0 112 -44.5t48 -113.5l55 -229q5 -22 5 -41q0 -52 -33 -81.5t-84 -29.5q-44 0 -69.5 27.5t-43.5 67.5t-38.5 80 t-54 67.5t-92.5 27.5h-29v-821q0 -41 20 -63t45.5 -38.5t45.5 -42t20 -74.5q0 -58 -32.5 -83.5t-87.5 -25.5h-515q-54 0 -87 26.5t-33 83.5q0 48 20 73t46 42t46 38.5t20 63.5v821h-29q-59 0 -92.5 -27.5t-54.5 -67.5t-39 -80.5t-42.5 -68t-68.5 -27.5q-52 0 -85 29.5 t-33 82.5z" />
<glyph unicode="U" horiz-adv-x="1679" d="M41 1273q0 53 31 82t83 29h652q52 0 83.5 -29t31.5 -82q0 -49 -19 -71t-50 -32.5t-66 -27.5q-33 -16 -42.5 -32.5t-11.5 -52.5l-22 -319q-4 -67 -8.5 -133.5t-4.5 -133.5q0 -139 74.5 -200t207.5 -61q72 0 138 20t108.5 68.5t42.5 131.5q0 47 -2.5 94t-6.5 93l-32 439 q-4 54 -22 67.5t-65 30.5q-50 19 -75.5 39.5t-25.5 79.5q0 53 31 82t83 29h384q52 0 83 -29t31 -82q0 -47 -20.5 -71t-50 -37t-59.5 -24t-50.5 -31.5t-20.5 -60.5v-6l44 -424q5 -51 7.5 -102.5t2.5 -102.5q0 -138 -66 -226.5t-171.5 -138.5t-226.5 -69.5t-231 -19.5 q-115 0 -224 22.5t-197 75.5t-140 143t-52 224q0 54 5.5 107.5t9.5 107.5l29 429v6q0 32 -20 46.5t-50 22.5t-60 19.5t-50 36.5t-20 73z" />
<glyph unicode="V" horiz-adv-x="1644" d="M48 1275q0 58 34 83.5t88 25.5h574q54 0 87.5 -25.5t33.5 -83.5q0 -43 -20.5 -65.5t-47 -37.5t-47 -34t-20.5 -55q0 -18 4 -36t10 -35l216 -606l236 642q9 25 9 45q0 31 -21 47.5t-49 31.5t-49 37.5t-21 65.5q0 58 34 83.5t88 25.5h309q54 0 87.5 -26t33.5 -83 q0 -55 -29.5 -76t-70.5 -45q-39 -23 -58.5 -59.5t-34.5 -77.5l-281 -755q-16 -43 -25.5 -81t-9.5 -85q0 -42 -25.5 -69t-68.5 -27h-379q-46 0 -68 29t-22 72q0 35 -10 68.5t-22 65.5l-296 803q-16 43 -30.5 65t-53.5 48q-42 28 -63.5 48.5t-21.5 75.5z" />
<glyph unicode="W" horiz-adv-x="2129" d="M-8 1275q0 57 33 83t87 26h504q55 0 87.5 -25.5t32.5 -83.5q0 -40 -14.5 -60.5t-33.5 -34.5t-33.5 -33t-14.5 -56q0 -20 4 -39.5t10 -39.5l145 -481l173 542q-8 33 -18.5 54t-49.5 50q-30 22 -43.5 40.5t-13.5 57.5q0 56 33.5 82.5t86.5 26.5h466q54 0 87 -26t33 -83 q0 -39 -15 -60t-35 -36t-35 -34t-15 -55q0 -19 4 -39t9 -39l142 -488l153 524q4 13 6.5 26t2.5 26q0 35 -23.5 57.5t-47.5 48t-24 69.5q0 57 33 83t87 26h246q54 0 86.5 -26t32.5 -83q0 -45 -20 -65.5t-54 -43.5q-35 -24 -53 -43t-27.5 -42.5t-21.5 -63.5l-212 -734 q-26 -90 -26 -182q0 -42 -22 -71.5t-67 -29.5h-322q-44 0 -66 30t-22 71q0 32 -6 62.5t-15 60.5l-143 476l-134 -417q-11 -34 -18 -69.5t-7 -71.5q0 -33 -4.5 -66t-23 -54.5t-61.5 -21.5h-323q-44 0 -65.5 30.5t-21.5 70.5q0 61 -20 123l-256 814q-14 46 -28.5 65t-52.5 48 q-37 28 -56.5 51.5t-19.5 72.5z" />
<glyph unicode="X" horiz-adv-x="1628" d="M52 1275q0 57 34.5 83t87.5 26h551q54 0 88 -25.5t34 -83.5q0 -56 -26 -81.5t-52 -38t-26 -31.5q0 -17 13 -35t23 -31l137 -165q46 56 89 110t71 90.5t28 40.5q0 12 -24.5 25t-49 39t-24.5 77q0 109 115 109h269q53 0 87.5 -23.5t34.5 -81.5q0 -49 -33.5 -77t-67.5 -54 q-31 -24 -58 -52.5t-53 -59.5l-250 -302l336 -403q32 -39 54 -58.5t65 -47.5q35 -22 55.5 -47t20.5 -69q0 -57 -33.5 -83t-87.5 -26h-576q-53 0 -87.5 26t-34.5 83q0 43 17 67.5t40 39t40 26.5t17 30q0 22 -27 50.5t-41 44.5l-117 140l-178 -203q-9 -10 -26 -31t-17 -35 t22 -25.5t43.5 -34t21.5 -69.5q0 -55 -31 -82t-84 -27h-268q-54 0 -87.5 26t-33.5 83q0 47 24 69.5t58 46.5q42 29 78.5 65.5t70.5 74.5l271 304l-343 409q-40 48 -86 81q-37 27 -55.5 46.5t-18.5 69.5z" />
<glyph unicode="Y" horiz-adv-x="1597" d="M35 1275q0 58 34.5 83.5t88.5 25.5h569q54 0 88 -25.5t34 -83.5q0 -50 -21.5 -75t-49 -38.5t-49 -27t-21.5 -40.5q0 -20 10.5 -42.5t20.5 -39.5l195 -335l213 371q7 12 13.5 26.5t6.5 28.5q0 23 -19.5 35.5t-44.5 26t-44.5 38.5t-19.5 72q0 58 34 83.5t88 25.5h279 q54 0 88 -25.5t34 -83.5q0 -46 -19 -67.5t-53 -47.5q-34 -27 -52.5 -50.5t-41.5 -61.5l-342 -575v-146q0 -42 24.5 -62t57 -35t57 -41t24.5 -80q0 -58 -34 -83.5t-88 -25.5h-575q-53 0 -87.5 26t-34.5 83q0 52 25 78t57 41.5t57 36t25 62.5v133l-349 578q-23 39 -34.5 62 t-52.5 50q-43 29 -67 48t-24 77z" />
<glyph unicode="Z" horiz-adv-x="1405" d="M38 110q0 38 19.5 77.5t41.5 69.5l664 904h-235q-82 0 -125.5 -23t-65.5 -57.5t-37 -69t-39 -57.5t-74 -23q-37 0 -77.5 26t-40.5 68q0 4 2 14l47 220q15 70 48.5 114t112.5 44q60 0 118 -16.5t118 -16.5h713q52 0 82 -28.5t30 -81.5q0 -37 -19.5 -77t-40.5 -69 l-662 -905h246q84 0 132 30.5t74.5 75t46 89t45.5 75t73 30.5q48 0 84 -28.5t35 -79.5q0 -19 -6 -44l-75 -248q-20 -67 -49.5 -112.5t-111.5 -45.5q-32 0 -63 8t-63 15q-54 12 -109 12h-726q-52 0 -82.5 29t-30.5 81z" />
<glyph unicode="[" horiz-adv-x="1021" d="M191 -107v1423q0 76 32 111t109 35h555q47 0 82 -23t35 -75q0 -55 -33.5 -76.5t-83.5 -21.5h-213q-64 0 -95.5 -23.5t-31.5 -91.5v-1092q0 -68 31.5 -92t95.5 -24h213q50 0 83.5 -21.5t33.5 -76.5q0 -52 -35 -74.5t-82 -22.5h-555q-76 0 -108.5 35t-32.5 110z" />
<glyph unicode="\" horiz-adv-x="966" d="M6 1391q0 56 45.5 92t97.5 36t87 -45.5t57 -104t35 -98.5l37 -107q45 -130 91 -261t101 -258q66 -153 146 -298.5t160 -291.5q17 -31 40 -73.5t40 -86.5t17 -79q0 -55 -45.5 -92.5t-98.5 -37.5q-44 0 -71.5 28.5t-44.5 65.5q-16 33 -30.5 67t-28.5 68l-265 644 q-46 113 -97.5 222.5t-106.5 217.5q-15 30 -42.5 83t-55.5 114t-48 114t-20 81z" />
<glyph unicode="]" horiz-adv-x="1021" d="M28 -155q0 55 34 76.5t83 21.5h212q65 0 96 24t31 92v1092q0 68 -31 91.5t-96 23.5h-212q-49 0 -83 21.5t-34 76.5q0 52 35.5 75t81.5 23h554q77 0 109.5 -35t32.5 -111v-1423q0 -76 -32.5 -110.5t-109.5 -34.5h-554q-46 0 -81.5 22.5t-35.5 74.5z" />
<glyph unicode="^" horiz-adv-x="1024" d="M93 756q0 28 9 54t20 51l170 386q30 68 85 123.5t136 55.5t136 -55.5t85 -123.5l170 -386q11 -25 20 -50.5t9 -53.5q0 -47 -29 -78.5t-77 -31.5q-44 0 -85 35t-63 70l-166 270l-166 -270q-22 -35 -63 -70t-85 -35q-47 0 -76.5 31.5t-29.5 77.5z" />
<glyph unicode="_" horiz-adv-x="1024" d="M-6 -261q0 48 19.5 91.5t77.5 43.5h844q58 0 77 -43.5t19 -91.5q0 -47 -19 -91.5t-77 -44.5h-844q-58 0 -77.5 44t-19.5 92z" />
<glyph unicode="`" horiz-adv-x="1024" d="M222 1342q0 80 58.5 127t133.5 47q73 0 124 -45.5t84 -104.5l12 -22t14 -21l134 -151q8 -10 14.5 -32.5t6.5 -35.5q0 -32 -25 -49t-54 -17q-14 0 -27.5 4.5t-27.5 8.5l-244 67q-13 4 -24.5 10.5t-22.5 12.5q-60 33 -108 79.5t-48 121.5z" />
<glyph unicode="a" horiz-adv-x="1161" d="M40 230q0 92 43 153.5t112.5 99t150.5 53.5t156 16q22 0 45 -0.5t45 -4.5v260q0 25 -10.5 58t-42.5 33q-31 0 -38.5 -25.5t-7.5 -48.5q0 -10 0.5 -20.5t0.5 -21.5q0 -103 -71 -144.5t-162 -41.5q-76 0 -132 34t-56 120q0 34 13.5 66t34.5 57q61 74 153.5 113t195 53.5 t192.5 14.5q102 0 187 -29t136 -96.5t51 -181.5v-461q0 -17 8 -30t27 -13q15 0 25.5 9.5t25.5 9.5q29 0 43.5 -20t14.5 -47q0 -70 -42.5 -120.5t-105.5 -77t-127 -26.5q-75 0 -151.5 33t-105.5 103q-51 -71 -139.5 -103.5t-173.5 -32.5q-78 0 -145.5 29.5t-108.5 87.5 t-41 142zM491 318q0 -40 19 -75.5t65 -35.5q9 0 17 2v207q-17 7 -35 7q-38 0 -52 -37.5t-14 -67.5z" />
<glyph unicode="b" horiz-adv-x="1295" d="M18 1280q0 41 25 62.5t59 34.5l215 87q38 16 78 28t82 12q41 0 62.5 -28.5t21.5 -66.5v-472q56 53 125.5 86t152.5 33q102 0 177.5 -45t125 -119t74 -164t24.5 -180q0 -150 -58 -282t-169.5 -213.5t-274.5 -81.5q-73 0 -133 22t-109 62q-75 -28 -160 -55t-150 -27 q-35 0 -54.5 22t-19.5 56v1048q0 45 -14 67.5t-33 36t-33 29.5t-14 48zM561 237q16 -17 36 -27.5t45 -10.5q45 0 72 33.5t40.5 83.5t17.5 100t4 82q0 35 -5 85t-20.5 99t-44.5 81.5t-77 32.5q-37 0 -68 -25v-534z" />
<glyph unicode="c" horiz-adv-x="1078" d="M39 484q0 165 67 294t190.5 203.5t291.5 74.5q75 0 152 -18.5t142 -58t105 -102t40 -149.5q0 -94 -68 -143t-154 -49q-88 0 -141 48t-53 138q0 41 -10.5 83t-65.5 42q-42 0 -64 -41t-29.5 -92t-7.5 -82q0 -86 28 -164t89 -126.5t158 -48.5q57 0 113 27.5t99 54.5t60 27 q31 0 41 -24.5t10 -48.5q0 -90 -42.5 -157t-112 -111.5t-151 -67t-159.5 -22.5q-150 0 -269.5 64.5t-189 180.5t-69.5 268z" />
<glyph unicode="d" horiz-adv-x="1332" d="M57 479q0 152 59 283.5t172 212.5t276 81q98 0 179 -42v85q0 44 -14.5 66t-33 35.5t-33 30t-14.5 49.5q0 41 24.5 62.5t58.5 34.5l217 87q38 16 78 28t82 12q41 0 62.5 -28.5t21.5 -66.5v-1115q0 -49 7 -68t41 -55q20 -21 28 -35.5t8 -44.5q0 -43 -28 -67t-70 -24h-224 q-56 0 -107.5 34.5t-72.5 87.5q-61 -66 -138.5 -108.5t-173.5 -42.5q-102 0 -178.5 44.5t-126.5 119t-75 164.5t-25 180zM521 529q0 -36 5.5 -86.5t21 -99t46 -81t79.5 -32.5q38 0 70 26v534q-17 17 -38 27.5t-46 10.5q-46 0 -73.5 -33.5t-41.5 -83t-18.5 -99.5t-4.5 -83z " />
<glyph unicode="e" horiz-adv-x="1086" d="M40 495q0 170 65.5 296t188.5 195.5t295 69.5q119 0 223.5 -45t169.5 -133t65 -217q0 -89 -52.5 -135t-138.5 -46h-403q23 -86 82 -144.5t170 -58.5q44 0 87.5 18.5t82 43.5t67.5 43.5t44 18.5q29 0 42 -20.5t13 -46.5q0 -91 -42.5 -159.5t-112 -113.5t-152 -67.5 t-162.5 -22.5q-157 0 -277 65t-187.5 182.5t-67.5 276.5zM435 612h104q38 0 52 17.5t14 53.5q0 24 -6 63t-23.5 70t-50.5 31q-30 0 -48 -24.5t-27 -61t-12 -71.5t-3 -56v-22z" />
<glyph unicode="f" horiz-adv-x="869" d="M-1 887q0 41 27 62.5t65 21.5h79v11q0 9 -29.5 33t-59.5 62t-30 86q0 89 39.5 150.5t104 99t141.5 54.5t152 17q68 0 140 -16t134.5 -50.5t101 -91t38.5 -137.5q0 -82 -46 -130t-129 -48q-87 0 -139.5 51t-52.5 139q0 30 -2.5 59.5t-18.5 49t-56 19.5q-41 0 -54.5 -27.5 t-13.5 -62.5q0 -40 28.5 -72t66 -61t66 -59.5t28.5 -66.5v-9h183q37 0 64 -18.5t27 -59.5q0 -61 -40 -89.5t-95 -36t-101 -7.5v-459q0 -71 19.5 -87.5t86.5 -24.5q53 -7 84 -20t31 -78q0 -45 -27 -68t-71 -23h-615q-42 0 -69.5 22.5t-27.5 66.5q0 51 21 70t48.5 29.5 t48.5 33.5t21 83v386q0 37 -25.5 55t-58.5 32.5t-58.5 38t-25.5 70.5z" />
<glyph unicode="g" horiz-adv-x="1184" d="M28 -193q0 72 56 112.5t135 60.5q-36 14 -60 40.5t-24 71.5q0 60 38.5 96t98 54.5t121.5 26.5q-89 21 -166.5 64t-125 115t-47.5 178q0 114 44.5 193.5t119.5 129t168.5 74t191.5 27.5q31 82 74.5 164t111 137t167.5 55q82 0 135.5 -48t53.5 -132q0 -68 -33.5 -123.5 t-110.5 -55.5q-54 0 -83 27.5t-50 55.5t-50 28q-31 0 -53 -38.5t-35 -73.5q107 -13 203 -57.5t156.5 -125.5t60.5 -204q0 -109 -44.5 -187.5t-119 -128.5t-167 -73.5t-188.5 -23.5q-31 0 -61 2q-12 -12 -12 -24q0 -20 29.5 -28.5t70.5 -10.5q27 -1 53 -1h24q37 1 51 1 q72 0 150 -6.5t145.5 -31.5t109.5 -78.5t42 -148.5q0 -83 -52 -139.5t-134.5 -91.5t-177 -53t-182 -24.5t-146.5 -6.5q-40 0 -101.5 2.5t-128.5 12.5t-125.5 31.5t-95.5 59.5t-37 96zM387 -113q0 -31 30.5 -49t74 -27t83.5 -11.5t59 -2.5q22 0 66.5 6.5t82.5 23.5t38 49 q0 45 -37.5 63t-84.5 21t-78 3q-46 0 -92 -2t-92 -3q-21 -15 -35.5 -33t-14.5 -38zM503 767q0 -27 3.5 -86.5t14.5 -124.5t33.5 -110.5t61.5 -45.5q31 0 44 22.5t15.5 52.5t2.5 52q0 29 -3 89.5t-13.5 125t-34.5 110t-66 45.5q-29 0 -41 -24t-14.5 -55t-2.5 -51z" />
<glyph unicode="h" horiz-adv-x="1390" d="M53 1280q0 39 26 61.5t58 35.5l218 87q38 15 78 27.5t82 12.5q41 0 63 -28.5t22 -66.5v-541q80 73 175.5 130.5t191.5 57.5q97 0 162.5 -47.5t98.5 -124.5t33 -167v-416q0 -35 2 -54t12.5 -34.5t34.5 -42.5q20 -22 28 -35t8 -44q0 -44 -27 -67.5t-70 -23.5h-422 q-42 0 -65 25t-23 66q0 38 18 58t36 44.5t18 72.5v343q0 49 -19.5 93t-78.5 44q-36 0 -63 -13.5t-50 -34.5v-423q0 -46 11 -69.5t25.5 -37.5t25.5 -30t11 -47q0 -41 -23 -66t-65 -25h-422q-43 0 -70.5 23t-27.5 68q0 34 13 52.5t29.5 33t29.5 37.5t13 66v819 q0 45 -14.5 67.5t-34 35.5t-34 29t-14.5 49z" />
<glyph unicode="i" horiz-adv-x="730" d="M53 832q0 40 25 62t59 35l216 87q38 15 79 27.5t82 12.5t63.5 -28t22.5 -67v-660q0 -28 2.5 -56.5t22.5 -49.5q26 -28 43.5 -44t17.5 -60t-27.5 -67.5t-70.5 -23.5h-425q-43 0 -70.5 23t-27.5 68q0 43 17 60.5t44 43.5q20 20 22.5 50t2.5 56v349q0 20 -3 41.5t-17 36.5 q-4 5 -9.5 8t-9.5 7q-22 23 -40.5 37.5t-18.5 51.5zM83 1263q0 76 44 119.5t109 61.5t128 18t128.5 -18t110 -61.5t44.5 -119.5q0 -77 -44 -121.5t-109.5 -63t-129.5 -18.5t-129 19t-108.5 63.5t-43.5 120.5z" />
<glyph unicode="j" horiz-adv-x="756" d="M-114 -111q0 91 54 139.5t142 48.5q89 0 141.5 -54t52.5 -143q0 -45 10 -82.5t68 -37.5q76 0 76 78q0 55 -40 109.5t-93 111t-93 117.5t-40 130v349q0 50 -18.5 70.5t-42 30.5t-42 25t-18.5 53t26.5 61.5t59.5 35.5l230 86q41 15 82.5 27t84.5 12q41 0 64.5 -27.5 t23.5 -66.5v-557q0 -59 20 -114t46 -109t46 -110t20 -118q0 -124 -65 -201t-166 -112.5t-210 -35.5q-66 0 -138.5 14.5t-136.5 47.5t-104 87.5t-40 134.5zM114 1263q0 76 44 119.5t109 61.5t128 18t128.5 -18t110 -61.5t44.5 -119.5q0 -77 -44 -121.5t-109.5 -63 t-129.5 -18.5t-129 19t-108.5 63.5t-43.5 120.5z" />
<glyph unicode="k" horiz-adv-x="1503" d="M53 1280q0 40 27 62.5t60 34.5l235 87q41 15 83 27.5t85 12.5q42 0 66 -27t24 -68v-813l226 180q8 6 17.5 14t9.5 18q0 18 -24 30t-48 32.5t-24 63.5q0 47 29.5 68.5t72.5 21.5h413q43 0 72.5 -21.5t29.5 -68.5q0 -57 -36.5 -78.5t-83.5 -33.5q-56 -14 -101 -31t-91 -55 l-58 -47l330 -420q22 -27 58.5 -54.5t66.5 -58.5t30 -70q0 -45 -30 -65.5t-71 -20.5h-479q-41 0 -66 25t-25 66q0 39 22.5 58t44.5 31.5t22 30.5q0 17 -10.5 30t-20.5 24l-160 191l-116 -94v-61q0 -32 3 -63t31 -54q29 -22 48 -36t19 -57q0 -91 -91 -91h-473 q-43 0 -72.5 22.5t-29.5 68.5q0 34 15.5 54.5t41.5 38.5q28 20 40 31.5t15 28.5t3 51v804q0 37 -5.5 53t-21 24.5t-46.5 23.5q-25 12 -41 32t-16 48z" />
<glyph unicode="l" horiz-adv-x="748" d="M53 1280q0 40 26 62t59 35l223 87q40 16 80 28t83 12q41 0 63.5 -28t22.5 -67v-1108q0 -29 3 -56.5t25 -49.5q27 -27 46.5 -43.5t19.5 -60.5q0 -45 -28 -68t-71 -23h-440q-43 0 -71 23t-28 68q0 38 14 55.5t33 30.5t33 36.5t14 74.5v811q0 48 -16 70t-37.5 33.5t-37.5 27 t-16 50.5z" />
<glyph unicode="m" horiz-adv-x="1975" d="M49 832q0 41 24.5 62t58.5 35l211 87q38 16 77.5 28t81.5 12q41 0 62.5 -28.5t21.5 -66.5v-101q78 74 172.5 135t184.5 61q107 0 171 -62t89 -151q53 52 114 101t127 80.5t134 31.5q95 0 156.5 -49.5t91 -127t29.5 -162.5v-416q0 -23 3 -57.5t22 -50.5v-1 q22 -23 39 -44.5t17 -56.5q0 -44 -27 -67.5t-70 -23.5h-411q-41 0 -64 25.5t-23 65.5q0 37 17.5 57t34.5 44.5t17 71.5v345q0 28 -6 59.5t-24 54.5t-54 23q-33 0 -58.5 -18t-47.5 -40v-415q0 -53 17 -79t34 -46t17 -57q0 -41 -22.5 -66t-64.5 -25h-408q-42 0 -64 25.5 t-22 65.5q0 37 17 57.5t34 44.5t17 71v345q0 28 -6 59.5t-24 54.5t-54 23q-32 0 -58 -17.5t-47 -40.5v-415q0 -54 17 -80t34 -45.5t17 -56.5q0 -40 -22 -65.5t-64 -25.5h-411q-43 0 -70 23.5t-27 67.5t20.5 65t40.5 45.5t20 77.5v371q0 45 -14 67.5t-32 35.5t-32 29.5 t-14 49.5z" />
<glyph unicode="n" horiz-adv-x="1374" d="M53 832q0 39 26 61.5t58 35.5l216 87q38 16 77.5 28t81.5 12q41 0 62.5 -28.5t21.5 -66.5v-92q79 73 174 130t188 57q97 0 161 -48t96.5 -125t32.5 -166v-416q0 -28 2.5 -55t21.5 -51q23 -29 40.5 -45t17.5 -59q0 -44 -27 -67.5t-70 -23.5h-418q-42 0 -64.5 25t-22.5 66 q0 38 17.5 59.5t35 45t17.5 66.5v347q0 47 -18.5 92t-76.5 45q-35 0 -60 -13.5t-47 -34.5v-409q0 -27 2 -54.5t20 -50.5q21 -25 35 -40.5t14 -52.5q0 -41 -22.5 -66t-64.5 -25h-418q-43 0 -70 23.5t-27 67.5q0 33 12.5 51.5t28.5 34.5t28.5 39t12.5 63v371q0 45 -14 68 t-33 36.5t-33 29.5t-14 48z" />
<glyph unicode="o" horiz-adv-x="1233" d="M54 523q0 162 78 282t208 185.5t286 65.5q165 0 289.5 -68t194.5 -191t70 -289q0 -163 -77 -283.5t-206.5 -187t-287.5 -66.5q-166 0 -291 68.5t-194.5 193t-69.5 290.5zM505 707q0 -27 8 -86.5t23.5 -132.5t37.5 -140.5t49.5 -111.5t59.5 -44q25 0 35.5 26t13.5 57.5 t3 48.5q0 57 -9 113.5t-23 111.5q-5 22 -19 68.5t-34 97.5t-44 87t-51 36q-23 0 -33.5 -26t-13.5 -57.5t-3 -47.5z" />
<glyph unicode="p" horiz-adv-x="1363" d="M53 832q0 38 26.5 61t57.5 36l198 87q38 17 78.5 28.5t82.5 11.5q58 0 72.5 -41.5t14.5 -87.5v-11q61 62 138 101t172 39q104 0 182 -44t129.5 -117t77.5 -163.5t26 -183.5q0 -154 -61 -285.5t-176.5 -211.5t-279.5 -80q-104 0 -188 43v-108q0 -35 2 -53.5t12 -34 t34 -41.5q19 -20 28 -36t9 -45q0 -43 -28 -67t-70 -24h-426q-43 0 -71 23t-28 68q0 36 13.5 54t30.5 32t30.5 37t13.5 68v763q0 46 -15 68.5t-35 35t-35 28.5t-15 50zM603 239q19 -18 42 -29t51 -11q49 0 78.5 32.5t45 81.5t20.5 99t5 86q0 39 -6 89.5t-23 98t-49 79 t-84 31.5q-43 0 -80 -29v-528z" />
<glyph unicode="q" horiz-adv-x="1327" d="M58 479q0 154 60.5 285t176 211.5t278.5 80.5q74 0 136 -21.5t113 -61.5q74 28 160.5 54.5t150.5 26.5q36 0 56 -21.5t20 -56.5v-1070q0 -28 2.5 -55.5t22.5 -50.5q26 -28 43.5 -44t17.5 -60q0 -45 -27 -68t-71 -23h-423q-43 0 -71 23t-28 68q0 32 9 46t30 36 q33 35 39 58.5t6 69.5v185q-58 -54 -129.5 -87t-157.5 -33q-103 0 -181 44t-129.5 117.5t-77.5 163.5t-26 183zM522 529q0 -38 6 -89t22.5 -99t48 -79.5t83.5 -31.5q42 0 77 28v529q-18 18 -41 29.5t-50 11.5q-48 0 -77 -33t-44 -82t-20 -99t-5 -85z" />
<glyph unicode="r" horiz-adv-x="1095" d="M53 832q0 39 25.5 61.5t58.5 35.5l250 99q24 10 49 19t52 9q35 0 52 -26.5t23.5 -61t9.5 -60.5l6 -36t5 -36q31 92 95.5 156t178.5 64q81 0 127.5 -40t66.5 -102.5t20 -132.5q0 -65 -17 -125.5t-59.5 -99.5t-119.5 -39q-84 0 -122.5 26t-49.5 64t-11.5 76t-6.5 64t-36 26 q-27 0 -39 -37.5t-15 -80.5t-3 -62v-292q0 -58 13.5 -78t71.5 -32q51 -10 81.5 -23.5t30.5 -76.5q0 -45 -27 -68t-71 -23h-528q-43 0 -71 23t-28 68q0 36 13.5 54t31 32.5t31 38t13.5 71.5v363q0 45 -15.5 67.5t-35 35.5t-35 29.5t-15.5 49.5z" />
<glyph unicode="s" horiz-adv-x="976" d="M14 247q0 52 28 84t81 32q52 0 86 -22.5t60.5 -55.5t54 -66.5t66.5 -56t98 -22.5q41 0 62 24.5t21 63.5q0 56 -30 72t-77 25q-86 17 -163.5 40t-137 63t-94 106t-34.5 170q0 123 67 200.5t170.5 114.5t210.5 37q41 0 80.5 -3t78.5 -16q5 -1 23.5 -8t36.5 -13l18 -7 q33 0 56.5 23.5t56.5 23.5q42 0 62 -32.5t28.5 -75.5t13.5 -73q4 -23 8 -46.5t4 -46.5q0 -40 -18.5 -75.5t-65.5 -35.5t-83 32.5t-72 74.5t-83 74.5t-117 32.5q-34 0 -61 -15t-27 -54q0 -32 15 -49t43 -29q30 -13 63 -19t64 -13q92 -20 172 -67.5t129.5 -122t49.5 -176.5 q0 -137 -62 -218t-164.5 -116t-224.5 -35q-31 0 -85.5 8t-80.5 22h-1q-10 5 -33 11t-34 6q-31 0 -53 -24.5t-54 -24.5q-43 0 -67.5 28t-37 66.5t-22.5 71.5q-7 28 -16 55.5t-9 56.5z" />
<glyph unicode="t" horiz-adv-x="948" d="M18 936q0 41 29 64.5t68 23.5h45q29 0 57.5 29.5t58 73.5t62 87.5t69.5 73t81 29.5q50 0 78 -28t28 -78v-187h227q38 0 65 -18t27 -60q0 -56 -35.5 -85t-85.5 -38.5t-94 -9.5h-104v-396q0 -49 19 -92.5t78 -43.5q39 0 66.5 22.5t52 44.5t52.5 22q26 0 36.5 -25t10.5 -45 q0 -101 -61 -175t-152.5 -114t-183.5 -40q-171 0 -269.5 79.5t-98.5 259.5v435q0 43 -19 64t-44 34.5t-44 33t-19 59.5z" />
<glyph unicode="u" horiz-adv-x="1388" d="M30 832q0 39 25.5 61.5t58.5 35.5l220 87q39 16 78.5 28t82.5 12q41 0 63 -28.5t22 -66.5v-543q0 -28 6.5 -60t25.5 -54.5t55 -22.5q37 0 65 16.5t51 40.5v312q0 38 -6.5 55.5t-37.5 41.5q-23 18 -40 35t-17 50q0 39 25.5 61.5t58.5 35.5l220 87q39 16 78.5 28t82.5 12 q41 0 63.5 -28t22.5 -67v-660q0 -28 2.5 -55.5t22.5 -50.5q25 -27 44 -45t19 -59q0 -45 -27 -68t-71 -23h-228q-76 0 -133.5 57t-57.5 132q-55 -53 -120 -103t-133.5 -82.5t-135.5 -32.5q-95 0 -158.5 48.5t-94.5 126.5t-31 164v340q0 37 -6 52.5t-34 40.5 q-22 20 -41.5 37.5t-19.5 51.5z" />
<glyph unicode="v" horiz-adv-x="1285" d="M-3 934q0 45 29.5 67.5t71.5 22.5h539q42 0 66 -24t24 -66q0 -36 -19 -55t-44 -32.5t-44 -31.5t-19 -53q0 -22 5.5 -43.5t13.5 -41.5l153 -392l147 376q8 22 13.5 44.5t5.5 45.5q0 40 -18.5 59.5t-43.5 32.5t-43.5 32.5t-18.5 58.5q0 45 28 67.5t71 22.5h277 q43 0 71.5 -22t28.5 -68q0 -37 -13.5 -53.5t-39.5 -39.5q-38 -34 -53.5 -62t-34.5 -74q-64 -151 -127 -303.5t-134 -301.5q-27 -55 -66 -88t-104 -33h-156q-65 0 -104.5 39t-63.5 94l-281 639q-16 35 -27 54t-42 44q-23 19 -35.5 36t-12.5 49z" />
<glyph unicode="w" horiz-adv-x="2025" d="M-3 934q0 47 29.5 68.5t72.5 21.5h517q90 0 90 -88q0 -35 -17.5 -56t-41 -34.5t-41 -27.5t-17.5 -36t10.5 -51t18.5 -49l154 -391l156 388l-26 65q-13 33 -28 55.5t-42 45.5q-25 22 -35 39.5t-10 51.5q0 88 90 88h498q42 0 59.5 -26t17.5 -64q0 -36 -16 -55.5t-37 -32 t-37 -25t-16 -34.5q0 -24 8.5 -46t16.5 -44l151 -410l130 374q8 22 13.5 44t5.5 45q0 36 -19.5 54.5t-45.5 32t-45.5 34.5t-19.5 63q0 38 20 64t60 26h309q43 0 72 -22t29 -68q0 -36 -12.5 -52t-38.5 -37q-46 -37 -65 -72.5t-40 -88.5l-230 -584q-47 -121 -171 -121h-146 q-66 0 -105.5 38t-62.5 95l-129 316l-147 -328q-25 -55 -66 -88t-104 -33h-147q-67 0 -105.5 37.5t-63.5 95.5l-275 632q-10 25 -23 48t-34 41q-26 23 -47.5 42.5t-21.5 58.5z" />
<glyph unicode="x" horiz-adv-x="1232" d="M25 91q0 43 23 65t54 45q83 61 141.5 139t111.5 164q-60 84 -109.5 153.5t-63.5 85.5q-22 27 -47 50.5t-51 46.5q-23 21 -37 41t-14 53q0 45 27.5 67.5t70.5 22.5h493q43 0 70.5 -22.5t27.5 -67.5q0 -34 -19 -61t-19 -55q0 -13 7 -24l14 -22q40 -55 83 -112l44 60 q11 14 20.5 31t9.5 36q0 26 -21 45t-42.5 42t-21.5 60q0 44 27.5 67t69.5 23h237q43 0 70.5 -22.5t27.5 -67.5q0 -38 -17.5 -58t-44.5 -43q-76 -64 -142.5 -138.5t-127.5 -153.5q74 -96 149 -191t151 -189q13 -16 24.5 -32t11.5 -38q0 -44 -27 -67.5t-70 -23.5h-496 q-43 0 -70 23.5t-27 67.5q0 32 19.5 67.5t19.5 39.5t-32.5 52.5t-80.5 117.5q-14 -24 -28 -45v-1q-14 -18 -27 -38t-13 -44q0 -23 21.5 -41t42.5 -42.5t21 -65.5q0 -44 -27 -67.5t-70 -23.5h-246q-42 0 -70 24t-28 67z" />
<glyph unicode="y" horiz-adv-x="1268" d="M-3 934q0 45 28 67.5t71 22.5h535q43 0 71 -22t28 -67q0 -40 -18 -59t-41.5 -28.5t-41.5 -21t-18 -35.5q0 -28 9 -56t22 -54l136 -271l123 256q21 44 21 94q0 42 -20.5 58t-47 25t-47 27.5t-20.5 65.5q0 45 28.5 66.5t70.5 21.5h292q43 0 70.5 -22.5t27.5 -67.5 q0 -35 -13 -51.5t-37 -38.5q-43 -40 -65 -71.5t-47 -84.5l-272 -574q-37 -78 -78.5 -166.5t-95.5 -166t-129 -127t-179 -49.5q-96 0 -173.5 37t-123 108t-45.5 171q0 78 40.5 133t124.5 55q55 0 90.5 -26t59 -64t42 -76.5t38 -64.5t47.5 -26q38 0 60 34t38 75l-407 786 q-18 35 -55 61.5t-68 55.5t-31 70z" />
<glyph unicode="z" horiz-adv-x="1053" d="M34 119q0 36 12.5 71t32.5 64l422 598q-80 -2 -140.5 -32t-121.5 -126q-21 -33 -42.5 -59t-65.5 -26q-33 0 -63.5 24.5t-30.5 59.5q0 8 1 12l55 272q16 79 91 79q44 0 85 -16t84 -16h530q53 0 98.5 -20.5t45.5 -84.5q0 -42 -21 -79t-44 -70l-415 -594q66 4 115.5 20 t93 56.5t90.5 117.5q20 34 39.5 59t64.5 25q32 0 63 -24t31 -59q0 -7 -1 -11l-59 -312q-15 -79 -91 -79q-43 0 -84 15.5t-85 15.5h-519q-39 0 -78.5 10t-66 35.5t-26.5 73.5z" />
<glyph unicode="{" horiz-adv-x="1021" d="M105 605q0 60 41.5 96.5t99.5 36.5q53 0 101.5 -22t100.5 -22q27 0 58 8t31 44q0 29 -30 60.5t-74 68t-88.5 81.5t-74.5 100.5t-30 125.5q0 91 52.5 146.5t133 84.5t167 39t154.5 10h133q47 0 79.5 -23.5t32.5 -73.5q0 -64 -38 -82t-92 -18q-32 0 -75 -0.5t-83.5 -9.5 t-67 -33t-26.5 -71q0 -45 35 -88.5t81.5 -87t81.5 -89t35 -93.5q0 -67 -44 -99.5t-105 -43t-112 -10.5q-16 0 -32 -7.5t-16 -27.5t16 -28t32 -8q51 0 112 -10t105 -42.5t44 -99.5q0 -49 -35 -94.5t-81.5 -88.5t-81.5 -86t-35 -88q0 -58 37 -82t88 -29t93 -5q39 0 76.5 -3 t62.5 -23.5t25 -72.5q0 -50 -32.5 -73.5t-79.5 -23.5h-133q-68 0 -154.5 10t-167 39t-133 84t-52.5 146q0 69 30 124t74.5 100t88.5 81.5t74 68.5t30 62q0 36 -31 44.5t-58 8.5q-52 0 -100.5 -22.5t-101.5 -22.5q-58 0 -99.5 37t-41.5 97z" />
<glyph unicode="|" horiz-adv-x="1024" d="M366 -165q0 191 18.5 381t18.5 381q0 195 -18.5 389t-18.5 389q0 71 39.5 105.5t107.5 34.5t107.5 -35t39.5 -105q0 -191 -18.5 -381t-18.5 -381q0 -195 18.5 -389t18.5 -389q0 -70 -39.5 -105t-107.5 -35t-107.5 35t-39.5 105z" />
<glyph unicode="}" horiz-adv-x="1021" d="M29 -155q0 65 39 82.5t93 17.5h75.5t82.5 9t66.5 33t26.5 72q0 46 -35 89.5t-81.5 86t-81.5 87.5t-35 94q0 67 44 99.5t105.5 43t111.5 10.5q17 0 33 7.5t16 27.5t-16 28.5t-33 8.5q-50 0 -111.5 10t-105.5 42.5t-44 98.5q0 51 35 96t81.5 87.5t81.5 85t35 88.5 q0 59 -37 83t-88 29t-94 5q-39 0 -76.5 2.5t-62.5 23t-25 72.5q0 50 33.5 74t79.5 24h133q68 0 154.5 -10t167 -39t133 -84.5t52.5 -146.5q0 -70 -30 -125.5t-74 -100.5t-88.5 -81.5t-74.5 -68t-30 -60.5q0 -36 31.5 -44.5t58.5 -8.5q53 0 101.5 22.5t100.5 22.5 q59 0 99 -37t40 -97q0 -59 -40.5 -96t-98.5 -37q-52 0 -100.5 22t-101.5 22q-27 0 -58.5 -7.5t-31.5 -44.5q0 -30 30 -62t74 -68.5t88.5 -81.5t74.5 -100t30 -124q0 -91 -52.5 -146t-133 -84t-167 -39t-154.5 -10h-133q-46 0 -79.5 23t-33.5 74z" />
<glyph unicode="~" horiz-adv-x="1365" d="M105 579q0 89 47.5 163.5t124.5 119.5t164 45q67 0 136.5 -26.5t133 -61.5t114 -61.5t78.5 -26.5q54 0 83.5 18t45.5 45t29 53.5t33.5 44.5t60.5 18q65 0 86 -43.5t21 -98.5q0 -90 -48 -165t-125.5 -120.5t-166.5 -45.5q-65 0 -124.5 26.5t-115.5 60.5t-110.5 60.5 t-111.5 26.5q-63 0 -92 -26.5t-45.5 -60.5t-38.5 -60.5t-71 -26.5q-65 0 -86.5 43.5t-21.5 98.5z" />
<glyph unicode="&#xa1;" horiz-adv-x="631" d="M50 -127q0 35 6 70.5t15 69.5l125 486q12 48 38.5 81.5t81.5 33.5t82 -33.5t39 -81.5l125 -486q9 -34 14.5 -69.5t5.5 -70.5q0 -126 -75 -179t-191 -53t-191 53t-75 179zM93 908q0 66 30 125t83 96t122 37t121 -37.5t81.5 -96.5t29.5 -124t-29 -123.5t-81.5 -95 t-121.5 -36.5q-70 0 -123 36t-82.5 94t-29.5 125z" />
<glyph unicode="&#xa2;" d="M58 454q0 156 74 263.5t194.5 167t260.5 72.5q-2 39 -2 74q0 37 19 59.5t57 22.5q36 0 51 -27.5t15 -58.5q0 -32 -1 -68q67 -5 143 -21.5t143 -49.5t109.5 -85.5t42.5 -128.5q0 -81 -49.5 -137t-132.5 -56q-75 0 -113 37.5t-51.5 96t-13.5 119.5q0 35 -27.5 52t-60.5 23 l-1 -9q-6 -79 -7.5 -157.5t-1.5 -157.5q0 -54 0.5 -107.5t2.5 -106.5q20 -2 42 -2q69 0 131.5 21.5t119.5 59.5q18 12 37.5 25.5t42.5 13.5q31 0 41.5 -24.5t10.5 -48.5q0 -72 -38.5 -124t-100.5 -87.5t-133.5 -55.5t-137.5 -27q1 -25 2 -49.5t1 -49.5q0 -34 -17.5 -58.5 t-54.5 -24.5q-38 0 -54.5 26.5t-16.5 60.5q0 23 1 46l2 46q-94 6 -187.5 34.5t-171 81.5t-124 132t-46.5 187zM438 572q0 -102 44 -172.5t122 -103.5q1 38 1.5 75.5t0.5 75.5q0 87 -1.5 174t-7.5 173l-1 13q-79 -19 -118.5 -84t-39.5 -151z" />
<glyph unicode="&#xa3;" d="M71 193q0 113 67.5 192t184.5 79q36 0 77 -4v10q0 29 -11.5 57t-30.5 56h-169q-25 0 -41.5 15.5t-16.5 40.5q0 54 56 66l62 13q-46 56 -82 120t-36 140q0 125 49 210.5t132 136.5t186 73.5t211 22.5q123 0 223.5 -39.5t160 -123.5t59.5 -218q0 -109 -55 -180t-171 -71 q-119 0 -184 77.5t-65 191.5q0 38 0.5 75.5t-0.5 74.5q-1 18 -1.5 35.5t-2.5 35.5q0 2 -1 7.5t-4 5.5q-11 0 -17 -23.5t-8.5 -56t-3 -61t-0.5 -37.5q0 -103 -14.5 -205t-23.5 -204h171q23 0 36 -19.5t13 -40.5q0 -22 -11.5 -42t-37.5 -20h-178q-2 -39 -7.5 -77.5 t-19.5 -73.5q51 -10 103 -18t105 -8q80 0 124.5 22t70.5 51t49 51t60 22q47 0 58.5 -40.5t11.5 -76.5q0 -83 -17.5 -167t-57.5 -154t-107 -112.5t-166 -42.5q-70 0 -127.5 32t-86.5 99q-3 8 -9.5 26t-6.5 25q0 11 2.5 22.5t2.5 22.5q0 23 -19 23q-13 0 -18.5 -20.5 t-5.5 -29.5q0 -106 -68.5 -153t-165.5 -47q-112 0 -170 62t-58 172z" />
<glyph unicode="&#xa4;" d="M117 1048q0 47 34.5 82t80.5 35q29 0 56 -13.5t46 -34.5l110 -116q79 33 171 33q88 0 165 -30l113 119q20 21 47 34.5t56 13.5q47 0 82 -34.5t35 -81.5q0 -30 -13.5 -57.5t-33.5 -48.5l-99 -105q49 -85 49 -192q0 -109 -51 -197l101 -107q20 -21 33.5 -48.5t13.5 -57.5 q0 -46 -34.5 -81t-81.5 -35q-30 0 -57 14t-47 35l-115 120q-76 -30 -163 -30q-91 0 -170 33l-111 -118q-19 -21 -46 -34.5t-56 -13.5q-47 0 -80.5 36t-33.5 82q0 30 13 57.5t33 49.5l98 105q-46 85 -46 190q0 102 45 185l-97 103q-20 22 -33.5 50t-13.5 58zM446 652 q0 -76 44.5 -135.5t126.5 -59.5t128 59t46 136t-46 135t-128 58t-126.5 -58t-44.5 -135z" />
<glyph unicode="&#xa5;" d="M35 1275q0 56 32 82.5t86 26.5h447q54 0 84.5 -26.5t30.5 -82.5q0 -34 -12.5 -65t-42.5 -51l9 -7q-13 -8 -24 -20.5t-11 -29.5q0 -15 6 -29t13 -28v-2q4 -7 8 -15.5t6 -16.5l71 -235l59 168q10 27 19 54.5t22 52.5v3q14 28 14 53q0 27 -24 46l9 13q-26 17 -36.5 48 t-10.5 61q0 56 31 82.5t85 26.5h171q54 0 85.5 -26.5t31.5 -82.5q0 -43 -14 -64.5t-41 -51.5q-28 -31 -49 -67.5t-36 -75.5l-96 -255h71q26 0 38.5 -20.5t12.5 -43.5q0 -24 -11.5 -44.5t-39.5 -20.5h-120l-45 -119h165q26 0 38.5 -21t12.5 -44q0 -24 -11.5 -44.5 t-39.5 -20.5h-170v-55q0 -46 16.5 -69.5t37.5 -39.5t37.5 -39t16.5 -70q0 -56 -31.5 -83t-85.5 -27h-450q-54 0 -85.5 27t-31.5 83q0 45 16.5 69.5t38 42t38 39.5t16.5 62v60h-178q-27 0 -37 21.5t-10 43.5q0 21 12 43t37 22h171l-49 119h-124q-27 0 -37 21.5t-10 43.5 q0 21 12 42.5t37 21.5h70l-113 276q-15 38 -27 61t-43 51q-35 32 -51.5 53.5t-16.5 72.5z" />
<glyph unicode="&#xa6;" horiz-adv-x="1024" d="M347 1375q0 70 40 105t107 35q68 0 107.5 -35t39.5 -105q0 -143 -16.5 -286t-16.5 -286q0 -58 -28.5 -83.5t-85.5 -25.5q-110 0 -110 109q0 143 -18.5 286t-18.5 286zM348 -168q0 143 17 286t17 286q0 59 28 84t86 25q110 0 110 -109q0 -80 5.5 -160t13.5 -160 q7 -63 12 -126t5 -126q0 -70 -40 -105t-108 -35q-67 0 -106.5 35.5t-39.5 104.5z" />
<glyph unicode="&#xa7;" horiz-adv-x="1475" d="M146 381q0 127 70 206t171 118q-84 53 -139.5 131t-55.5 189q0 103 45 176t119.5 119.5t164 68.5t177.5 22q44 0 87.5 -3t86.5 -12q35 -7 70 -15.5t71 -8.5q33 0 61 22t65 22q53 0 73.5 -34t37.5 -75q12 -28 36.5 -84t44.5 -111t20 -82q0 -43 -31.5 -66.5t-71.5 -23.5 q-34 0 -49 14.5t-35 39.5q-81 104 -179.5 164t-234.5 60q-27 0 -69 -7t-75 -26t-33 -56q0 -43 39.5 -67.5t90 -36.5t82.5 -19q85 -17 178.5 -48t175.5 -81t133 -125t51 -180q0 -125 -71 -205.5t-174 -123.5q86 -51 143.5 -127.5t57.5 -187.5q0 -105 -48.5 -178t-127.5 -118 t-172 -66t-181 -21q-41 0 -82.5 2t-82.5 6q-28 3 -55 7t-55 4q-37 0 -72 -13t-73 -13q-55 0 -70.5 26.5t-30.5 71.5l-1 2q-2 13 -6.5 26t-8.5 25q-6 22 -17 58t-19.5 71.5t-8.5 56.5q0 39 32.5 59t66.5 20q38 0 58.5 -19t42.5 -45q78 -88 157 -122.5t196 -34.5 q29 0 74.5 6.5t81.5 26t36 58.5t-34.5 58.5t-78 28t-71.5 13.5q-55 10 -109 25t-107 34q-94 34 -178 83.5t-136.5 126t-52.5 188.5zM488 507q0 -37 28 -62.5t69.5 -41.5t83 -25.5t69.5 -15.5q35 -7 73 -16.5t76 -21.5q41 12 71.5 38t30.5 73q0 49 -39.5 75t-91 38.5 t-87.5 19.5q-41 8 -85.5 19t-89.5 25q-41 -9 -74.5 -33.5t-33.5 -71.5z" />
<glyph unicode="&#xa8;" horiz-adv-x="1024" d="M58 1276q0 95 58.5 142.5t148.5 47.5q91 0 149 -47.5t58 -142.5t-58.5 -142t-148.5 -47t-148.5 47t-58.5 142zM550 1276q0 95 58 142.5t149 47.5q92 0 150.5 -46.5t58.5 -143.5q0 -96 -59 -142.5t-150 -46.5t-149 46.5t-58 142.5z" />
<glyph unicode="&#xa9;" horiz-adv-x="1594" d="M64 622q0 162 51.5 302t148.5 245.5t232 165t301 59.5q167 0 302 -59t231.5 -165t148 -246t51.5 -302t-51 -304t-147 -250.5t-231.5 -169.5t-303.5 -61q-167 0 -302 61.5t-231.5 170t-148 250.5t-51.5 303zM237 622q0 -166 67.5 -304.5t193 -222t299.5 -83.5 q172 0 298.5 84t195.5 223t69 303q0 165 -69.5 300.5t-196 216t-297.5 80.5q-172 0 -298 -80t-194 -215t-68 -302zM383 612q0 113 56 206.5t149.5 149t206.5 55.5q41 0 77.5 -18.5t76.5 -18.5q31 0 54 18.5t49 18.5q38 0 53.5 -26t21.5 -58l28 -153q4 -19 9 -38t5 -39 q0 -49 -21 -74.5t-72 -25.5q-41 0 -64 25t-37.5 62.5t-26.5 74.5t-29.5 62t-49.5 25q-39 0 -53.5 -29.5t-16 -68t-1.5 -65.5q0 -51 7 -110t37.5 -101t99.5 -42q41 0 80 14.5t73 36.5q5 27 30 27q29 0 47 -24t18 -51q0 -26 -9.5 -50.5t-24.5 -46.5q-55 -81 -151 -116.5 t-191 -35.5q-125 0 -222.5 51t-153 144.5t-55.5 220.5z" />
<glyph unicode="&#xaa;" horiz-adv-x="777" d="M-90 821q0 78 37 131t97 84.5t129.5 45.5t133.5 14q19 0 37.5 -1t37.5 -4v221q0 20 -8 48t-34 28t-31 -24.5t-5 -43.5q0 -103 -51.5 -146t-150.5 -43q-67 0 -115.5 28t-48.5 104q0 29 12 56t30 49q53 64 133 97t168.5 45t165.5 12q87 0 160 -24.5t117.5 -81.5t44.5 -155 v-391q0 -15 7 -26t24 -11q12 0 21.5 8.5t21.5 8.5q26 0 37.5 -18t11.5 -41q0 -61 -37 -103.5t-92 -65t-109 -22.5q-64 0 -130.5 28.5t-92.5 89.5q-42 -62 -119 -90t-149 -28q-100 0 -176.5 56.5t-76.5 164.5zM302 897q0 -34 16 -64t56 -30q5 0 9 1l-1 1v175q-12 5 -26 5 q-31 0 -42.5 -32t-11.5 -56z" />
<glyph unicode="&#xab;" horiz-adv-x="1094" d="M16 492q0 47 26.5 86t56.5 72q67 74 139.5 141t145.5 134q20 18 45.5 37.5t53.5 19.5q23 0 38 -16t15 -39q0 -38 -21 -71v-2l-152 -363l151 -360v-1q8 -12 15 -35.5t7 -37.5q0 -22 -15 -39t-38 -17t-63.5 27.5t-88 70t-94.5 89t-83.5 86t-54.5 59.5q-29 34 -56 73t-27 86 zM558 492q0 47 26.5 86t57.5 72q64 69 132.5 133t137.5 128q22 20 51.5 45.5t61.5 25.5q23 0 38 -16t15 -39q0 -38 -21 -71v-2l-152 -363l123 -294q11 -25 30.5 -69.5t19.5 -70.5q0 -22 -15 -39t-38 -17t-63.5 27.5t-88 70t-93.5 89t-83 86t-55 59.5q-31 34 -57.5 72.5 t-26.5 86.5z" />
<glyph unicode="&#xac;" horiz-adv-x="1024" d="M87 729q0 50 29 94t84 44h575q71 0 107 -43t36 -111v-352q0 -54 -36.5 -87t-89.5 -33q-54 0 -93 33t-39 89v233h-462q-55 0 -83 42t-28 91z" />
<glyph unicode="&#xad;" horiz-adv-x="512" d="M-32 456q0 28 8.5 54t18.5 51v2q4 6 6 18q8 42 34.5 74.5t73.5 32.5h366q29 0 49.5 -13.5t20.5 -45.5q0 -22 -7.5 -44t-13.5 -44q-9 -32 -21 -65.5t-34 -56t-64 -22.5h-367q-29 0 -49.5 13.5t-20.5 45.5z" />
<glyph unicode="&#xae;" horiz-adv-x="1594" d="M64 622q0 162 51.5 302t148.5 245.5t232 165t301 59.5q167 0 302 -59t231.5 -165t148 -246t51.5 -302t-51 -304t-147 -250.5t-231.5 -169.5t-303.5 -61q-167 0 -302 61.5t-231.5 170t-148 250.5t-51.5 303zM237 622q0 -166 67.5 -304.5t193 -222t299.5 -83.5 q172 0 298.5 84t195.5 223t69 303q0 165 -69.5 300.5t-196 216t-297.5 80.5q-172 0 -298 -80t-194 -215t-68 -302zM416 344q0 32 19 45.5t37.5 24.5t18.5 37v369q0 28 -18.5 38t-37.5 22t-19 47q0 54 60 54h328q58 0 123.5 -11t123 -38.5t94 -75t36.5 -120.5 q0 -59 -33 -93.5t-80 -53.5l83 -146q14 -25 43 -40.5t29 -49.5q0 -28 -15.5 -45.5t-44.5 -17.5h-229q-56 0 -56 54q0 22 14 39q16 5 16 18q0 10 -18 50t-35 73q-7 -1 -15 -1q-27 0 -53 4.5t-52 12.5v-89q0 -30 14 -40.5t28.5 -21.5t14.5 -45q0 -54 -59 -54h-257 q-60 0 -60 54zM735 650q17 -4 34.5 -5t36.5 -1q48 0 86.5 18.5t38.5 75.5q0 59 -37.5 88.5t-93.5 29.5h-65v-206z" />
<glyph unicode="&#xaf;" horiz-adv-x="1024" d="M58 1208q0 57 29 92.5t89 35.5h673q59 0 88 -35.5t29 -91.5t-29 -91.5t-88 -35.5h-673q-58 0 -88 35t-30 91z" />
<glyph unicode="&#xb0;" horiz-adv-x="848" d="M88 1095q0 97 44 171.5t120.5 117t172.5 42.5q99 0 175 -43.5t119 -119.5t43 -175q0 -97 -45 -169.5t-121 -112.5t-171 -40t-171.5 42t-121 116t-44.5 171zM296 1095q0 -56 35.5 -96.5t93.5 -40.5q57 0 93.5 39t36.5 95q0 59 -34 101t-96 42q-60 0 -94.5 -41.5 t-34.5 -98.5z" />
<glyph unicode="&#xb1;" d="M116 825q0 44 24 85t74 41h279v293q0 50 40 74t84 24q45 0 82 -24t37 -74v-293h281q50 0 73 -41t23 -85q0 -43 -23 -82.5t-73 -39.5h-281v-293q0 -49 -37.5 -73.5t-81.5 -24.5q-45 0 -84.5 25t-39.5 75v291h-280q-49 0 -73 39.5t-24 82.5zM117 114q0 44 24 85t74 41h802 q50 0 73 -41t23 -85q0 -43 -23 -82.5t-73 -39.5h-804q-49 0 -72.5 39.5t-23.5 82.5z" />
<glyph unicode="&#xb2;" horiz-adv-x="821" d="M40 740q0 55 28.5 86.5t71.5 47.5q89 42 150 79t92 98.5t31 178.5q0 10 -1 35t-7.5 47t-21.5 22q-21 0 -25 -20t-4 -34v-87q0 -67 -46.5 -97.5t-107.5 -30.5q-66 0 -107.5 36.5t-41.5 104.5q0 65 34 107.5t87.5 67t113.5 34.5t112 10q79 0 159.5 -19.5t135.5 -71 t55 -148.5q0 -72 -45 -121t-108.5 -81.5t-120.5 -54.5l-86 -34q46 -5 91.5 -12.5t91.5 -7.5q32 0 46.5 15t23 34t22 34t43.5 15q38 0 53 -25.5t15 -58.5q0 -70 -22 -135.5t-70.5 -107.5t-129.5 -42q-56 0 -106 21t-79 73q-2 5 -3.5 8.5t-5.5 7.5v2l-2 2v1q-2 5 -10 19 t-13 14q-15 0 -16.5 -23.5t-3.5 -33.5q-7 -57 -46 -74t-89 -17q-64 0 -101 35.5t-37 100.5z" />
<glyph unicode="&#xb3;" horiz-adv-x="820" d="M52 770q0 66 50.5 101.5t110.5 35.5q70 0 108 -33t38 -105q0 -27 4 -58t42 -31q28 0 40 23t15 52.5t3 48.5q0 35 -12 75t-57 40h-53q-31 0 -53 16t-22 50q0 27 12.5 46.5t33.5 34.5l131 95h-123q-45 0 -60.5 -18t-21 -42t-20 -42t-58.5 -18q-30 0 -54 14.5t-24 48.5 q0 35 4 69.5t8 68.5q5 41 11.5 73t28.5 50.5t73 18.5h499q35 0 62.5 -19t27.5 -57q0 -32 -29 -58.5t-53 -43.5l-213 -153q15 1 31 1q63 0 121 -23.5t95.5 -70t37.5 -116.5q0 -76 -36.5 -126t-95 -78.5t-125.5 -40.5t-129 -12q-44 0 -103 6.5t-115 25t-93 55t-37 96.5z" />
<glyph unicode="&#xb4;" horiz-adv-x="1024" d="M222 1104q0 13 6.5 35.5t14.5 32.5l134 151q8 10 14 21l12 22q32 59 84.5 104.5t123.5 45.5q74 0 133 -47t59 -126q0 -76 -48 -122t-108 -80q-11 -6 -22.5 -12.5t-24.5 -10.5l-244 -67h-2l-1 -1q-13 -1 -25.5 -6.5t-26.5 -5.5q-29 0 -54 17t-25 49z" />
<glyph unicode="&#xb5;" d="M101 0v1376h1023v-1376h-1023zM141 40h943v1296h-943v-1296z" />
<glyph unicode="&#xb6;" d="M-48 942q0 109 42 210.5t124.5 166.5t202.5 65h822q44 0 75 -30t31 -75q0 -50 -20 -78t-46 -49t-46 -49.5t-20 -79.5v-662q0 -52 13.5 -77.5t33.5 -38.5t40 -25t33.5 -34.5t13.5 -69.5q0 -49 -33.5 -82.5t-83.5 -33.5h-774q-39 0 -60.5 29t-21.5 65q0 67 27 97.5 t62.5 45.5t62.5 35.5t27 66.5v210q-27 -4 -54 -9t-54 -5q-185 0 -291 112.5t-106 294.5zM716 385q0 -34 14 -74.5t57 -40.5q47 0 59 39.5t12 75.5v615q0 36 -12 76t-59 40q-43 0 -57 -41t-14 -75v-615z" />
<glyph unicode="&#xb8;" horiz-adv-x="1024" d="M173 -344q0 32 20.5 52.5t52.5 20.5q18 0 35.5 -6t33.5 -14h1l3 -2h2q34 -16 70.5 -20.5t73.5 -4.5q16 0 40.5 2.5t44.5 12.5t20 32q0 29 -34.5 35t-80.5 5t-80.5 5t-34.5 35q0 14 15.5 42.5t38 62t43 62.5t29.5 43h153l-86 -126h22q41 0 91.5 -6t97 -23t77 -50t30.5 -87 q0 -61 -37.5 -98.5t-95 -57.5t-118 -27t-105.5 -7q-26 0 -78.5 5t-108.5 18t-95.5 36.5t-39.5 59.5z" />
<glyph unicode="&#xb9;" horiz-adv-x="821" d="M35 716q0 34 21.5 48t53.5 19t64 8.5t53.5 15t21.5 39.5v305q0 54 -26 59.5t-68 5.5q-40 0 -75.5 11.5t-35.5 61.5q0 36 20.5 51.5t50 19.5t56.5 4q62 0 112.5 6.5t109.5 27.5q29 11 60 19t62 8q35 0 61 -15.5t26 -55.5v-508q0 -33 29.5 -43.5t68.5 -15t68.5 -18.5 t29.5 -53t-27.5 -53t-60.5 -14h-586q-33 0 -61 14t-28 53z" />
<glyph unicode="&#xba;" horiz-adv-x="823" d="M-72 1066q0 139 67.5 241t179.5 158t245 56q141 0 248 -57.5t167.5 -162.5t60.5 -247q0 -140 -66.5 -242.5t-178 -158.5t-246.5 -56q-141 0 -248.5 58t-168 163.5t-60.5 247.5zM321 1228q0 -22 7 -73.5t20 -114t31.5 -120.5t41.5 -96t50 -38q18 0 26 21.5t10 46.5t2 37 q0 22 -7.5 73t-21 114t-32 121.5t-41 96.5t-48.5 38q-18 0 -26 -21.5t-10 -47t-2 -37.5z" />
<glyph unicode="&#xbb;" horiz-adv-x="1094" d="M16 57q0 17 18 67.5t46 117.5t57 133.5t51 116.5q-22 50 -51 117t-56.5 133.5t-46 117t-18.5 66.5q0 23 15 39.5t38 16.5q32 0 61.5 -25.5t51.5 -45.5q69 -64 137.5 -128t132.5 -133q31 -33 57.5 -72t26.5 -86q0 -48 -26.5 -86.5t-57.5 -72.5q-17 -19 -54.5 -58.5 t-84.5 -86t-94.5 -89.5t-87.5 -70.5t-62 -27.5q-23 0 -38 17t-15 39zM558 57q0 14 7.5 37.5t14.5 35.5v1l151 360l-152 363v2q-10 14 -15.5 34.5t-5.5 36.5q0 23 15 39t38 16q29 0 53.5 -19t43.5 -37q72 -68 146 -135t141 -141q30 -33 56.5 -72t26.5 -86q0 -46 -27 -86 t-56 -73q-62 -70 -131.5 -133.5t-138.5 -127.5q-21 -19 -52 -45t-62 -26q-23 0 -38 17t-15 39z" />
<glyph unicode="&#xbc;" horiz-adv-x="1914" d="M105 716q0 33 20.5 47.5t48.5 21t51 14.5q19 7 24 17.5t5 29.5v305q0 29 -7.5 47t-42.5 18q-37 0 -63 15.5t-26 57.5q0 38 26.5 56.5t61.5 18.5q65 0 121 13t117 32q20 6 39.5 11t39.5 5q35 0 57 -16.5t22 -54.5v-508q0 -31 20.5 -43t47 -18.5t47 -20t20.5 -48.5 q0 -38 -24.5 -52.5t-58.5 -14.5h-462q-34 0 -59 14.5t-25 52.5zM379 120q0 47 27 97t67.5 98t83 90.5t73.5 74.5t60.5 64t60.5 63q13 14 28 27t35 13q26 0 48.5 -19t22.5 -46q0 -19 -16.5 -69t-36 -101t-28.5 -75q-25 -70 -51 -140t-65 -135q-23 -39 -55 -68t-81 -29 q-41 0 -81 20.5t-66 56t-26 78.5zM890 804q0 23 15 65t32.5 84.5t26.5 67.5q15 42 37 108t52 132.5t72 111.5t98 45q40 0 79.5 -21t66.5 -56.5t27 -77.5q0 -58 -38 -117.5t-89 -113t-89 -93.5l-163 -168q-12 -13 -23.5 -23.5t-31.5 -10.5q-26 0 -49 19.5t-23 47.5zM938 267 q0 26 18 52t40 39l131 75q23 13 53 48.5t30 62.5q0 37 -24 68t-24 71q0 56 33 85.5t81 41t92 11.5q43 0 84.5 -11.5t69 -40t27.5 -79.5q0 -38 -24 -74t-57.5 -66t-62.5 -51l-256 -183h184q8 25 28 40l174 140q17 14 34 24t39 10q47 0 47 -52l2 -162h63q29 0 53 -11.5 t24 -45.5q0 -38 -21 -52t-56 -14h-62q3 -26 22 -38t42 -20.5t40.5 -22.5t17.5 -44q0 -37 -26 -51.5t-58 -14.5h-422q-32 0 -58 14.5t-26 51.5q0 34 18.5 47t44 19.5t47 17.5t28.5 41h-309q-34 0 -57.5 19t-23.5 55z" />
<glyph unicode="&#xbd;" horiz-adv-x="1914" d="M105 716q0 37 22 50t50.5 18t50.5 16.5t22 45.5v305q0 29 -7.5 47t-42.5 18q-37 0 -61 16.5t-24 56.5q0 38 26.5 56.5t61.5 18.5q65 0 119 12.5t115 32.5q20 7 39.5 11.5t39.5 4.5q35 0 56.5 -16.5t21.5 -54.5v-508q0 -31 20 -43t45.5 -18.5t45.5 -20t20 -48.5 q0 -38 -24 -52.5t-58 -14.5h-454q-34 0 -59 14.5t-25 52.5zM375 121q0 55 38.5 116.5t88.5 118t86 94.5l149 158l26.5 26.5t34.5 12.5q26 0 48.5 -19t22.5 -46q0 -14 -10.5 -48.5t-23 -70t-18.5 -52.5q-15 -43 -37 -117t-54.5 -149.5t-76.5 -127.5t-102 -52q-41 0 -80.5 21 t-65.5 56.5t-26 78.5zM871 804q0 21 11.5 58.5t25.5 76.5t21 61q14 43 35.5 112t53 139.5t74.5 118.5t100 48q40 0 80 -21t67 -56t27 -78q0 -28 -9 -53.5t-23 -49.5q-40 -73 -96.5 -135.5t-115.5 -121.5q-30 -31 -59.5 -62t-58.5 -63q-12 -13 -26.5 -27t-34.5 -14 q-26 0 -49 19.5t-23 47.5zM1029 98q0 58 33.5 90.5t81.5 47.5q74 31 139.5 65.5t106 91t40.5 153.5v30q0 14 -1.5 41.5t-10 50.5t-29.5 23q-34 0 -38 -26t-4 -50v-65q0 -67 -47.5 -97t-107.5 -30q-66 0 -108.5 36t-42.5 105q0 66 37 108.5t94 67t119.5 34t113.5 9.5 q59 0 122 -10t117.5 -36t88.5 -73t34 -120t-48 -122t-115 -81t-124 -54l-92 -34q49 -5 98 -12.5t99 -7.5q34 0 50 15t25.5 34t23 34t43.5 15q38 0 54 -24.5t16 -58.5q0 -13 -1 -19q-8 -70 -30 -131.5t-69 -99t-130 -37.5q-64 0 -117.5 22.5t-85.5 82.5v1q-3 7 -14.5 25 t-19.5 18q-19 0 -21 -19.5t-4 -32.5q-8 -59 -46 -78t-91 -19q-64 0 -101.5 36t-37.5 101z" />
<glyph unicode="&#xbe;" horiz-adv-x="1914" d="M123 770q0 65 49 101t109 36q59 0 102 -28.5t43 -93.5v-56q0 -13 5.5 -31t23.5 -18q19 0 27 22.5t9.5 49t1.5 39.5q0 15 -2.5 45.5t-12 56.5t-31.5 26h-49q-31 0 -52 16t-21 50q0 28 11 46.5t32 34.5l119 95h-107q-42 0 -56 -18t-19.5 -42t-20 -42t-57.5 -18 q-30 0 -53 14.5t-23 48.5q0 35 3.5 69.5t7.5 68.5q4 41 10 73t27.5 50.5t72.5 18.5h462q35 0 62.5 -19t27.5 -57q0 -31 -29.5 -58t-51.5 -44l-193 -153q17 1 35 1q92 0 160.5 -57t68.5 -153q0 -99 -57 -155t-141 -79t-166 -23q-45 0 -100.5 6.5t-107.5 25.5t-85.5 55 t-33.5 96zM482 120q0 56 38.5 121t89.5 125.5t86 101.5l117 136q13 14 27.5 28.5t35.5 14.5q26 0 48 -19t22 -46q0 -28 -16 -76t-24 -77l-29 -105q-11 -40 -27.5 -100.5t-41.5 -119.5t-63 -99t-92 -40q-40 0 -79.5 21t-65.5 56.5t-26 77.5zM942 803q0 41 21 104t33 104 q12 42 29.5 110t44.5 136t67.5 114.5t97.5 46.5q40 0 79.5 -21.5t66 -57t26.5 -77.5q0 -52 -36 -112.5t-83 -116.5t-80 -95l-142 -165q-10 -13 -22.5 -24.5t-30.5 -11.5q-26 0 -48.5 19.5t-22.5 46.5zM984 267q0 41 36.5 74.5t84 64t84 64t36.5 74.5q0 36 -23.5 67.5 t-23.5 71.5q0 55 32 85t79.5 41.5t91.5 11.5q42 0 83 -12t68 -40.5t27 -78.5q0 -59 -48 -108t-91 -83l-233 -183h161q8 25 26 40l175 140q16 13 32.5 23.5t38.5 10.5q47 0 47 -52l2 -162h52q29 0 53 -11.5t24 -45.5q0 -37 -21 -51.5t-56 -14.5h-51q3 -26 20 -39t38.5 -21.5 t37.5 -22t16 -42.5q0 -38 -24.5 -52t-58.5 -14h-402q-32 0 -57 14.5t-25 51.5q0 35 22 48.5t50 23.5t41 18.5t15 34.5h-278q-34 0 -57.5 19t-23.5 55z" />
<glyph unicode="&#xbf;" horiz-adv-x="987" d="M26 56q0 116 37 184t108.5 107t174.5 66q8 2 11 2q18 0 30.5 16.5t24.5 36t26 27.5q22 49 52.5 84t89.5 35q50 0 75 -22.5t47 -63.5v-1l2 -2v-1q16 -14 25.5 -43t9.5 -50q0 -46 -27 -77t-63.5 -55t-66.5 -49q-28 -23 -39.5 -67.5t-14 -92.5t-2.5 -82q0 -12 1.5 -47.5 t8.5 -67.5t23 -32q13 0 17 27.5t4 58.5v41q0 80 20.5 144t70.5 101.5t140 37.5q102 0 157.5 -60.5t55.5 -160.5q0 -95 -44 -166t-116 -118t-157.5 -70.5t-168.5 -23.5q-100 0 -192 16t-164.5 57t-114 116.5t-41.5 194.5zM349 908q0 66 30 125t83 96t122 37t121.5 -37.5 t82 -96.5t29.5 -124t-29.5 -123.5t-82 -95t-121.5 -36.5t-122 36t-83 94.5t-30 124.5z" />
<glyph unicode="&#xc0;" horiz-adv-x="1693" d="M62 109q0 48 25.5 71.5t56.5 52.5q28 26 42 58t26 67l227 681q6 17 11.5 34.5t5.5 36.5q0 23 -15.5 36t-35.5 26.5t-35.5 36.5t-15.5 66q0 57 33.5 83t87.5 26h720q54 0 87.5 -25.5t33.5 -83.5q0 -41 -14 -63.5t-32 -35.5t-32 -27t-14 -38q0 -17 4.5 -33.5t9.5 -32.5 l207 -605q16 -47 25.5 -85t28.5 -70.5t62 -65.5q34 -25 48 -45.5t14 -64.5q0 -58 -33.5 -83.5t-87.5 -25.5h-511q-54 0 -88 25.5t-34 83.5q0 41 17.5 64t41 36.5t41 25t17.5 28.5q0 14 -3.5 28t-8.5 27l-32 102h-468l-5 -14q-8 -24 -21 -53.5t-13 -54.5q0 -28 24 -45.5 t55.5 -34t55.5 -41.5t24 -68q0 -57 -33.5 -83t-87.5 -26h-289q-54 0 -88 25.5t-34 83.5zM547 643h324l-160 501zM602 1744q0 75 53.5 123.5t126.5 48.5q54 0 91 -27t64.5 -66.5t52.5 -79.5q16 -24 42 -64t47 -81t21 -69q0 -33 -24.5 -49t-53.5 -16q-34 0 -89 18.5t-89 30.5 q-55 20 -111 47t-93.5 70.5t-37.5 113.5z" />
<glyph unicode="&#xc1;" horiz-adv-x="1693" d="M62 109q0 48 25.5 71.5t56.5 52.5q28 26 42 58t26 67l227 681q6 17 11.5 34.5t5.5 36.5q0 23 -15.5 36t-35.5 26.5t-35.5 36.5t-15.5 66q0 57 33.5 83t87.5 26h720q54 0 87.5 -25.5t33.5 -83.5q0 -41 -14 -63.5t-32 -35.5t-32 -27t-14 -38q0 -17 4.5 -33.5t9.5 -32.5 l207 -605q16 -47 25.5 -85t28.5 -70.5t62 -65.5q34 -25 48 -45.5t14 -64.5q0 -58 -33.5 -83.5t-87.5 -25.5h-511q-54 0 -88 25.5t-34 83.5q0 41 17.5 64t41 36.5t41 25t17.5 28.5q0 14 -3.5 28t-8.5 27l-32 102h-468l-5 -14q-8 -24 -21 -53.5t-13 -54.5q0 -28 24 -45.5 t55.5 -34t55.5 -41.5t24 -68q0 -57 -33.5 -83t-87.5 -26h-289q-54 0 -88 25.5t-34 83.5zM547 643h324l-160 501zM602 1529q0 28 21 69t47.5 81t41.5 64q25 40 52.5 79.5t65 66.5t90.5 27q74 0 127 -48.5t53 -123.5q0 -70 -37.5 -113.5t-93 -70.5t-111.5 -47 q-34 -12 -88.5 -30.5t-89.5 -18.5q-29 0 -53.5 16t-24.5 49z" />
<glyph unicode="&#xc2;" horiz-adv-x="1693" d="M62 109q0 48 25.5 71.5t56.5 52.5q28 26 42 58t26 67l227 681q6 17 11.5 34.5t5.5 36.5q0 23 -15.5 36t-35.5 26.5t-35.5 36.5t-15.5 66q0 57 33.5 83t87.5 26h720q54 0 87.5 -25.5t33.5 -83.5q0 -41 -14 -63.5t-32 -35.5t-32 -27t-14 -38q0 -17 4.5 -33.5t9.5 -32.5 l207 -605q16 -47 25.5 -85t28.5 -70.5t62 -65.5q34 -25 48 -45.5t14 -64.5q0 -58 -33.5 -83.5t-87.5 -25.5h-511q-54 0 -88 25.5t-34 83.5q0 41 17.5 64t41 36.5t41 25t17.5 28.5q0 14 -3.5 28t-8.5 27l-32 102h-468l-5 -14q-8 -24 -21 -53.5t-13 -54.5q0 -28 24 -45.5 t55.5 -34t55.5 -41.5t24 -68q0 -57 -33.5 -83t-87.5 -26h-289q-54 0 -88 25.5t-34 83.5zM475 1548q0 20 9.5 39t22.5 33l162 174q38 41 78 75t100 34q62 0 100.5 -33.5t77.5 -75.5l162 -174q14 -14 23 -33t9 -39q0 -33 -23 -53.5t-55 -20.5q-23 0 -44.5 8t-41.5 20l-208 128 l-208 -128q-19 -12 -40.5 -20t-44.5 -8q-32 0 -55.5 20t-23.5 54zM547 643h324l-160 501z" />
<glyph unicode="&#xc3;" horiz-adv-x="1693" d="M62 109q0 48 25.5 71.5t56.5 52.5q28 26 42 58t26 67l227 681q6 17 11.5 34.5t5.5 36.5q0 23 -15.5 36t-35.5 26.5t-35.5 36.5t-15.5 66q0 57 33.5 83t87.5 26h720q54 0 87.5 -25.5t33.5 -83.5q0 -41 -14 -63.5t-32 -35.5t-32 -27t-14 -38q0 -17 4.5 -33.5t9.5 -32.5 l207 -605q16 -47 25.5 -85t28.5 -70.5t62 -65.5q34 -25 48 -45.5t14 -64.5q0 -58 -33.5 -83.5t-87.5 -25.5h-511q-54 0 -88 25.5t-34 83.5q0 41 17.5 64t41 36.5t41 25t17.5 28.5q0 14 -3.5 28t-8.5 27l-32 102h-468l-5 -14q-8 -24 -21 -53.5t-13 -54.5q0 -28 24 -45.5 t55.5 -34t55.5 -41.5t24 -68q0 -57 -33.5 -83t-87.5 -26h-289q-54 0 -88 25.5t-34 83.5zM489 1562q0 61 19.5 122.5t62.5 102.5t115 41q57 0 106.5 -25t94 -50t87.5 -25q36 0 51.5 17.5t25 40.5t25.5 40.5t53 17.5q49 0 62 -35t13 -74q0 -61 -19 -123t-62 -103.5t-116 -41.5 q-56 0 -106 25t-94.5 50t-87.5 25q-34 0 -49.5 -17.5t-26 -40.5t-27 -40.5t-52.5 -17.5q-49 0 -62 36t-13 75zM547 643h324l-160 501z" />
<glyph unicode="&#xc4;" horiz-adv-x="1693" d="M62 109q0 48 25.5 71.5t56.5 52.5q28 26 42 58t26 67l227 681q6 17 11.5 34.5t5.5 36.5q0 23 -15.5 36t-35.5 26.5t-35.5 36.5t-15.5 66q0 57 33.5 83t87.5 26h720q54 0 87.5 -25.5t33.5 -83.5q0 -41 -14 -63.5t-32 -35.5t-32 -27t-14 -38q0 -17 4.5 -33.5t9.5 -32.5 l207 -605q16 -47 25.5 -85t28.5 -70.5t62 -65.5q34 -25 48 -45.5t14 -64.5q0 -58 -33.5 -83.5t-87.5 -25.5h-511q-54 0 -88 25.5t-34 83.5q0 41 17.5 64t41 36.5t41 25t17.5 28.5q0 14 -3.5 28t-8.5 27l-32 102h-468l-5 -14q-8 -24 -21 -53.5t-13 -54.5q0 -28 24 -45.5 t55.5 -34t55.5 -41.5t24 -68q0 -57 -33.5 -83t-87.5 -26h-289q-54 0 -88 25.5t-34 83.5zM375 1642q0 96 60.5 143t150.5 47q91 0 150.5 -47t59.5 -143t-60 -142.5t-150 -46.5q-91 0 -151 46t-60 143zM547 643h324l-160 501zM893 1642q0 96 60.5 143t150.5 47q92 0 152.5 -46 t60.5 -144q0 -97 -61 -143t-152 -46t-151 46t-60 143z" />
<glyph unicode="&#xc5;" horiz-adv-x="1693" d="M62 109q0 48 25.5 71.5t56.5 52.5q28 26 42 58t26 67l227 681q6 17 11.5 34.5t5.5 36.5q0 23 -15.5 36t-35.5 26.5t-35.5 36.5t-15.5 66q0 57 33.5 83t87.5 26h720q54 0 87.5 -25.5t33.5 -83.5q0 -41 -14 -63.5t-32 -35.5t-32 -27t-14 -38q0 -17 4.5 -33.5t9.5 -32.5 l207 -605q16 -47 25.5 -85t28.5 -70.5t62 -65.5q34 -25 48 -45.5t14 -64.5q0 -58 -33.5 -83.5t-87.5 -25.5h-511q-54 0 -88 25.5t-34 83.5q0 41 17.5 64t41 36.5t41 25t17.5 28.5q0 14 -3.5 28t-8.5 27l-32 102h-468l-5 -14q-8 -24 -21 -53.5t-13 -54.5q0 -28 24 -45.5 t55.5 -34t55.5 -41.5t24 -68q0 -57 -33.5 -83t-87.5 -26h-289q-54 0 -88 25.5t-34 83.5zM547 643h324l-160 501zM567 1652q0 73 41.5 115.5t103.5 61t123 18.5t123.5 -18.5t104.5 -61t42 -115.5t-41.5 -116.5t-104 -62t-124.5 -18.5t-124 18.5t-103 62t-41 116.5zM762 1651 q0 -33 21.5 -52t53.5 -19t53 19t21 52t-21 52t-53 19t-53.5 -19t-21.5 -52z" />
<glyph unicode="&#xc6;" horiz-adv-x="2119" d="M5 109q0 46 24.5 71t55.5 53q28 25 47.5 59t37.5 66l387 681q8 15 15.5 32t7.5 35q0 26 -16 38.5t-36.5 24.5t-36.5 35.5t-16 70.5q0 58 33 83.5t88 25.5h972q56 0 113 12l60 14t61 7q80 0 110 -45t50 -113q5 -16 16 -49.5t22.5 -72t20 -70.5t8.5 -45q0 -47 -39.5 -71 t-80.5 -24q-42 0 -67 21t-42 57q-29 62 -58.5 95.5t-71.5 47t-109 13.5h-149v-367h73q53 0 72 24t27.5 56t27 56t71.5 24q41 0 65 -23t34 -61l63 -254q6 -21 6 -44q0 -44 -30 -71t-74 -27q-29 0 -50.5 15t-38.5 37q-37 50 -69 58.5t-94 8.5h-83v-203q0 -74 28 -120.5 t110 -46.5h32q73 0 120 14t79.5 50.5t61.5 104.5q15 36 39.5 57.5t66.5 21.5q49 0 83 -28.5t34 -79.5q0 -22 -6 -43l-58 -197q-19 -67 -50 -112.5t-111 -45.5q-31 0 -61 7.5t-60 14.5q-53 13 -113 13h-714q-54 0 -87 26t-33 83q0 55 22 80t51.5 38.5t51.5 33.5t22 66v154 h-389l-41 -75q-13 -24 -22 -50.5t-9 -54.5q0 -39 19.5 -58t45.5 -32.5t45.5 -35t19.5 -66.5q0 -57 -33.5 -83t-87.5 -26h-342q-54 0 -87.5 26t-33.5 83zM651 703h269v458h-21z" />
<glyph unicode="&#xc7;" horiz-adv-x="1475" d="M70 695q0 147 52 278.5t146 233.5t221.5 160t278.5 58q47 0 94 -5.5t92 -19.5q28 -9 56 -20t58 -11q27 0 48.5 13.5t42.5 26.5t45 13q51 0 67 -32t27 -72l90 -312q4 -13 4 -29q0 -47 -38 -70.5t-80 -23.5q-49 0 -79.5 34t-56.5 84.5t-60.5 100.5t-90 84t-146.5 34 q-89 0 -144 -46.5t-84 -119t-39.5 -153.5t-10.5 -149q0 -122 36 -234t119 -183.5t224 -71.5q75 0 136 30.5t110 71t85.5 71t61.5 30.5q37 0 54 -26.5t17 -59.5q0 -44 -15.5 -85t-39.5 -77q-59 -90 -149.5 -147t-195.5 -84t-209 -27q-220 0 -383.5 92.5t-253.5 258.5t-90 384 zM463 -344q0 29 17 51t48 22q39 0 77.5 -23.5t84.5 -23.5q23 0 41 10.5t18 36.5q0 30 -23 36t-46 6q-22 0 -53.5 3t-31.5 35q0 17 18 60t39 87t30 63h136l-56 -126h25q55 0 107 -14.5t86.5 -50.5t34.5 -101q0 -77 -47.5 -118t-115.5 -56.5t-129 -15.5q-27 0 -70 5t-86.5 18 t-73.5 36.5t-30 59.5z" />
<glyph unicode="&#xc8;" horiz-adv-x="1415" d="M93 109q0 52 21.5 77t49.5 40.5t49.5 36.5t21.5 64v730q0 43 -21.5 64t-49.5 36.5t-49.5 40.5t-21.5 77q0 57 34 83t87 26h669q25 0 73 5t70 15q23 0 44.5 6.5t43.5 6.5q69 0 102.5 -37t49.5 -90.5t31 -105.5q11 -37 25.5 -79t14.5 -82q0 -47 -38.5 -71t-80.5 -24 q-43 0 -65.5 21t-42.5 56q-33 60 -57.5 94t-62 48t-111.5 14h-152v-367h79q48 0 67 24t28.5 56t29 56t68.5 24q41 0 65.5 -23t33.5 -61l61 -254q2 -10 4 -21.5t2 -22.5q0 -44 -30 -71t-73 -27q-30 0 -50.5 15.5t-39.5 36.5q-29 33 -46.5 47t-39.5 17t-65 3h-94v-203 q0 -77 43 -122t121 -45q80 0 123.5 14t72 50.5t64.5 104.5q19 35 41 57t65 22q47 0 82.5 -28.5t35.5 -78.5q0 -19 -7 -44l-56 -197q-19 -67 -50 -112.5t-110 -45.5q-31 0 -61 7.5t-59 14.5q-53 13 -112 13h-706q-53 0 -87 26t-34 83zM467 1744q0 75 53.5 123.5t126.5 48.5 q54 0 91 -27t64.5 -66.5t52.5 -79.5q16 -24 42 -64t47 -81t21 -69q0 -33 -24.5 -49t-53.5 -16q-34 0 -89 18.5t-89 30.5q-55 20 -111 47t-93.5 70.5t-37.5 113.5z" />
<glyph unicode="&#xc9;" horiz-adv-x="1415" d="M93 109q0 52 21.5 77t49.5 40.5t49.5 36.5t21.5 64v730q0 43 -21.5 64t-49.5 36.5t-49.5 40.5t-21.5 77q0 57 34 83t87 26h669q25 0 73 5t70 15q23 0 44.5 6.5t43.5 6.5q69 0 102.5 -37t49.5 -90.5t31 -105.5q11 -37 25.5 -79t14.5 -82q0 -47 -38.5 -71t-80.5 -24 q-43 0 -65.5 21t-42.5 56q-33 60 -57.5 94t-62 48t-111.5 14h-152v-367h79q48 0 67 24t28.5 56t29 56t68.5 24q41 0 65.5 -23t33.5 -61l61 -254q2 -10 4 -21.5t2 -22.5q0 -44 -30 -71t-73 -27q-30 0 -50.5 15.5t-39.5 36.5q-29 33 -46.5 47t-39.5 17t-65 3h-94v-203 q0 -77 43 -122t121 -45q80 0 123.5 14t72 50.5t64.5 104.5q19 35 41 57t65 22q47 0 82.5 -28.5t35.5 -78.5q0 -19 -7 -44l-56 -197q-19 -67 -50 -112.5t-110 -45.5q-31 0 -61 7.5t-59 14.5q-53 13 -112 13h-706q-53 0 -87 26t-34 83zM467 1529q0 28 21 69t47.5 81t41.5 64 q25 40 52.5 79.5t65 66.5t90.5 27q74 0 127 -48.5t53 -123.5q0 -70 -37.5 -113.5t-93 -70.5t-111.5 -47q-34 -12 -88.5 -30.5t-89.5 -18.5q-29 0 -53.5 16t-24.5 49z" />
<glyph unicode="&#xca;" horiz-adv-x="1415" d="M93 109q0 52 21.5 77t49.5 40.5t49.5 36.5t21.5 64v730q0 43 -21.5 64t-49.5 36.5t-49.5 40.5t-21.5 77q0 57 34 83t87 26h669q25 0 73 5t70 15q23 0 44.5 6.5t43.5 6.5q69 0 102.5 -37t49.5 -90.5t31 -105.5q11 -37 25.5 -79t14.5 -82q0 -47 -38.5 -71t-80.5 -24 q-43 0 -65.5 21t-42.5 56q-33 60 -57.5 94t-62 48t-111.5 14h-152v-367h79q48 0 67 24t28.5 56t29 56t68.5 24q41 0 65.5 -23t33.5 -61l61 -254q2 -10 4 -21.5t2 -22.5q0 -44 -30 -71t-73 -27q-30 0 -50.5 15.5t-39.5 36.5q-29 33 -46.5 47t-39.5 17t-65 3h-94v-203 q0 -77 43 -122t121 -45q80 0 123.5 14t72 50.5t64.5 104.5q19 35 41 57t65 22q47 0 82.5 -28.5t35.5 -78.5q0 -19 -7 -44l-56 -197q-19 -67 -50 -112.5t-110 -45.5q-31 0 -61 7.5t-59 14.5q-53 13 -112 13h-706q-53 0 -87 26t-34 83zM340 1548q0 20 9.5 39t22.5 33l162 174 q38 41 78 75t100 34q62 0 100.5 -33.5t77.5 -75.5l162 -174q14 -14 23 -33t9 -39q0 -33 -23 -53.5t-55 -20.5q-23 0 -44.5 8t-41.5 20l-208 128l-208 -128q-19 -12 -40.5 -20t-44.5 -8q-32 0 -55.5 20t-23.5 54z" />
<glyph unicode="&#xcb;" horiz-adv-x="1415" d="M93 109q0 52 21.5 77t49.5 40.5t49.5 36.5t21.5 64v730q0 43 -21.5 64t-49.5 36.5t-49.5 40.5t-21.5 77q0 57 34 83t87 26h669q25 0 73 5t70 15q23 0 44.5 6.5t43.5 6.5q69 0 102.5 -37t49.5 -90.5t31 -105.5q11 -37 25.5 -79t14.5 -82q0 -47 -38.5 -71t-80.5 -24 q-43 0 -65.5 21t-42.5 56q-33 60 -57.5 94t-62 48t-111.5 14h-152v-367h79q48 0 67 24t28.5 56t29 56t68.5 24q41 0 65.5 -23t33.5 -61l61 -254q2 -10 4 -21.5t2 -22.5q0 -44 -30 -71t-73 -27q-30 0 -50.5 15.5t-39.5 36.5q-29 33 -46.5 47t-39.5 17t-65 3h-94v-203 q0 -77 43 -122t121 -45q80 0 123.5 14t72 50.5t64.5 104.5q19 35 41 57t65 22q47 0 82.5 -28.5t35.5 -78.5q0 -19 -7 -44l-56 -197q-19 -67 -50 -112.5t-110 -45.5q-31 0 -61 7.5t-59 14.5q-53 13 -112 13h-706q-53 0 -87 26t-34 83zM240 1642q0 96 60.5 143t150.5 47 q91 0 150.5 -47t59.5 -143t-60 -142.5t-150 -46.5q-91 0 -151 46t-60 143zM758 1642q0 96 60.5 143t150.5 47q92 0 152.5 -46t60.5 -144q0 -97 -61 -143t-152 -46t-151 46t-60 143z" />
<glyph unicode="&#xcc;" horiz-adv-x="847" d="M44 109q0 52 20 77t47 40.5t47 36.5t20 64v730q0 43 -20 64t-47 36.5t-47 40.5t-20 77q0 57 33 83t87 26h520q54 0 87 -26t33 -83q0 -52 -20 -77t-47 -40.5t-47 -36.5t-20 -64v-730q0 -43 20 -63.5t47 -36t47 -40.5t20 -78q0 -57 -33 -83t-87 -26h-520q-54 0 -87 26 t-33 83zM180 1744q0 75 53.5 123.5t126.5 48.5q54 0 91 -27t64.5 -66.5t52.5 -79.5q16 -24 42 -64t47 -81t21 -69q0 -33 -24.5 -49t-53.5 -16q-34 0 -89 18.5t-89 30.5q-55 20 -111 47t-93.5 70.5t-37.5 113.5z" />
<glyph unicode="&#xcd;" horiz-adv-x="847" d="M44 109q0 52 20 77t47 40.5t47 36.5t20 64v730q0 43 -20 64t-47 36.5t-47 40.5t-20 77q0 57 33 83t87 26h520q54 0 87 -26t33 -83q0 -52 -20 -77t-47 -40.5t-47 -36.5t-20 -64v-730q0 -43 20 -63.5t47 -36t47 -40.5t20 -78q0 -57 -33 -83t-87 -26h-520q-54 0 -87 26 t-33 83zM180 1529q0 28 21 69t47.5 81t41.5 64q25 40 52.5 79.5t65 66.5t90.5 27q74 0 127 -48.5t53 -123.5q0 -70 -37.5 -113.5t-93 -70.5t-111.5 -47q-34 -12 -88.5 -30.5t-89.5 -18.5q-29 0 -53.5 16t-24.5 49z" />
<glyph unicode="&#xce;" horiz-adv-x="847" d="M44 109q0 52 20 77t47 40.5t47 36.5t20 64v730q0 43 -20 64t-47 36.5t-47 40.5t-20 77q0 57 33 83t87 26h520q54 0 87 -26t33 -83q0 -52 -20 -77t-47 -40.5t-47 -36.5t-20 -64v-730q0 -43 20 -63.5t47 -36t47 -40.5t20 -78q0 -57 -33 -83t-87 -26h-520q-54 0 -87 26 t-33 83zM53 1548q0 20 9.5 39t22.5 33l162 174q38 41 78 75t100 34q62 0 100.5 -33.5t77.5 -75.5l162 -174q14 -14 23 -33t9 -39q0 -33 -23 -53.5t-55 -20.5q-23 0 -44.5 8t-41.5 20l-208 128l-208 -128q-19 -12 -40.5 -20t-44.5 -8q-32 0 -55.5 20t-23.5 54z" />
<glyph unicode="&#xcf;" horiz-adv-x="847" d="M-47 1642q0 96 60.5 143t150.5 47q91 0 150.5 -47t59.5 -143t-60 -142.5t-150 -46.5q-91 0 -151 46t-60 143zM44 109q0 52 20 77t47 40.5t47 36.5t20 64v730q0 43 -20 64t-47 36.5t-47 40.5t-20 77q0 57 33 83t87 26h520q54 0 87 -26t33 -83q0 -52 -20 -77t-47 -40.5 t-47 -36.5t-20 -64v-730q0 -43 20 -63.5t47 -36t47 -40.5t20 -78q0 -57 -33 -83t-87 -26h-520q-54 0 -87 26t-33 83zM471 1642q0 96 60.5 143t150.5 47q92 0 152.5 -46t60.5 -144q0 -97 -61 -143t-152 -46t-151 46t-60 143z" />
<glyph unicode="&#xd0;" horiz-adv-x="1643" d="M50 693q0 30 19.5 53t50.5 23h102v288q0 45 -21 65.5t-49 35t-49 39.5t-21 78q0 56 33.5 82.5t86.5 26.5h596q225 0 403 -90.5t281 -257.5t103 -398q0 -199 -93 -342t-250 -219.5t-348 -76.5h-692q-54 0 -87 26t-33 83q0 54 21 78.5t49 39t49 35t21 65.5v289h-104 q-34 0 -51 23t-17 54zM714 379q0 -70 30 -113.5t106 -42.5h-6q74 0 120.5 45t71.5 114t34.5 141.5t9.5 126.5q0 77 -14 165t-49.5 167t-98 129t-160.5 50h-44v-392h102q32 0 52 -22t20 -54t-19 -54.5t-53 -22.5h-102v-237z" />
<glyph unicode="&#xd1;" horiz-adv-x="1700" d="M53 1286q0 47 32.5 72.5t76.5 25.5h312q44 0 69.5 -5.5t46.5 -21.5t49 -49l619 -710v451q0 49 -24 71t-55.5 37t-55.5 39.5t-24 78.5q0 58 34 83.5t88 25.5h300q53 0 87.5 -26t34.5 -83q0 -61 -29.5 -83t-75.5 -50q-33 -19 -44 -36.5t-11 -56.5v-581q0 -47 7.5 -95.5 t32.5 -89.5q24 -39 52.5 -82.5t28.5 -91.5q0 -49 -29.5 -79t-78.5 -30h-340q-42 0 -67.5 19.5t-25.5 64.5q0 29 -29 63.5t-47 55.5l-513 594v-461q0 -40 10.5 -57t44.5 -37q45 -28 74.5 -50.5t29.5 -82.5q0 -58 -34 -83.5t-88 -25.5h-300q-54 0 -88 25.5t-34 83.5 q0 53 24 78t56 40.5t56 38t24 70.5v600q0 69 -18 102t-66 79q-32 32 -72 76t-40 93zM493 1562q0 61 19.5 122.5t62.5 102.5t115 41q57 0 106.5 -25t94 -50t87.5 -25q36 0 51.5 17.5t25 40.5t25.5 40.5t53 17.5q49 0 62 -35t13 -74q0 -61 -19 -123t-62 -103.5t-116 -41.5 q-56 0 -106 25t-94.5 50t-87.5 25q-34 0 -49.5 -17.5t-26 -40.5t-27 -40.5t-52.5 -17.5q-49 0 -62 36t-13 75z" />
<glyph unicode="&#xd2;" horiz-adv-x="1594" d="M70 702q0 214 93.5 377t257.5 254.5t377 91.5q214 0 377.5 -89.5t256 -251t92.5 -377.5q0 -219 -89 -387.5t-251.5 -264t-385.5 -95.5q-226 0 -389 92.5t-251 259.5t-88 390zM554 1744q0 75 53.5 123.5t126.5 48.5q54 0 91 -27t64.5 -66.5t52.5 -79.5q16 -24 42 -64 t47 -81t21 -69q0 -33 -24.5 -49t-53.5 -16q-34 0 -89 18.5t-89 30.5q-55 20 -111 47t-93.5 70.5t-37.5 113.5zM581 987q0 -124 20.5 -247.5t63.5 -240.5q12 -34 36.5 -88t58.5 -108t73.5 -91t81.5 -37q51 0 72.5 41t26 94t4.5 88q0 158 -31 307q-8 38 -26 101t-45.5 133 t-63 133t-78 102.5t-90.5 39.5q-51 0 -72.5 -42t-26 -95.5t-4.5 -89.5z" />
<glyph unicode="&#xd3;" horiz-adv-x="1594" d="M70 702q0 214 93.5 377t257.5 254.5t377 91.5q214 0 377.5 -89.5t256 -251t92.5 -377.5q0 -219 -89 -387.5t-251.5 -264t-385.5 -95.5q-226 0 -389 92.5t-251 259.5t-88 390zM554 1529q0 28 21 69t47.5 81t41.5 64q25 40 52.5 79.5t65 66.5t90.5 27q74 0 127 -48.5 t53 -123.5q0 -70 -37.5 -113.5t-93 -70.5t-111.5 -47q-34 -12 -88.5 -30.5t-89.5 -18.5q-29 0 -53.5 16t-24.5 49zM581 987q0 -124 20.5 -247.5t63.5 -240.5q12 -34 36.5 -88t58.5 -108t73.5 -91t81.5 -37q51 0 72.5 41t26 94t4.5 88q0 158 -31 307q-8 38 -26 101t-45.5 133 t-63 133t-78 102.5t-90.5 39.5q-51 0 -72.5 -42t-26 -95.5t-4.5 -89.5z" />
<glyph unicode="&#xd4;" horiz-adv-x="1594" d="M70 702q0 214 93.5 377t257.5 254.5t377 91.5q214 0 377.5 -89.5t256 -251t92.5 -377.5q0 -219 -89 -387.5t-251.5 -264t-385.5 -95.5q-226 0 -389 92.5t-251 259.5t-88 390zM427 1548q0 20 9.5 39t22.5 33l162 174q38 41 78 75t100 34q62 0 100.5 -33.5t77.5 -75.5 l162 -174q14 -14 23 -33t9 -39q0 -33 -23 -53.5t-55 -20.5q-23 0 -44.5 8t-41.5 20l-208 128l-208 -128q-19 -12 -40.5 -20t-44.5 -8q-32 0 -55.5 20t-23.5 54zM581 987q0 -124 20.5 -247.5t63.5 -240.5q12 -34 36.5 -88t58.5 -108t73.5 -91t81.5 -37q51 0 72.5 41t26 94 t4.5 88q0 158 -31 307q-8 38 -26 101t-45.5 133t-63 133t-78 102.5t-90.5 39.5q-51 0 -72.5 -42t-26 -95.5t-4.5 -89.5z" />
<glyph unicode="&#xd5;" horiz-adv-x="1594" d="M70 702q0 214 93.5 377t257.5 254.5t377 91.5q214 0 377.5 -89.5t256 -251t92.5 -377.5q0 -219 -89 -387.5t-251.5 -264t-385.5 -95.5q-226 0 -389 92.5t-251 259.5t-88 390zM441 1562q0 61 19.5 122.5t62.5 102.5t115 41q57 0 106.5 -25t94 -50t87.5 -25q36 0 51.5 17.5 t25 40.5t25.5 40.5t53 17.5q49 0 62 -35t13 -74q0 -61 -19 -123t-62 -103.5t-116 -41.5q-56 0 -106 25t-94.5 50t-87.5 25q-34 0 -49.5 -17.5t-26 -40.5t-27 -40.5t-52.5 -17.5q-49 0 -62 36t-13 75zM581 987q0 -124 20.5 -247.5t63.5 -240.5q12 -34 36.5 -88t58.5 -108 t73.5 -91t81.5 -37q51 0 72.5 41t26 94t4.5 88q0 158 -31 307q-8 38 -26 101t-45.5 133t-63 133t-78 102.5t-90.5 39.5q-51 0 -72.5 -42t-26 -95.5t-4.5 -89.5z" />
<glyph unicode="&#xd6;" horiz-adv-x="1594" d="M70 702q0 214 93.5 377t257.5 254.5t377 91.5q214 0 377.5 -89.5t256 -251t92.5 -377.5q0 -219 -89 -387.5t-251.5 -264t-385.5 -95.5q-226 0 -389 92.5t-251 259.5t-88 390zM327 1642q0 96 60.5 143t150.5 47q91 0 150.5 -47t59.5 -143t-60 -142.5t-150 -46.5 q-91 0 -151 46t-60 143zM581 987q0 -124 20.5 -247.5t63.5 -240.5q12 -34 36.5 -88t58.5 -108t73.5 -91t81.5 -37q51 0 72.5 41t26 94t4.5 88q0 158 -31 307q-8 38 -26 101t-45.5 133t-63 133t-78 102.5t-90.5 39.5q-51 0 -72.5 -42t-26 -95.5t-4.5 -89.5zM845 1642 q0 96 60.5 143t150.5 47q92 0 152.5 -46t60.5 -144q0 -97 -61 -143t-152 -46t-151 46t-60 143z" />
<glyph unicode="&#xd7;" d="M207 366q0 28 14 52.5t32 43.5l199 215l-203 219q-16 18 -27 40t-11 47q0 46 39 88t85 42q24 0 45 -12t37 -29l201 -216l202 218q16 17 36.5 28.5t44.5 11.5q29 0 60 -20.5t52 -51t21 -59.5q0 -25 -13 -46.5t-30 -39.5l-206 -222l212 -228q16 -16 26 -37t10 -44 q0 -48 -39 -87t-87 -39q-50 0 -86 39l-201 217l-198 -213q-17 -19 -41 -32.5t-50 -13.5q-45 0 -84.5 42.5t-39.5 86.5z" />
<glyph unicode="&#xd8;" horiz-adv-x="1593" d="M70 702q0 214 93 377t257.5 254.5t377.5 91.5q186 0 337 -70l75 121q16 27 49 27q25 0 46.5 -19t21.5 -45q0 -16 -10 -33l-71 -115q130 -94 203.5 -243.5t73.5 -340.5q0 -219 -88.5 -387.5t-251 -264t-385.5 -95.5q-186 0 -334 65l-82 -132q-17 -29 -47 -29q-25 0 -47 19 t-22 44q0 19 12 40l74 121q-135 95 -208.5 252.5t-73.5 361.5zM581 971q0 -206 63 -411l256 414q-41 93 -95.5 166.5t-120.5 73.5q-40 0 -61.5 -27.5t-30 -67.5t-10 -80.5t-1.5 -67.5zM702 411q24 -52 57.5 -106.5t73 -92t81.5 -37.5q40 0 61.5 26.5t30 66t10 79.5t1.5 67 q0 74 -8 146.5t-23 144.5q-4 20 -12 50t-19 66z" />
<glyph unicode="&#xd9;" horiz-adv-x="1679" d="M41 1273q0 53 31 82t83 29h652q52 0 83.5 -29t31.5 -82q0 -49 -19 -71t-50 -32.5t-66 -27.5q-33 -16 -42.5 -32.5t-11.5 -52.5l-22 -319q-4 -67 -8.5 -133.5t-4.5 -133.5q0 -139 74.5 -200t207.5 -61q72 0 138 20t108.5 68.5t42.5 131.5q0 47 -2.5 94t-6.5 93l-32 439 q-4 54 -22 67.5t-65 30.5q-50 19 -75.5 39.5t-25.5 79.5q0 53 31 82t83 29h384q52 0 83 -29t31 -82q0 -47 -20.5 -71t-50 -37t-59.5 -24t-50.5 -31.5t-20.5 -60.5v-6l44 -424q5 -51 7.5 -102.5t2.5 -102.5q0 -138 -66 -226.5t-171.5 -138.5t-226.5 -69.5t-231 -19.5 q-115 0 -224 22.5t-197 75.5t-140 143t-52 224q0 54 5.5 107.5t9.5 107.5l29 429v6q0 32 -20 46.5t-50 22.5t-60 19.5t-50 36.5t-20 73zM596 1744q0 75 53.5 123.5t126.5 48.5q54 0 91 -27t64.5 -66.5t52.5 -79.5q16 -24 42 -64t47 -81t21 -69q0 -33 -24.5 -49t-53.5 -16 q-34 0 -89 18.5t-89 30.5q-55 20 -111 47t-93.5 70.5t-37.5 113.5z" />
<glyph unicode="&#xda;" horiz-adv-x="1679" d="M41 1273q0 53 31 82t83 29h652q52 0 83.5 -29t31.5 -82q0 -49 -19 -71t-50 -32.5t-66 -27.5q-33 -16 -42.5 -32.5t-11.5 -52.5l-22 -319q-4 -67 -8.5 -133.5t-4.5 -133.5q0 -139 74.5 -200t207.5 -61q72 0 138 20t108.5 68.5t42.5 131.5q0 47 -2.5 94t-6.5 93l-32 439 q-4 54 -22 67.5t-65 30.5q-50 19 -75.5 39.5t-25.5 79.5q0 53 31 82t83 29h384q52 0 83 -29t31 -82q0 -47 -20.5 -71t-50 -37t-59.5 -24t-50.5 -31.5t-20.5 -60.5v-6l44 -424q5 -51 7.5 -102.5t2.5 -102.5q0 -138 -66 -226.5t-171.5 -138.5t-226.5 -69.5t-231 -19.5 q-115 0 -224 22.5t-197 75.5t-140 143t-52 224q0 54 5.5 107.5t9.5 107.5l29 429v6q0 32 -20 46.5t-50 22.5t-60 19.5t-50 36.5t-20 73zM596 1529q0 28 21 69t47.5 81t41.5 64q25 40 52.5 79.5t65 66.5t90.5 27q74 0 127 -48.5t53 -123.5q0 -70 -37.5 -113.5t-93 -70.5 t-111.5 -47q-34 -12 -88.5 -30.5t-89.5 -18.5q-29 0 -53.5 16t-24.5 49z" />
<glyph unicode="&#xdb;" horiz-adv-x="1679" d="M41 1273q0 53 31 82t83 29h652q52 0 83.5 -29t31.5 -82q0 -49 -19 -71t-50 -32.5t-66 -27.5q-33 -16 -42.5 -32.5t-11.5 -52.5l-22 -319q-4 -67 -8.5 -133.5t-4.5 -133.5q0 -139 74.5 -200t207.5 -61q72 0 138 20t108.5 68.5t42.5 131.5q0 47 -2.5 94t-6.5 93l-32 439 q-4 54 -22 67.5t-65 30.5q-50 19 -75.5 39.5t-25.5 79.5q0 53 31 82t83 29h384q52 0 83 -29t31 -82q0 -47 -20.5 -71t-50 -37t-59.5 -24t-50.5 -31.5t-20.5 -60.5v-6l44 -424q5 -51 7.5 -102.5t2.5 -102.5q0 -138 -66 -226.5t-171.5 -138.5t-226.5 -69.5t-231 -19.5 q-115 0 -224 22.5t-197 75.5t-140 143t-52 224q0 54 5.5 107.5t9.5 107.5l29 429v6q0 32 -20 46.5t-50 22.5t-60 19.5t-50 36.5t-20 73zM469 1548q0 20 9.5 39t22.5 33l162 174q38 41 78 75t100 34q62 0 100.5 -33.5t77.5 -75.5l162 -174q14 -14 23 -33t9 -39 q0 -33 -23 -53.5t-55 -20.5q-23 0 -44.5 8t-41.5 20l-208 128l-208 -128q-19 -12 -40.5 -20t-44.5 -8q-32 0 -55.5 20t-23.5 54z" />
<glyph unicode="&#xdc;" horiz-adv-x="1679" d="M41 1273q0 53 31 82t83 29h652q52 0 83.5 -29t31.5 -82q0 -49 -19 -71t-50 -32.5t-66 -27.5q-33 -16 -42.5 -32.5t-11.5 -52.5l-22 -319q-4 -67 -8.5 -133.5t-4.5 -133.5q0 -139 74.5 -200t207.5 -61q72 0 138 20t108.5 68.5t42.5 131.5q0 47 -2.5 94t-6.5 93l-32 439 q-4 54 -22 67.5t-65 30.5q-50 19 -75.5 39.5t-25.5 79.5q0 53 31 82t83 29h384q52 0 83 -29t31 -82q0 -47 -20.5 -71t-50 -37t-59.5 -24t-50.5 -31.5t-20.5 -60.5v-6l44 -424q5 -51 7.5 -102.5t2.5 -102.5q0 -138 -66 -226.5t-171.5 -138.5t-226.5 -69.5t-231 -19.5 q-115 0 -224 22.5t-197 75.5t-140 143t-52 224q0 54 5.5 107.5t9.5 107.5l29 429v6q0 32 -20 46.5t-50 22.5t-60 19.5t-50 36.5t-20 73zM369 1642q0 96 60.5 143t150.5 47q91 0 150.5 -47t59.5 -143t-60 -142.5t-150 -46.5q-91 0 -151 46t-60 143zM887 1642q0 96 60.5 143 t150.5 47q92 0 152.5 -46t60.5 -144q0 -97 -61 -143t-152 -46t-151 46t-60 143z" />
<glyph unicode="&#xdd;" horiz-adv-x="1597" d="M35 1275q0 58 34.5 83.5t88.5 25.5h569q54 0 88 -25.5t34 -83.5q0 -50 -21.5 -75t-49 -38.5t-49 -27t-21.5 -40.5q0 -20 10.5 -42.5t20.5 -39.5l195 -335l213 371q7 12 13.5 26.5t6.5 28.5q0 23 -19.5 35.5t-44.5 26t-44.5 38.5t-19.5 72q0 58 34 83.5t88 25.5h279 q54 0 88 -25.5t34 -83.5q0 -46 -19 -67.5t-53 -47.5q-34 -27 -52.5 -50.5t-41.5 -61.5l-342 -575v-146q0 -42 24.5 -62t57 -35t57 -41t24.5 -80q0 -58 -34 -83.5t-88 -25.5h-575q-53 0 -87.5 26t-34.5 83q0 52 25 78t57 41.5t57 36t25 62.5v133l-349 578q-23 39 -34.5 62 t-52.5 50q-43 29 -67 48t-24 77zM555 1529q0 28 21 69t47.5 81t41.5 64q25 40 52.5 79.5t65 66.5t90.5 27q74 0 127 -48.5t53 -123.5q0 -70 -37.5 -113.5t-93 -70.5t-111.5 -47q-34 -12 -88.5 -30.5t-89.5 -18.5q-29 0 -53.5 16t-24.5 49z" />
<glyph unicode="&#xde;" horiz-adv-x="1401" d="M15 109q0 53 20 77.5t45.5 39t45.5 35t20 66.5v730q0 46 -20 67t-45.5 35.5t-45.5 38.5t-20 77q0 57 32.5 83t86.5 26h514q50 0 85 -21t35 -77q0 -42 -22 -70t-50 -52.5t-44 -54.5h204q99 0 197.5 -23t180 -73.5t130.5 -131t49 -195.5q0 -121 -59 -197t-153 -117.5 t-200.5 -57t-201.5 -15.5q-49 0 -87.5 3t-72.5 10q7 -44 38.5 -73t61 -60t29.5 -81q0 -55 -35 -76.5t-85 -21.5h-514q-54 0 -86.5 26t-32.5 83zM638 477q24 -3 55 -3q57 0 87.5 30.5t42 77t11.5 93.5q0 64 -17 120t-58.5 91t-115.5 35h-5v-444z" />
<glyph unicode="&#xdf;" horiz-adv-x="1322" d="M52 883q0 59 44 74t90 15q12 0 24 -0.5t24 -0.5q4 226 59.5 348.5t170 169t298.5 46.5q66 0 137 -15.5t133 -54.5t100.5 -108t38.5 -176q0 -133 -68 -218t-172 -129q164 -27 250 -140t86 -306q0 -107 -38.5 -203t-115 -156t-190.5 -60q-36 0 -91.5 14t-99 47t-43.5 88 q0 50 17.5 67t43.5 18.5t51.5 6t43 28.5t17.5 87q0 77 -19 157t-62 141.5t-114 80.5v-563q0 -59 -27 -100t-92 -41h-364q-44 0 -73.5 23t-29.5 70q0 50 21.5 67.5t50 26.5t50 30.5t21.5 79.5v379q0 38 -12 55t-45 33q-40 20 -77.5 43t-37.5 76zM665.5 1080.5 q1.5 -66.5 1.5 -119.5v-93q57 24 82.5 75t32.5 110t7 109q0 76 -16 132t-59 56q-24 0 -34.5 -40t-13 -101.5t-1 -128z" />
<glyph unicode="&#xe0;" horiz-adv-x="1161" d="M40 230q0 92 43 153.5t112.5 99t150.5 53.5t156 16q22 0 45 -0.5t45 -4.5v260q0 25 -10.5 58t-42.5 33q-31 0 -38.5 -25.5t-7.5 -48.5q0 -10 0.5 -20.5t0.5 -21.5q0 -103 -71 -144.5t-162 -41.5q-76 0 -132 34t-56 120q0 34 13.5 66t34.5 57q61 74 153.5 113t195 53.5 t192.5 14.5q102 0 187 -29t136 -96.5t51 -181.5v-461q0 -17 8 -30t27 -13q15 0 25.5 9.5t25.5 9.5q29 0 43.5 -20t14.5 -47q0 -70 -42.5 -120.5t-105.5 -77t-127 -26.5q-75 0 -151.5 33t-105.5 103q-51 -71 -139.5 -103.5t-173.5 -32.5q-78 0 -145.5 29.5t-108.5 87.5 t-41 142zM341 1408q0 77 54.5 125.5t128.5 48.5q59 0 97 -29.5t64.5 -74t49.5 -89.5q14 -25 35.5 -66t39 -82.5t17.5 -69.5q0 -32 -22.5 -49.5t-52.5 -17.5q-36 0 -76 18t-72 32q-58 26 -119 55t-102.5 75.5t-41.5 123.5zM491 318q0 -40 19 -75.5t65 -35.5q9 0 17 2v207 q-17 7 -35 7q-38 0 -52 -37.5t-14 -67.5z" />
<glyph unicode="&#xe1;" horiz-adv-x="1161" d="M40 230q0 92 43 153.5t112.5 99t150.5 53.5t156 16q22 0 45 -0.5t45 -4.5v260q0 25 -10.5 58t-42.5 33q-31 0 -38.5 -25.5t-7.5 -48.5q0 -10 0.5 -20.5t0.5 -21.5q0 -103 -71 -144.5t-162 -41.5q-76 0 -132 34t-56 120q0 34 13.5 66t34.5 57q61 74 153.5 113t195 53.5 t192.5 14.5q102 0 187 -29t136 -96.5t51 -181.5v-461q0 -17 8 -30t27 -13q15 0 25.5 9.5t25.5 9.5q29 0 43.5 -20t14.5 -47q0 -70 -42.5 -120.5t-105.5 -77t-127 -26.5q-75 0 -151.5 33t-105.5 103q-51 -71 -139.5 -103.5t-173.5 -32.5q-78 0 -145.5 29.5t-108.5 87.5 t-41 142zM341 1171q0 26 17.5 68t39.5 83.5t35 66.5q24 45 50 89.5t64 74t97 29.5q74 0 129 -48.5t55 -125.5q0 -84 -59 -139.5t-130 -84.5l-166 -66q-14 -6 -27.5 -10t-29.5 -4q-30 0 -52.5 17.5t-22.5 49.5zM491 318q0 -40 19 -75.5t65 -35.5q9 0 17 2v207q-17 7 -35 7 q-38 0 -52 -37.5t-14 -67.5z" />
<glyph unicode="&#xe2;" horiz-adv-x="1161" d="M40 230q0 92 43 153.5t112.5 99t150.5 53.5t156 16q22 0 45 -0.5t45 -4.5v260q0 25 -10.5 58t-42.5 33q-31 0 -38.5 -25.5t-7.5 -48.5q0 -10 0.5 -20.5t0.5 -21.5q0 -103 -71 -144.5t-162 -41.5q-76 0 -132 34t-56 120q0 34 13.5 66t34.5 57q61 74 153.5 113t195 53.5 t192.5 14.5q102 0 187 -29t136 -96.5t51 -181.5v-461q0 -17 8 -30t27 -13q15 0 25.5 9.5t25.5 9.5q29 0 43.5 -20t14.5 -47q0 -70 -42.5 -120.5t-105.5 -77t-127 -26.5q-75 0 -151.5 33t-105.5 103q-51 -71 -139.5 -103.5t-173.5 -32.5q-78 0 -145.5 29.5t-108.5 87.5 t-41 142zM214 1177q0 42 30 77l162 190q39 46 76 78t102 32t102 -32t76 -78l162 -190q30 -35 30 -77q0 -34 -25.5 -54t-57.5 -20q-22 0 -42 9t-37 22l-208 161l-208 -161q-17 -13 -37 -22t-42 -9q-31 0 -57 20t-26 54zM491 318q0 -40 19 -75.5t65 -35.5q9 0 17 2v207 q-17 7 -35 7q-38 0 -52 -37.5t-14 -67.5z" />
<glyph unicode="&#xe3;" horiz-adv-x="1161" d="M40 230q0 92 43 153.5t112.5 99t150.5 53.5t156 16q22 0 45 -0.5t45 -4.5v260q0 25 -10.5 58t-42.5 33q-31 0 -38.5 -25.5t-7.5 -48.5q0 -10 0.5 -20.5t0.5 -21.5q0 -103 -71 -144.5t-162 -41.5q-76 0 -132 34t-56 120q0 34 13.5 66t34.5 57q61 74 153.5 113t195 53.5 t192.5 14.5q102 0 187 -29t136 -96.5t51 -181.5v-461q0 -17 8 -30t27 -13q15 0 25.5 9.5t25.5 9.5q29 0 43.5 -20t14.5 -47q0 -70 -42.5 -120.5t-105.5 -77t-127 -26.5q-75 0 -151.5 33t-105.5 103q-51 -71 -139.5 -103.5t-173.5 -32.5q-78 0 -145.5 29.5t-108.5 87.5 t-41 142zM227 1213q0 62 18.5 126t61.5 107.5t117 43.5q61 0 112.5 -30.5t95 -61t80.5 -30.5q36 0 50.5 19t22.5 44.5t25 44.5t57 19q49 0 62 -35.5t13 -74.5q0 -61 -18.5 -125.5t-61.5 -108.5t-117 -44q-61 0 -112.5 30.5t-94.5 61t-81 30.5q-34 0 -48.5 -19t-24.5 -44.5 t-27 -44.5t-55 -19q-49 0 -62 36t-13 75zM491 318q0 -40 19 -75.5t65 -35.5q9 0 17 2v207q-17 7 -35 7q-38 0 -52 -37.5t-14 -67.5z" />
<glyph unicode="&#xe4;" horiz-adv-x="1161" d="M40 230q0 92 43 153.5t112.5 99t150.5 53.5t156 16q22 0 45 -0.5t45 -4.5v260q0 25 -10.5 58t-42.5 33q-31 0 -38.5 -25.5t-7.5 -48.5q0 -10 0.5 -20.5t0.5 -21.5q0 -103 -71 -144.5t-162 -41.5q-76 0 -132 34t-56 120q0 34 13.5 66t34.5 57q61 74 153.5 113t195 53.5 t192.5 14.5q102 0 187 -29t136 -96.5t51 -181.5v-461q0 -17 8 -30t27 -13q15 0 25.5 9.5t25.5 9.5q29 0 43.5 -20t14.5 -47q0 -70 -42.5 -120.5t-105.5 -77t-127 -26.5q-75 0 -151.5 33t-105.5 103q-51 -71 -139.5 -103.5t-173.5 -32.5q-78 0 -145.5 29.5t-108.5 87.5 t-41 142zM113 1282q0 96 60.5 143t150.5 47q91 0 150.5 -47t59.5 -143t-60 -142.5t-150 -46.5q-91 0 -151 46t-60 143zM491 318q0 -40 19 -75.5t65 -35.5q9 0 17 2v207q-17 7 -35 7q-38 0 -52 -37.5t-14 -67.5zM631 1282q0 96 60.5 143t150.5 47q92 0 152.5 -46t60.5 -144 q0 -97 -61 -143t-152 -46t-151 46t-60 143z" />
<glyph unicode="&#xe5;" horiz-adv-x="1161" d="M40 230q0 92 43 153.5t112.5 99t150.5 53.5t156 16q22 0 45 -0.5t45 -4.5v260q0 25 -10.5 58t-42.5 33q-31 0 -38.5 -25.5t-7.5 -48.5q0 -10 0.5 -20.5t0.5 -21.5q0 -103 -71 -144.5t-162 -41.5q-76 0 -132 34t-56 120q0 34 13.5 66t34.5 57q61 74 153.5 113t195 53.5 t192.5 14.5q102 0 187 -29t136 -96.5t51 -181.5v-461q0 -17 8 -30t27 -13q15 0 25.5 9.5t25.5 9.5q29 0 43.5 -20t14.5 -47q0 -70 -42.5 -120.5t-105.5 -77t-127 -26.5q-75 0 -151.5 33t-105.5 103q-51 -71 -139.5 -103.5t-173.5 -32.5q-78 0 -145.5 29.5t-108.5 87.5 t-41 142zM305 1313q0 78 41.5 125.5t106 68.5t131.5 21q68 0 132 -21t106 -68.5t42 -125.5t-42 -125.5t-106 -69.5t-132 -22t-132 21.5t-105.5 69.5t-41.5 126zM490 1313q0 -42 28.5 -64t67.5 -22t66 23t27 63q0 41 -26.5 63.5t-66.5 22.5q-39 0 -67.5 -22t-28.5 -64z M491 318q0 -40 19 -75.5t65 -35.5q9 0 17 2v207q-17 7 -35 7q-38 0 -52 -37.5t-14 -67.5z" />
<glyph unicode="&#xe6;" horiz-adv-x="1637" d="M29 240q0 90 44 150.5t114 96t150.5 51t153.5 15.5q20 0 43.5 -1t47.5 -5v260q0 25 -10.5 58t-43.5 33q-28 0 -37 -21.5t-8.5 -49t0.5 -45.5q0 -103 -70.5 -144.5t-162.5 -41.5q-78 0 -133 34t-55 120q0 34 12 65t31 58q49 69 126 108.5t164 56t166 16.5 q88 0 162.5 -26.5t142.5 -77.5q65 52 135.5 79t156.5 27q119 0 224 -45t170.5 -133t65.5 -217q0 -89 -52 -135t-139 -46h-408q24 -86 83.5 -144.5t170.5 -58.5q75 0 129.5 31t92 62t62.5 31q29 0 42.5 -20.5t13.5 -46.5q0 -92 -43 -160.5t-113 -113.5t-153 -67t-163 -22 q-123 0 -228.5 31t-180.5 96q-41 -48 -106 -75.5t-134.5 -39.5t-125.5 -12q-88 0 -165 26t-124.5 85t-47.5 158zM480 318q0 -40 17.5 -86t68.5 -46q39 0 70 32q-45 86 -53 198q-17 8 -37 8q-38 0 -52 -38t-14 -68zM1001 612h109q37 0 51.5 17.5t14.5 53.5q0 24 -6 63 t-23.5 70t-52.5 31q-31 0 -50 -25t-28 -61t-12 -71t-3 -56v-22z" />
<glyph unicode="&#xe7;" horiz-adv-x="1078" d="M39 484q0 165 67 294t190.5 203.5t291.5 74.5q75 0 152 -18.5t142 -58t105 -102t40 -149.5q0 -94 -68 -143t-154 -49q-88 0 -141 48t-53 138q0 41 -10.5 83t-65.5 42q-42 0 -64 -41t-29.5 -92t-7.5 -82q0 -86 28 -164t89 -126.5t158 -48.5q57 0 113 27.5t99 54.5t60 27 q31 0 41 -24.5t10 -48.5q0 -90 -42.5 -157t-112 -111.5t-151 -67t-159.5 -22.5q-150 0 -269.5 64.5t-189 180.5t-69.5 268zM266 -344q0 29 17 51t48 22q39 0 77.5 -23.5t84.5 -23.5q23 0 41 10.5t18 36.5q0 30 -23 36t-46 6q-22 0 -53.5 3t-31.5 35q0 17 18 60t39 87t30 63 h136l-56 -126h25q55 0 107 -14.5t86.5 -50.5t34.5 -101q0 -77 -47.5 -118t-115.5 -56.5t-129 -15.5q-27 0 -70 5t-86.5 18t-73.5 36.5t-30 59.5z" />
<glyph unicode="&#xe8;" horiz-adv-x="1086" d="M40 495q0 170 65.5 296t188.5 195.5t295 69.5q119 0 223.5 -45t169.5 -133t65 -217q0 -89 -52.5 -135t-138.5 -46h-403q23 -86 82 -144.5t170 -58.5q44 0 87.5 18.5t82 43.5t67.5 43.5t44 18.5q29 0 42 -20.5t13 -46.5q0 -91 -42.5 -159.5t-112 -113.5t-152 -67.5 t-162.5 -22.5q-157 0 -277 65t-187.5 182.5t-67.5 276.5zM301 1408q0 77 54.5 125.5t128.5 48.5q59 0 97 -29.5t64.5 -74t49.5 -89.5q14 -25 35.5 -66t39 -82.5t17.5 -69.5q0 -32 -22.5 -49.5t-52.5 -17.5q-36 0 -76 18t-72 32q-58 26 -119 55t-102.5 75.5t-41.5 123.5z M435 612h104q38 0 52 17.5t14 53.5q0 24 -6 63t-23.5 70t-50.5 31q-30 0 -48 -24.5t-27 -61t-12 -71.5t-3 -56v-22z" />
<glyph unicode="&#xe9;" horiz-adv-x="1086" d="M40 495q0 170 65.5 296t188.5 195.5t295 69.5q119 0 223.5 -45t169.5 -133t65 -217q0 -89 -52.5 -135t-138.5 -46h-403q23 -86 82 -144.5t170 -58.5q44 0 87.5 18.5t82 43.5t67.5 43.5t44 18.5q29 0 42 -20.5t13 -46.5q0 -91 -42.5 -159.5t-112 -113.5t-152 -67.5 t-162.5 -22.5q-157 0 -277 65t-187.5 182.5t-67.5 276.5zM301 1171q0 26 17.5 68t39.5 83.5t35 66.5q24 45 50 89.5t64 74t97 29.5q74 0 129 -48.5t55 -125.5q0 -84 -59 -139.5t-130 -84.5l-166 -66q-14 -6 -27.5 -10t-29.5 -4q-30 0 -52.5 17.5t-22.5 49.5zM435 612h104 q38 0 52 17.5t14 53.5q0 24 -6 63t-23.5 70t-50.5 31q-30 0 -48 -24.5t-27 -61t-12 -71.5t-3 -56v-22z" />
<glyph unicode="&#xea;" horiz-adv-x="1086" d="M40 495q0 170 65.5 296t188.5 195.5t295 69.5q119 0 223.5 -45t169.5 -133t65 -217q0 -89 -52.5 -135t-138.5 -46h-403q23 -86 82 -144.5t170 -58.5q44 0 87.5 18.5t82 43.5t67.5 43.5t44 18.5q29 0 42 -20.5t13 -46.5q0 -91 -42.5 -159.5t-112 -113.5t-152 -67.5 t-162.5 -22.5q-157 0 -277 65t-187.5 182.5t-67.5 276.5zM174 1177q0 42 30 77l162 190q39 46 76 78t102 32t102 -32t76 -78l162 -190q30 -35 30 -77q0 -34 -25.5 -54t-57.5 -20q-22 0 -42 9t-37 22l-208 161l-208 -161q-17 -13 -37 -22t-42 -9q-31 0 -57 20t-26 54z M435 612h104q38 0 52 17.5t14 53.5q0 24 -6 63t-23.5 70t-50.5 31q-30 0 -48 -24.5t-27 -61t-12 -71.5t-3 -56v-22z" />
<glyph unicode="&#xeb;" horiz-adv-x="1086" d="M40 495q0 170 65.5 296t188.5 195.5t295 69.5q119 0 223.5 -45t169.5 -133t65 -217q0 -89 -52.5 -135t-138.5 -46h-403q23 -86 82 -144.5t170 -58.5q44 0 87.5 18.5t82 43.5t67.5 43.5t44 18.5q29 0 42 -20.5t13 -46.5q0 -91 -42.5 -159.5t-112 -113.5t-152 -67.5 t-162.5 -22.5q-157 0 -277 65t-187.5 182.5t-67.5 276.5zM73 1282q0 96 60.5 143t150.5 47q91 0 150.5 -47t59.5 -143t-60 -142.5t-150 -46.5q-91 0 -151 46t-60 143zM435 612h104q38 0 52 17.5t14 53.5q0 24 -6 63t-23.5 70t-50.5 31q-30 0 -48 -24.5t-27 -61t-12 -71.5 t-3 -56v-22zM591 1282q0 96 60.5 143t150.5 47q92 0 152.5 -46t60.5 -144q0 -97 -61 -143t-152 -46t-151 46t-60 143z" />
<glyph unicode="&#xec;" horiz-adv-x="730" d="M53 832q0 40 25 62t59 35l216 87q38 15 79 27.5t82 12.5t63.5 -28t22.5 -67v-660q0 -28 2.5 -56.5t22.5 -49.5q26 -28 43.5 -44t17.5 -60t-27.5 -67.5t-70.5 -23.5h-425q-43 0 -70.5 23t-27.5 68q0 43 17 60.5t44 43.5q20 20 22.5 50t2.5 56v349q0 20 -3 41.5t-17 36.5 q-4 5 -9.5 8t-9.5 7q-22 23 -40.5 37.5t-18.5 51.5zM135 1408q0 77 54.5 125.5t128.5 48.5q59 0 97 -29.5t64.5 -74t49.5 -89.5q14 -25 35.5 -66t39 -82.5t17.5 -69.5q0 -32 -22.5 -49.5t-52.5 -17.5q-36 0 -76 18t-72 32q-58 26 -119 55t-102.5 75.5t-41.5 123.5z" />
<glyph unicode="&#xed;" horiz-adv-x="730" d="M53 832q0 40 25 62t59 35l216 87q38 15 79 27.5t82 12.5t63.5 -28t22.5 -67v-660q0 -28 2.5 -56.5t22.5 -49.5q26 -28 43.5 -44t17.5 -60t-27.5 -67.5t-70.5 -23.5h-425q-43 0 -70.5 23t-27.5 68q0 43 17 60.5t44 43.5q20 20 22.5 50t2.5 56v349q0 20 -3 41.5t-17 36.5 q-4 5 -9.5 8t-9.5 7q-22 23 -40.5 37.5t-18.5 51.5zM135 1171q0 26 17.5 68t39.5 83.5t35 66.5q24 45 50 89.5t64 74t97 29.5q74 0 129 -48.5t55 -125.5q0 -84 -59 -139.5t-130 -84.5l-166 -66q-14 -6 -27.5 -10t-29.5 -4q-30 0 -52.5 17.5t-22.5 49.5z" />
<glyph unicode="&#xee;" horiz-adv-x="730" d="M-49 1189q0 43 31 76l202 206q10 10 17 20q30 39 72 64t92 25q57 0 86.5 -21.5t66.5 -59.5l229 -234q31 -33 31 -75q0 -35 -26 -54.5t-58 -19.5q-22 0 -42.5 9t-37.5 22l-249 179l-250 -179q-18 -13 -38 -22t-43 -9q-32 0 -57.5 19.5t-25.5 53.5zM53 832q0 40 25 62 t59 35l216 87q38 15 79 27.5t82 12.5t63.5 -28t22.5 -67v-660q0 -28 2.5 -56.5t22.5 -49.5q26 -28 43.5 -44t17.5 -60t-27.5 -67.5t-70.5 -23.5h-425q-43 0 -70.5 23t-27.5 68q0 43 17 60.5t44 43.5q20 20 22.5 50t2.5 56v349q0 20 -3 41.5t-17 36.5q-4 5 -9.5 8t-9.5 7 q-22 23 -40.5 37.5t-18.5 51.5z" />
<glyph unicode="&#xef;" horiz-adv-x="730" d="M-89 1276q0 95 58.5 142.5t148.5 47.5q91 0 149 -47.5t58 -142.5t-58.5 -142t-148.5 -47t-148.5 47t-58.5 142zM53 832q0 40 25 62t59 35l216 87q38 15 79 27.5t82 12.5t63.5 -28t22.5 -67v-660q0 -28 2.5 -56.5t22.5 -49.5q26 -28 43.5 -44t17.5 -60t-27.5 -67.5 t-70.5 -23.5h-425q-43 0 -70.5 23t-27.5 68q0 43 17 60.5t44 43.5q20 20 22.5 50t2.5 56v349q0 20 -3 41.5t-17 36.5q-4 5 -9.5 8t-9.5 7q-22 23 -40.5 37.5t-18.5 51.5zM403 1276q0 95 58 142.5t149 47.5q92 0 150.5 -46.5t58.5 -143.5q0 -96 -59 -142.5t-150 -46.5 t-149 46.5t-58 142.5z" />
<glyph unicode="&#xf0;" horiz-adv-x="1233" d="M55 556q0 126 52.5 241.5t150.5 188.5t234 73q126 0 200 -68q-20 69 -49.5 137.5t-67.5 128.5l-236 -117q-20 -9 -35 -9q-31 0 -49.5 26t-18.5 54q0 23 12.5 36.5t31.5 23.5l202 100q-35 34 -72 56q-33 20 -67.5 41.5t-34.5 67.5q0 44 37.5 59.5t72.5 15.5h17t17 -2 q79 -12 152 -39.5t138 -69.5l185 92q20 11 44 11q30 0 48.5 -24t18.5 -53q0 -25 -15.5 -40t-35.5 -25l-120 -59q103 -97 175.5 -222t111 -263.5t38.5 -275.5q0 -185 -60 -338t-186.5 -244t-328.5 -91q-179 0 -304.5 74.5t-191.5 207t-66 306.5zM521 666q0 -83 13 -160 q3 -21 15 -71.5t31.5 -106.5t45.5 -95.5t57 -39.5q26 0 39.5 26.5t18.5 64t5 71.5v50q0 43 -3 85.5t-11 84.5q-4 24 -16 67.5t-31.5 88.5t-46 76.5t-59.5 31.5q-29 0 -41.5 -35.5t-14.5 -77.5t-2 -60z" />
<glyph unicode="&#xf1;" horiz-adv-x="1374" d="M53 832q0 39 26 61.5t58 35.5l216 87q38 16 77.5 28t81.5 12q41 0 62.5 -28.5t21.5 -66.5v-92q79 73 174 130t188 57q97 0 161 -48t96.5 -125t32.5 -166v-416q0 -28 2.5 -55t21.5 -51q23 -29 40.5 -45t17.5 -59q0 -44 -27 -67.5t-70 -23.5h-418q-42 0 -64.5 25t-22.5 66 q0 38 17.5 59.5t35 45t17.5 66.5v347q0 47 -18.5 92t-76.5 45q-35 0 -60 -13.5t-47 -34.5v-409q0 -27 2 -54.5t20 -50.5q21 -25 35 -40.5t14 -52.5q0 -41 -22.5 -66t-64.5 -25h-418q-43 0 -70 23.5t-27 67.5q0 33 12.5 51.5t28.5 34.5t28.5 39t12.5 63v371q0 45 -14 68 t-33 36.5t-33 29.5t-14 48zM331 1213q0 62 18.5 126t61.5 107.5t117 43.5q61 0 112.5 -30.5t95 -61t80.5 -30.5q36 0 50.5 19t22.5 44.5t25 44.5t57 19q49 0 62 -35.5t13 -74.5q0 -61 -18.5 -125.5t-61.5 -108.5t-117 -44q-61 0 -112.5 30.5t-94.5 61t-81 30.5 q-34 0 -48.5 -19t-24.5 -44.5t-27 -44.5t-55 -19q-49 0 -62 36t-13 75z" />
<glyph unicode="&#xf2;" horiz-adv-x="1233" d="M54 523q0 162 78 282t208 185.5t286 65.5q165 0 289.5 -68t194.5 -191t70 -289q0 -163 -77 -283.5t-206.5 -187t-287.5 -66.5q-166 0 -291 68.5t-194.5 193t-69.5 290.5zM375 1408q0 77 54.5 125.5t128.5 48.5q59 0 97 -29.5t64.5 -74t49.5 -89.5q14 -25 35.5 -66 t39 -82.5t17.5 -69.5q0 -32 -22.5 -49.5t-52.5 -17.5q-36 0 -76 18t-72 32q-58 26 -119 55t-102.5 75.5t-41.5 123.5zM505 707q0 -27 8 -86.5t23.5 -132.5t37.5 -140.5t49.5 -111.5t59.5 -44q25 0 35.5 26t13.5 57.5t3 48.5q0 57 -9 113.5t-23 111.5q-5 22 -19 68.5 t-34 97.5t-44 87t-51 36q-23 0 -33.5 -26t-13.5 -57.5t-3 -47.5z" />
<glyph unicode="&#xf3;" horiz-adv-x="1233" d="M54 523q0 162 78 282t208 185.5t286 65.5q165 0 289.5 -68t194.5 -191t70 -289q0 -163 -77 -283.5t-206.5 -187t-287.5 -66.5q-166 0 -291 68.5t-194.5 193t-69.5 290.5zM375 1171q0 26 17.5 68t39.5 83.5t35 66.5q24 45 50 89.5t64 74t97 29.5q74 0 129 -48.5t55 -125.5 q0 -84 -59 -139.5t-130 -84.5l-166 -66q-14 -6 -27.5 -10t-29.5 -4q-30 0 -52.5 17.5t-22.5 49.5zM505 707q0 -27 8 -86.5t23.5 -132.5t37.5 -140.5t49.5 -111.5t59.5 -44q25 0 35.5 26t13.5 57.5t3 48.5q0 57 -9 113.5t-23 111.5q-5 22 -19 68.5t-34 97.5t-44 87t-51 36 q-23 0 -33.5 -26t-13.5 -57.5t-3 -47.5z" />
<glyph unicode="&#xf4;" horiz-adv-x="1233" d="M54 523q0 162 78 282t208 185.5t286 65.5q165 0 289.5 -68t194.5 -191t70 -289q0 -163 -77 -283.5t-206.5 -187t-287.5 -66.5q-166 0 -291 68.5t-194.5 193t-69.5 290.5zM248 1177q0 42 30 77l162 190q39 46 76 78t102 32t102 -32t76 -78l162 -190q30 -35 30 -77 q0 -34 -25.5 -54t-57.5 -20q-22 0 -42 9t-37 22l-208 161l-208 -161q-17 -13 -37 -22t-42 -9q-31 0 -57 20t-26 54zM505 707q0 -27 8 -86.5t23.5 -132.5t37.5 -140.5t49.5 -111.5t59.5 -44q25 0 35.5 26t13.5 57.5t3 48.5q0 57 -9 113.5t-23 111.5q-5 22 -19 68.5t-34 97.5 t-44 87t-51 36q-23 0 -33.5 -26t-13.5 -57.5t-3 -47.5z" />
<glyph unicode="&#xf5;" horiz-adv-x="1233" d="M54 523q0 162 78 282t208 185.5t286 65.5q165 0 289.5 -68t194.5 -191t70 -289q0 -163 -77 -283.5t-206.5 -187t-287.5 -66.5q-166 0 -291 68.5t-194.5 193t-69.5 290.5zM261 1213q0 62 18.5 126t61.5 107.5t117 43.5q61 0 112.5 -30.5t95 -61t80.5 -30.5q36 0 50.5 19 t22.5 44.5t25 44.5t57 19q49 0 62 -35.5t13 -74.5q0 -61 -18.5 -125.5t-61.5 -108.5t-117 -44q-61 0 -112.5 30.5t-94.5 61t-81 30.5q-34 0 -48.5 -19t-24.5 -44.5t-27 -44.5t-55 -19q-49 0 -62 36t-13 75zM505 707q0 -27 8 -86.5t23.5 -132.5t37.5 -140.5t49.5 -111.5 t59.5 -44q25 0 35.5 26t13.5 57.5t3 48.5q0 57 -9 113.5t-23 111.5q-5 22 -19 68.5t-34 97.5t-44 87t-51 36q-23 0 -33.5 -26t-13.5 -57.5t-3 -47.5z" />
<glyph unicode="&#xf6;" horiz-adv-x="1233" d="M54 523q0 162 78 282t208 185.5t286 65.5q165 0 289.5 -68t194.5 -191t70 -289q0 -163 -77 -283.5t-206.5 -187t-287.5 -66.5q-166 0 -291 68.5t-194.5 193t-69.5 290.5zM147 1282q0 96 60.5 143t150.5 47q91 0 150.5 -47t59.5 -143t-60 -142.5t-150 -46.5q-91 0 -151 46 t-60 143zM505 707q0 -27 8 -86.5t23.5 -132.5t37.5 -140.5t49.5 -111.5t59.5 -44q25 0 35.5 26t13.5 57.5t3 48.5q0 57 -9 113.5t-23 111.5q-5 22 -19 68.5t-34 97.5t-44 87t-51 36q-23 0 -33.5 -26t-13.5 -57.5t-3 -47.5zM665 1282q0 96 60.5 143t150.5 47q92 0 152.5 -46 t60.5 -144q0 -97 -61 -143t-152 -46t-151 46t-60 143z" />
<glyph unicode="&#xf7;" d="M116 674q0 44 23.5 85.5t74.5 41.5h803q51 0 73.5 -41.5t22.5 -85.5q0 -43 -23 -82t-73 -39h-804q-49 0 -73 39t-24 82zM427 228q0 79 53.5 137t133.5 58q81 0 135 -57.5t54 -137.5q0 -79 -54 -138t-135 -59q-80 0 -133.5 59.5t-53.5 137.5zM427 1132q0 79 53.5 137 t133.5 58q81 0 135 -57.5t54 -137.5q0 -79 -54 -138.5t-135 -59.5q-80 0 -133.5 60t-53.5 138z" />
<glyph unicode="&#xf8;" horiz-adv-x="1233" d="M54 523q0 162 78 282t208 185.5t286 65.5q87 0 164 -20l58 112q18 35 52 35q26 0 48.5 -19t22.5 -46q0 -12 -7 -26l-53 -102q125 -66 197 -190.5t72 -291.5q0 -163 -77 -283.5t-206.5 -187t-287.5 -66.5q-88 0 -166 20l-51 -97q-8 -15 -21 -26.5t-31 -11.5 q-27 0 -48.5 18.5t-21.5 45.5q0 16 8 32l45 85q-126 67 -197.5 192.5t-71.5 293.5zM505 707q0 -57 9.5 -114t22.5 -113q3 -15 8 -31l109 256q-20 51 -45.5 92t-53.5 41q-23 0 -34 -26.5t-13.5 -58t-2.5 -46.5zM586 319q19 -50 44 -88.5t53 -38.5q25 0 35.5 26.5t13.5 58.5 t3 47q0 57 -9 113.5t-23 111.5q-1 5 -3 12.5t-5 17.5z" />
<glyph unicode="&#xf9;" horiz-adv-x="1388" d="M30 832q0 39 25.5 61.5t58.5 35.5l220 87q39 16 78.5 28t82.5 12q41 0 63 -28.5t22 -66.5v-543q0 -28 6.5 -60t25.5 -54.5t55 -22.5q37 0 65 16.5t51 40.5v312q0 38 -6.5 55.5t-37.5 41.5q-23 18 -40 35t-17 50q0 39 25.5 61.5t58.5 35.5l220 87q39 16 78.5 28t82.5 12 q41 0 63.5 -28t22.5 -67v-660q0 -28 2.5 -55.5t22.5 -50.5q25 -27 44 -45t19 -59q0 -45 -27 -68t-71 -23h-228q-76 0 -133.5 57t-57.5 132q-55 -53 -120 -103t-133.5 -82.5t-135.5 -32.5q-95 0 -158.5 48.5t-94.5 126.5t-31 164v340q0 37 -6 52.5t-34 40.5 q-22 20 -41.5 37.5t-19.5 51.5zM449 1408q0 77 54.5 125.5t128.5 48.5q59 0 97 -29.5t64.5 -74t49.5 -89.5q14 -25 35.5 -66t39 -82.5t17.5 -69.5q0 -32 -22.5 -49.5t-52.5 -17.5q-36 0 -76 18t-72 32q-58 26 -119 55t-102.5 75.5t-41.5 123.5z" />
<glyph unicode="&#xfa;" horiz-adv-x="1388" d="M30 832q0 39 25.5 61.5t58.5 35.5l220 87q39 16 78.5 28t82.5 12q41 0 63 -28.5t22 -66.5v-543q0 -28 6.5 -60t25.5 -54.5t55 -22.5q37 0 65 16.5t51 40.5v312q0 38 -6.5 55.5t-37.5 41.5q-23 18 -40 35t-17 50q0 39 25.5 61.5t58.5 35.5l220 87q39 16 78.5 28t82.5 12 q41 0 63.5 -28t22.5 -67v-660q0 -28 2.5 -55.5t22.5 -50.5q25 -27 44 -45t19 -59q0 -45 -27 -68t-71 -23h-228q-76 0 -133.5 57t-57.5 132q-55 -53 -120 -103t-133.5 -82.5t-135.5 -32.5q-95 0 -158.5 48.5t-94.5 126.5t-31 164v340q0 37 -6 52.5t-34 40.5 q-22 20 -41.5 37.5t-19.5 51.5zM449 1171q0 26 17.5 68t39.5 83.5t35 66.5q24 45 50 89.5t64 74t97 29.5q74 0 129 -48.5t55 -125.5q0 -84 -59 -139.5t-130 -84.5l-166 -66q-14 -6 -27.5 -10t-29.5 -4q-30 0 -52.5 17.5t-22.5 49.5z" />
<glyph unicode="&#xfb;" horiz-adv-x="1388" d="M30 832q0 39 25.5 61.5t58.5 35.5l220 87q39 16 78.5 28t82.5 12q41 0 63 -28.5t22 -66.5v-543q0 -28 6.5 -60t25.5 -54.5t55 -22.5q37 0 65 16.5t51 40.5v312q0 38 -6.5 55.5t-37.5 41.5q-23 18 -40 35t-17 50q0 39 25.5 61.5t58.5 35.5l220 87q39 16 78.5 28t82.5 12 q41 0 63.5 -28t22.5 -67v-660q0 -28 2.5 -55.5t22.5 -50.5q25 -27 44 -45t19 -59q0 -45 -27 -68t-71 -23h-228q-76 0 -133.5 57t-57.5 132q-55 -53 -120 -103t-133.5 -82.5t-135.5 -32.5q-95 0 -158.5 48.5t-94.5 126.5t-31 164v340q0 37 -6 52.5t-34 40.5 q-22 20 -41.5 37.5t-19.5 51.5zM322 1177q0 42 30 77l162 190q39 46 76 78t102 32t102 -32t76 -78l162 -190q30 -35 30 -77q0 -34 -25.5 -54t-57.5 -20q-22 0 -42 9t-37 22l-208 161l-208 -161q-17 -13 -37 -22t-42 -9q-31 0 -57 20t-26 54z" />
<glyph unicode="&#xfc;" horiz-adv-x="1388" d="M30 832q0 39 25.5 61.5t58.5 35.5l220 87q39 16 78.5 28t82.5 12q41 0 63 -28.5t22 -66.5v-543q0 -28 6.5 -60t25.5 -54.5t55 -22.5q37 0 65 16.5t51 40.5v312q0 38 -6.5 55.5t-37.5 41.5q-23 18 -40 35t-17 50q0 39 25.5 61.5t58.5 35.5l220 87q39 16 78.5 28t82.5 12 q41 0 63.5 -28t22.5 -67v-660q0 -28 2.5 -55.5t22.5 -50.5q25 -27 44 -45t19 -59q0 -45 -27 -68t-71 -23h-228q-76 0 -133.5 57t-57.5 132q-55 -53 -120 -103t-133.5 -82.5t-135.5 -32.5q-95 0 -158.5 48.5t-94.5 126.5t-31 164v340q0 37 -6 52.5t-34 40.5 q-22 20 -41.5 37.5t-19.5 51.5zM221 1282q0 96 60.5 143t150.5 47q91 0 150.5 -47t59.5 -143t-60 -142.5t-150 -46.5q-91 0 -151 46t-60 143zM739 1282q0 96 60.5 143t150.5 47q92 0 152.5 -46t60.5 -144q0 -97 -61 -143t-152 -46t-151 46t-60 143z" />
<glyph unicode="&#xfd;" horiz-adv-x="1268" d="M-3 934q0 45 28 67.5t71 22.5h535q43 0 71 -22t28 -67q0 -40 -18 -59t-41.5 -28.5t-41.5 -21t-18 -35.5q0 -28 9 -56t22 -54l136 -271l123 256q21 44 21 94q0 42 -20.5 58t-47 25t-47 27.5t-20.5 65.5q0 45 28.5 66.5t70.5 21.5h292q43 0 70.5 -22.5t27.5 -67.5 q0 -35 -13 -51.5t-37 -38.5q-43 -40 -65 -71.5t-47 -84.5l-272 -574q-37 -78 -78.5 -166.5t-95.5 -166t-129 -127t-179 -49.5q-96 0 -173.5 37t-123 108t-45.5 171q0 78 40.5 133t124.5 55q55 0 90.5 -26t59 -64t42 -76.5t38 -64.5t47.5 -26q38 0 60 34t38 75l-407 786 q-18 35 -55 61.5t-68 55.5t-31 70zM392 1171q0 26 17.5 68t39.5 83.5t35 66.5q24 45 50 89.5t64 74t97 29.5q74 0 129 -48.5t55 -125.5q0 -84 -59 -139.5t-130 -84.5l-166 -66q-14 -6 -27.5 -10t-29.5 -4q-30 0 -52.5 17.5t-22.5 49.5z" />
<glyph unicode="&#xfe;" horiz-adv-x="1363" d="M18 1378q0 41 25 62.5t59 34.5l223 87q39 15 79.5 27.5t83.5 12.5q41 0 63.5 -28t22.5 -67v-575q61 56 136 90t166 34q141 0 237 -73.5t145 -189.5t49 -245q0 -158 -64.5 -289.5t-183.5 -209.5t-285 -78q-113 0 -200 45v-213q0 -27 3 -56.5t25 -48.5q28 -23 46.5 -43.5 t18.5 -60.5q0 -45 -28 -68t-71 -23h-438q-43 0 -71.5 23t-28.5 68q0 39 19 60.5t47 43.5q23 18 25.5 48t2.5 57v1393q0 51 -16 72t-37 31t-37 25.5t-16 53.5zM574 242q21 -19 47 -31t59 -12q52 0 84.5 31.5t49.5 79.5t23.5 99t6.5 89q0 42 -7 93t-26 98t-53.5 77t-90.5 30 q-52 0 -93 -33v-521z" />
<glyph unicode="&#xff;" horiz-adv-x="1268" d="M-3 934q0 45 28 67.5t71 22.5h535q43 0 71 -22t28 -67q0 -40 -18 -59t-41.5 -28.5t-41.5 -21t-18 -35.5q0 -28 9 -56t22 -54l136 -271l123 256q21 44 21 94q0 42 -20.5 58t-47 25t-47 27.5t-20.5 65.5q0 45 28.5 66.5t70.5 21.5h292q43 0 70.5 -22.5t27.5 -67.5 q0 -35 -13 -51.5t-37 -38.5q-43 -40 -65 -71.5t-47 -84.5l-272 -574q-37 -78 -78.5 -166.5t-95.5 -166t-129 -127t-179 -49.5q-96 0 -173.5 37t-123 108t-45.5 171q0 78 40.5 133t124.5 55q55 0 90.5 -26t59 -64t42 -76.5t38 -64.5t47.5 -26q38 0 60 34t38 75l-407 786 q-18 35 -55 61.5t-68 55.5t-31 70zM164 1282q0 96 60.5 143t150.5 47q91 0 150.5 -47t59.5 -143t-60 -142.5t-150 -46.5q-91 0 -151 46t-60 143zM682 1282q0 96 60.5 143t150.5 47q92 0 152.5 -46t60.5 -144q0 -97 -61 -143t-152 -46t-151 46t-60 143z" />
<glyph unicode="&#x152;" horiz-adv-x="2218" d="M69 654q0 177 63 313t174 229t257.5 140.5t313.5 47.5h799q58 0 115 12q29 7 59 14t61 7q80 0 110.5 -45t50.5 -113q7 -21 23 -71.5t30 -99.5t14 -67q0 -47 -39.5 -70.5t-80.5 -23.5q-43 0 -67 21t-42 57q-31 62 -60.5 95.5t-71 47t-110.5 13.5h-156v-367h100 q37 0 50.5 11t18 31.5t13.5 48.5q23 69 95 69q42 0 66 -22.5t34 -61.5l64 -254q6 -21 6 -44q0 -44 -30 -71t-73 -27q-29 0 -51 15t-39 37q-25 34 -40.5 47.5t-37 16.5t-65.5 3h-111v-203q0 -75 28.5 -121t111.5 -46h36q75 0 122 13.5t79.5 50.5t63.5 105q17 36 40 57.5 t66 21.5q49 0 83.5 -28t34.5 -80q0 -24 -13 -71t-28.5 -95t-23.5 -74q-20 -67 -50.5 -112.5t-110.5 -45.5q-31 0 -61 7.5t-59 14.5q-28 6 -57 9.5t-58 3.5h-829q-163 0 -310.5 33.5t-262 109t-180 201.5t-65.5 310zM644 681q0 -72 16 -152t52 -149.5t96 -113t149 -43.5h63 l1 938h-73q-91 0 -150.5 -47t-93 -121t-47 -157t-13.5 -155z" />
<glyph unicode="&#x153;" horiz-adv-x="1811" d="M45 523q0 154 73.5 274.5t197.5 189.5t276 69q96 0 186.5 -37.5t146.5 -118.5q5 -7 15 -25q60 83 154.5 132t224.5 49q119 0 221.5 -45.5t165 -133.5t62.5 -216q0 -89 -51.5 -135t-138.5 -46h-408q24 -86 83.5 -144.5t170.5 -58.5q74 0 128.5 31t93 62t62.5 31 q29 0 42 -20.5t13 -46.5q0 -91 -41.5 -159t-109.5 -113.5t-149 -68t-161 -22.5q-115 0 -203.5 42t-147.5 115q-66 -76 -158.5 -116.5t-195.5 -40.5q-165 0 -289 69t-193.5 193.5t-69.5 289.5zM497 703q0 -56 9 -112t22 -111q5 -20 18 -66.5t32.5 -97.5t45 -87.5t54.5 -36.5 q26 0 37 27t14 60t3 49q0 56 -8.5 111.5t-22.5 109.5q-5 20 -18.5 66t-33.5 98t-45 88.5t-54 36.5q-24 0 -35.5 -27t-14.5 -59.5t-3 -48.5zM1152 612h109q38 0 52 17.5t14 53.5q0 24 -6 63t-23.5 70t-52.5 31q-31 0 -50 -25t-28 -61t-12 -71t-3 -56v-22z" />
<glyph unicode="&#x178;" horiz-adv-x="1597" d="M35 1275q0 58 34.5 83.5t88.5 25.5h569q54 0 88 -25.5t34 -83.5q0 -50 -21.5 -75t-49 -38.5t-49 -27t-21.5 -40.5q0 -20 10.5 -42.5t20.5 -39.5l195 -335l213 371q7 12 13.5 26.5t6.5 28.5q0 23 -19.5 35.5t-44.5 26t-44.5 38.5t-19.5 72q0 58 34 83.5t88 25.5h279 q54 0 88 -25.5t34 -83.5q0 -46 -19 -67.5t-53 -47.5q-34 -27 -52.5 -50.5t-41.5 -61.5l-342 -575v-146q0 -42 24.5 -62t57 -35t57 -41t24.5 -80q0 -58 -34 -83.5t-88 -25.5h-575q-53 0 -87.5 26t-34.5 83q0 52 25 78t57 41.5t57 36t25 62.5v133l-349 578q-23 39 -34.5 62 t-52.5 50q-43 29 -67 48t-24 77zM328 1642q0 96 60.5 143t150.5 47q91 0 150.5 -47t59.5 -143t-60 -142.5t-150 -46.5q-91 0 -151 46t-60 143zM846 1642q0 96 60.5 143t150.5 47q92 0 152.5 -46t60.5 -144q0 -97 -61 -143t-152 -46t-151 46t-60 143z" />
<glyph unicode="&#x2c6;" horiz-adv-x="1024" d="M99 1189q0 43 31 76l202 206q10 10 17 20q30 39 72 64t92 25q57 0 86.5 -21.5t66.5 -59.5l229 -234q31 -33 31 -75q0 -35 -26 -54.5t-58 -19.5q-22 0 -42.5 9t-37.5 22l-249 179l-250 -179q-18 -13 -38 -22t-43 -9q-32 0 -57.5 19.5t-25.5 53.5z" />
<glyph unicode="&#x2dc;" horiz-adv-x="1024" d="M62 1147q0 113 59 195t182 82q76 0 142 -30.5t127.5 -61t121.5 -30.5q48 0 67.5 19t30 44.5t28 44.5t61.5 19q50 0 65.5 -34t15.5 -76q0 -113 -60 -195.5t-182 -82.5q-74 0 -140.5 30.5t-127.5 61t-122 30.5q-48 0 -67.5 -19t-30 -44.5t-28 -44.5t-61.5 -19 q-50 0 -65.5 34.5t-15.5 76.5z" />
<glyph unicode="&#x2000;" horiz-adv-x="958" />
<glyph unicode="&#x2001;" horiz-adv-x="1916" />
<glyph unicode="&#x2002;" horiz-adv-x="958" />
<glyph unicode="&#x2003;" horiz-adv-x="1916" />
<glyph unicode="&#x2004;" horiz-adv-x="638" />
<glyph unicode="&#x2005;" horiz-adv-x="479" />
<glyph unicode="&#x2006;" horiz-adv-x="319" />
<glyph unicode="&#x2007;" horiz-adv-x="319" />
<glyph unicode="&#x2008;" horiz-adv-x="239" />
<glyph unicode="&#x2009;" horiz-adv-x="383" />
<glyph unicode="&#x200a;" horiz-adv-x="106" />
<glyph unicode="&#x2010;" horiz-adv-x="582" d="M3 456q0 28 8.5 54t18.5 51v2q4 6 6 18q8 42 34.5 74.5t73.5 32.5h366q29 0 49.5 -13.5t20.5 -45.5q0 -22 -7.5 -44t-13.5 -44q-9 -32 -21 -65.5t-34 -56t-64 -22.5h-367q-29 0 -49.5 13.5t-20.5 45.5z" />
<glyph unicode="&#x2011;" horiz-adv-x="582" d="M3 456q0 28 8.5 54t18.5 51v2q4 6 6 18q8 42 34.5 74.5t73.5 32.5h366q29 0 49.5 -13.5t20.5 -45.5q0 -22 -7.5 -44t-13.5 -44q-9 -32 -21 -65.5t-34 -56t-64 -22.5h-367q-29 0 -49.5 13.5t-20.5 45.5z" />
<glyph unicode="&#x2012;" horiz-adv-x="582" d="M3 456q0 28 8.5 54t18.5 51v2q4 6 6 18q8 42 34.5 74.5t73.5 32.5h366q29 0 49.5 -13.5t20.5 -45.5q0 -22 -7.5 -44t-13.5 -44q-9 -32 -21 -65.5t-34 -56t-64 -22.5h-367q-29 0 -49.5 13.5t-20.5 45.5z" />
<glyph unicode="&#x2013;" d="M58 548q0 49 19.5 92t77.5 43h919q59 0 78 -43t19 -92t-19 -92.5t-78 -43.5h-919q-58 0 -77.5 43.5t-19.5 92.5z" />
<glyph unicode="&#x2014;" horiz-adv-x="1749" d="M58 548q0 48 19 91.5t77 43.5h1442q57 0 76 -44t19 -91q0 -46 -19 -91t-76 -45h-1442q-58 0 -77 44.5t-19 91.5z" />
<glyph unicode="&#x2018;" horiz-adv-x="614" d="M35 1041q0 180 101 314.5t272 187.5q24 8 47 8q40 0 65.5 -25t25.5 -65t-28.5 -57.5t-59.5 -30.5q-33 -14 -78.5 -37.5t-80 -56.5t-34.5 -75q0 -25 15 -33.5t37 -8.5q101 0 167 -40.5t66 -153.5q0 -103 -73.5 -164t-171.5 -61q-133 0 -201.5 86t-68.5 212z" />
<glyph unicode="&#x2019;" horiz-adv-x="615" d="M63 1323q0 104 74.5 164.5t172.5 60.5q134 0 202 -85.5t68 -212.5q0 -180 -101.5 -314.5t-272.5 -187.5q-24 -8 -47 -8q-39 0 -65.5 24.5t-26.5 64.5t28.5 58t59.5 31q33 14 79.5 37.5t82 57t35.5 74.5q0 24 -16 33t-37 9q-101 0 -168.5 40t-67.5 154z" />
<glyph unicode="&#x201a;" horiz-adv-x="614" d="M63 197q0 69 34.5 119.5t91 78t121.5 27.5q134 0 201.5 -85.5t67.5 -212.5q0 -118 -46 -219.5t-130 -175t-197 -107.5q-26 -8 -48 -8q-39 0 -65 25t-26 64t28.5 57.5t59.5 31.5q33 14 79.5 37.5t81.5 56.5t35 75q0 24 -16 33t-37 9q-101 0 -168 40.5t-67 153.5z" />
<glyph unicode="&#x201c;" horiz-adv-x="1145" d="M35 1042q0 115 42.5 216t122 176t190.5 110q24 8 47 8q39 0 63 -25.5t24 -63.5q0 -40 -27.5 -57.5t-58.5 -31.5q-32 -14 -74.5 -38t-73.5 -56.5t-31 -74.5t48 -42q101 0 161.5 -42.5t60.5 -151.5q0 -100 -69.5 -162.5t-166.5 -62.5q-88 0 -145 41t-85 108.5t-28 148.5z M589 1042q0 115 42.5 216t121.5 176t190 110q24 8 47 8q39 0 63 -25.5t24 -63.5q0 -40 -27.5 -57.5t-58.5 -31.5q-32 -14 -74.5 -38t-73.5 -56.5t-31 -74.5t48 -42q101 0 161 -42.5t60 -151.5q0 -99 -69 -162t-166 -63q-88 0 -145 41t-84.5 108.5t-27.5 148.5z" />
<glyph unicode="&#x201d;" horiz-adv-x="1145" d="M63 1323q0 100 69.5 162.5t166.5 62.5q88 0 145 -40.5t84.5 -108.5t27.5 -149q0 -114 -42.5 -215t-121.5 -176t-190 -111q-24 -8 -46 -8q-38 0 -63.5 25t-25.5 63q0 40 28 58t59 32q33 15 75 38.5t73 56t31 74.5t-48 42q-100 0 -161 42.5t-61 151.5zM617 1323 q0 100 69.5 162.5t166.5 62.5q88 0 145 -40.5t84.5 -108.5t27.5 -149q0 -114 -42.5 -215t-121.5 -176t-190 -111q-24 -8 -46 -8q-38 0 -63.5 25t-25.5 63q0 40 28 58t59 32q33 15 75 38.5t73 56t31 74.5t-48 42q-100 0 -161 42.5t-61 151.5z" />
<glyph unicode="&#x201e;" horiz-adv-x="1145" d="M63 191q0 99 69.5 162.5t166.5 63.5q88 0 145 -40.5t84.5 -108.5t27.5 -149q0 -172 -93.5 -311t-260.5 -192q-24 -8 -46 -8q-38 0 -63.5 25t-25.5 63q0 40 28 59t59 32q32 14 74 38t73.5 56.5t31.5 73.5q0 42 -48 42q-100 0 -161 42.5t-61 151.5zM617 191 q0 99 69.5 162.5t166.5 63.5q88 0 145 -40.5t84.5 -108.5t27.5 -149q0 -172 -93.5 -311t-260.5 -192q-24 -8 -46 -8q-38 0 -63.5 25t-25.5 63q0 40 28 59t59 32q32 14 74 38t73.5 56.5t31.5 73.5q0 42 -48 42q-100 0 -161 42.5t-61 151.5z" />
<glyph unicode="&#x2022;" horiz-adv-x="1365" d="M266 513q0 112 59 198.5t154 135.5t202 49q109 0 204 -48.5t154.5 -134.5t59.5 -200q0 -113 -59.5 -200t-155 -136.5t-203.5 -49.5q-107 0 -202 50t-154 137.5t-59 198.5z" />
<glyph unicode="&#x2026;" horiz-adv-x="1843" d="M88 226q0 66 29.5 124.5t81.5 95t121 36.5q70 0 122.5 -36.5t82.5 -94.5t30 -125q0 -66 -30 -124.5t-83 -95.5t-122 -37t-121 37t-81.5 96t-29.5 124zM689 226q0 66 29.5 124.5t81.5 95t121 36.5q70 0 122.5 -36.5t82.5 -94.5t30 -125q0 -66 -30 -124.5t-83 -95.5 t-122 -37t-121 37t-81.5 96t-29.5 124zM1287 226q0 66 29.5 124.5t82 95t121.5 36.5t122 -36.5t83 -95t30 -124.5q0 -65 -30 -124t-83 -96t-122 -37q-68 0 -121 37t-82.5 96t-29.5 124z" />
<glyph unicode="&#x202f;" horiz-adv-x="383" />
<glyph unicode="&#x2039;" horiz-adv-x="570" d="M25 492q0 47 26 86t57 72q48 53 99 102t103 97q29 27 57.5 54.5t59.5 50.5q14 11 30.5 19.5t34.5 8.5q23 0 38 -16t15 -39q0 -16 -5 -32t-12 -31l-157 -372l152 -361v-1q8 -12 15 -35.5t7 -37.5q0 -22 -15 -39t-38 -17t-63 27.5t-88 70t-94.5 89t-83.5 86t-55 59.5 q-29 33 -56 73t-27 86z" />
<glyph unicode="&#x203a;" horiz-adv-x="570" d="M25 57q0 17 18 67.5t46 117.5t57 133.5t51 116.5q-22 49 -51 116t-57 133.5t-46 117t-18 67.5q0 23 15 39.5t38 16.5q32 0 61.5 -25.5t51.5 -45.5q69 -64 137.5 -128t132.5 -133q31 -33 57.5 -71.5t26.5 -86.5q0 -47 -27 -86t-57 -73q-17 -19 -54 -58.5t-84 -86 t-94.5 -89.5t-87.5 -70.5t-63 -27.5t-38 17t-15 39z" />
<glyph unicode="&#x205f;" horiz-adv-x="479" />
<glyph unicode="&#x20ac;" d="M33 587q0 21 11.5 42.5t36.5 21.5h65v22q0 42 3 83h-71q-26 0 -35.5 21.5t-9.5 43.5q0 20 10.5 42t33.5 22h89q31 157 111 279t212 191.5t318 69.5q45 0 107 -11t121 -35.5t98.5 -64.5t39.5 -98q0 -43 -12 -84t-25 -82q-10 -31 -25.5 -69t-57.5 -38q-55 0 -73 28.5 t-32 73.5q-11 34 -28.5 80t-46.5 81t-74 35q-40 0 -65 -56t-39 -138.5t-21 -161.5h152q26 0 38 -20.5t12 -43.5t-11.5 -44t-38.5 -21h-158q-1 -25 -1 -44q0 -27 1 -61h95q26 0 38 -21t12 -44t-11.5 -43.5t-38.5 -20.5h-90v-2q2 -37 7.5 -88t21.5 -99t47 -80t82 -32 q60 0 94.5 26.5t54.5 65.5t34 78t32.5 65.5t51.5 26.5q40 0 58.5 -25t18.5 -62q0 -17 -2 -26q-40 -189 -159.5 -299.5t-318.5 -110.5q-170 0 -282.5 79.5t-175 207.5t-81.5 275h-78q-26 0 -35.5 21.5t-9.5 43.5z" />
<glyph unicode="&#x2122;" horiz-adv-x="1948" d="M44 1214q0 35 7 68.5t14 67.5q8 35 16 72t29 62.5t67 25.5q37 0 72.5 -11.5t72.5 -11.5h218q36 0 71 11.5t71 11.5q47 0 69 -25.5t31 -63t15 -73.5q6 -33 13 -66.5t7 -67.5t-19.5 -57.5t-55.5 -23.5t-51.5 26t-25 60.5t-24.5 63.5t-48 36v-370q0 -15 3 -30t13 -28l2 -11 q22 -15 30 -36t8 -47q0 -79 -76 -79h-285q-76 0 -76 80q0 54 37 82v11q11 12 14.5 27t3.5 31v370q-32 -7 -46 -36t-23.5 -64t-26 -60.5t-52.5 -25.5t-55.5 23.5t-19.5 57.5zM801 799q0 57 45 87q20 33 21 64l19 307v8q0 35 -16.5 53t-33 37t-16.5 57q0 77 77 77h225 q71 0 100.5 -41.5t49.5 -100.5l51 -148l48 148q20 61 49.5 101.5t101.5 40.5h230q76 0 76 -77q0 -35 -17 -56.5t-34.5 -40t-17.5 -45.5v-6l18 -313q2 -35 16.5 -54.5t28.5 -38.5t14 -53q0 -35 -18 -60t-56 -25h-298q-76 0 -76 79q0 38 17 57t33.5 36.5t16.5 49.5v9l-10 147 l-83 -235q-16 -45 -40 -88t-81 -43q-65 0 -90 42.5t-44 94.5l-88 244l-12 -163v-5q0 -25 13.5 -46.5t26.5 -44t13 -51.5q0 -39 -17.5 -61t-58.5 -22h-106q-77 0 -77 79z" />
<glyph unicode="&#x25fc;" horiz-adv-x="1025" d="M0 0v1025h1025v-1025h-1025z" />
</font>
</defs>
</svg>
